Varta-Light.ufo
<glyph name="exclam" format="2">
  <advance width="567.0"/>
  <unicode hex="0021"/>
  <outline>
    <contour>
      <point x="235.0" y="390.0" type="line"/>
      <point x="331.0" y="390.0" type="line"/>
      <point x="350.0" y="1199.0" type="line"/>
      <point x="353.0" y="1372.0" type="line"/>
      <point x="214.0" y="1372.0" type="line"/>
      <point x="217.0" y="1199.0" type="line"/>
    </contour>
    <contour>
      <point x="284.0" y="-25.0" type="curve" smooth="yes"/>
      <point x="341.0" y="-25.0"/>
      <point x="391.0" y="21.0"/>
      <point x="391.0" y="88.0" type="curve" smooth="yes"/>
      <point x="391.0" y="158.0"/>
      <point x="341.0" y="204.0"/>
      <point x="284.0" y="204.0" type="curve" smooth="yes"/>
      <point x="226.0" y="204.0"/>
      <point x="176.0" y="158.0"/>
      <point x="176.0" y="88.0" type="curve" smooth="yes"/>
      <point x="176.0" y="21.0"/>
      <point x="226.0" y="-25.0"/>
    </contour>
  </outline>
</glyph>
<glyph name="numbersign" format="2">
  <advance width="1003.0"/>
  <unicode hex="0023"/>
  <outline>
    <contour>
      <point x="186.0" y="0.0" type="line"/>
      <point x="281.0" y="0.0" type="line"/>
      <point x="333.0" y="426.0" type="line"/>
      <point x="618.0" y="426.0" type="line"/>
      <point x="568.0" y="0.0" type="line"/>
      <point x="662.0" y="0.0" type="line"/>
      <point x="713.0" y="426.0" type="line"/>
      <point x="900.0" y="426.0" type="line"/>
      <point x="900.0" y="526.0" type="line"/>
      <point x="725.0" y="526.0" type="line"/>
      <point x="764.0" y="847.0" type="line"/>
      <point x="941.0" y="847.0" type="line"/>
      <point x="941.0" y="947.0" type="line"/>
      <point x="775.0" y="947.0" type="line"/>
      <point x="825.0" y="1331.0" type="line"/>
      <point x="732.0" y="1331.0" type="line"/>
      <point x="681.0" y="947.0" type="line"/>
      <point x="396.0" y="947.0" type="line"/>
      <point x="444.0" y="1331.0" type="line"/>
      <point x="350.0" y="1331.0" type="line"/>
      <point x="302.0" y="947.0" type="line"/>
      <point x="114.0" y="947.0" type="line"/>
      <point x="114.0" y="847.0" type="line"/>
      <point x="290.0" y="847.0" type="line"/>
      <point x="251.0" y="526.0" type="line"/>
      <point x="73.0" y="526.0" type="line"/>
      <point x="73.0" y="426.0" type="line"/>
      <point x="239.0" y="426.0" type="line"/>
    </contour>
    <contour>
      <point x="345.0" y="526.0" type="line"/>
      <point x="385.0" y="847.0" type="line"/>
      <point x="670.0" y="847.0" type="line"/>
      <point x="631.0" y="526.0" type="line"/>
    </contour>
  </outline>
</glyph>
<glyph name="ampersand" format="2">
  <advance width="1219.0"/>
  <unicode hex="0026"/>
  <outline>
    <contour>
      <point x="470.0" y="-25.0" type="curve" smooth="yes"/>
      <point x="625.0" y="-25.0"/>
      <point x="749.0" y="40.0"/>
      <point x="849.0" y="136.0" type="curve"/>
      <point x="957.0" y="56.0"/>
      <point x="1059.0" y="4.0"/>
      <point x="1150.0" y="-25.0" type="curve"/>
      <point x="1190.0" y="90.0" type="line"/>
      <point x="1114.0" y="114.0"/>
      <point x="1027.0" y="162.0"/>
      <point x="934.0" y="230.0" type="curve"/>
      <point x="1041.0" y="370.0"/>
      <point x="1117.0" y="538.0"/>
      <point x="1170.0" y="718.0" type="curve"/>
      <point x="1041.0" y="718.0" type="line"/>
      <point x="998.0" y="556.0"/>
      <point x="931.0" y="415.0"/>
      <point x="843.0" y="301.0" type="curve"/>
      <point x="711.0" y="414.0"/>
      <point x="579.0" y="561.0"/>
      <point x="489.0" y="713.0" type="curve"/>
      <point x="640.0" y="824.0"/>
      <point x="796.0" y="929.0"/>
      <point x="796.0" y="1116.0" type="curve" smooth="yes"/>
      <point x="796.0" y="1267.0"/>
      <point x="702.0" y="1370.0"/>
      <point x="544.0" y="1370.0" type="curve" smooth="yes"/>
      <point x="367.0" y="1370.0"/>
      <point x="249.0" y="1236.0"/>
      <point x="249.0" y="1060.0" type="curve" smooth="yes"/>
      <point x="249.0" y="959.0"/>
      <point x="283.0" y="849.0"/>
      <point x="338.0" y="737.0" type="curve"/>
      <point x="200.0" y="639.0"/>
      <point x="69.0" y="525.0"/>
      <point x="69.0" y="346.0" type="curve" smooth="yes"/>
      <point x="69.0" y="126.0"/>
      <point x="238.0" y="-25.0"/>
    </contour>
    <contour>
      <point x="485.0" y="87.0" type="curve" smooth="yes"/>
      <point x="329.0" y="87.0"/>
      <point x="203.0" y="193.0"/>
      <point x="203.0" y="354.0" type="curve" smooth="yes"/>
      <point x="203.0" y="470.0"/>
      <point x="288.0" y="558.0"/>
      <point x="393.0" y="641.0" type="curve"/>
      <point x="488.0" y="485.0"/>
      <point x="622.0" y="332.0"/>
      <point x="758.0" y="211.0" type="curve"/>
      <point x="678.0" y="136.0"/>
      <point x="584.0" y="87.0"/>
    </contour>
    <contour>
      <point x="438.0" y="805.0" type="curve"/>
      <point x="395.0" y="893.0"/>
      <point x="369.0" y="982.0"/>
      <point x="369.0" y="1063.0" type="curve" smooth="yes"/>
      <point x="369.0" y="1178.0"/>
      <point x="435.0" y="1269.0"/>
      <point x="543.0" y="1269.0" type="curve" smooth="yes"/>
      <point x="640.0" y="1269.0"/>
      <point x="681.0" y="1192.0"/>
      <point x="681.0" y="1110.0" type="curve" smooth="yes"/>
      <point x="681.0" y="974.0"/>
      <point x="566.0" y="893.0"/>
    </contour>
  </outline>
</glyph>
<glyph name="parenleft" format="2">
  <advance width="600.0"/>
  <unicode hex="0028"/>
  <outline>
    <contour>
      <point x="443.0" y="-359.0" type="curve"/>
      <point x="528.0" y="-317.0" type="line"/>
      <point x="368.0" y="-58.0"/>
      <point x="290.0" y="242.0"/>
      <point x="290.0" y="567.0" type="curve" smooth="yes"/>
      <point x="290.0" y="894.0"/>
      <point x="368.0" y="1197.0"/>
      <point x="528.0" y="1456.0" type="curve"/>
      <point x="443.0" y="1498.0" type="line"/>
      <point x="274.0" y="1225.0"/>
      <point x="173.0" y="939.0"/>
      <point x="173.0" y="567.0" type="curve" smooth="yes"/>
      <point x="173.0" y="196.0"/>
      <point x="274.0" y="-86.0"/>
    </contour>
  </outline>
</glyph>
<glyph name="asterisk" format="2">
  <advance width="837.0"/>
  <unicode hex="002A"/>
  <outline>
    <contour>
      <point x="278.0" y="895.0" type="line"/>
      <point x="419.0" y="1069.0" type="line"/>
      <point x="558.0" y="895.0" type="line"/>
      <point x="628.0" y="947.0" type="line"/>
      <point x="515.0" y="1135.0" type="line"/>
      <point x="708.0" y="1213.0" type="line"/>
      <point x="682.0" y="1294.0" type="line"/>
      <point x="478.0" y="1244.0" type="line"/>
      <point x="460.0" y="1458.0" type="line"/>
      <point x="375.0" y="1458.0" type="line"/>
      <point x="357.0" y="1242.0" type="line"/>
      <point x="155.0" y="1294.0" type="line"/>
      <point x="129.0" y="1213.0" type="line"/>
      <point x="322.0" y="1135.0" type="line"/>
      <point x="207.0" y="947.0" type="line"/>
    </contour>
  </outline>
</glyph>
<glyph name="comma" format="2">
  <advance width="485.0"/>
  <unicode hex="002C"/>
  <outline>
    <contour>
      <point x="133.0" y="-353.0" type="line"/>
      <point x="281.0" y="-285.0"/>
      <point x="378.0" y="-138.0"/>
      <point x="378.0" y="27.0" type="curve" smooth="yes"/>
      <point x="378.0" y="137.0"/>
      <point x="329.0" y="204.0"/>
      <point x="251.0" y="204.0" type="curve" smooth="yes"/>
      <point x="193.0" y="204.0"/>
      <point x="141.0" y="165.0"/>
      <point x="141.0" y="99.0" type="curve" smooth="yes"/>
      <point x="141.0" y="31.0"/>
      <point x="190.0" y="-5.0"/>
      <point x="248.0" y="-5.0" type="curve" smooth="yes"/>
      <point x="255.0" y="-5.0"/>
      <point x="263.0" y="-5.0"/>
      <point x="271.0" y="-3.0" type="curve"/>
      <point x="270.0" y="-115.0"/>
      <point x="201.0" y="-224.0"/>
      <point x="96.0" y="-274.0" type="curve"/>
    </contour>
  </outline>
</glyph>
<glyph name="two" format="2">
  <advance width="1003.0"/>
  <unicode hex="0032"/>
  <outline>
    <contour>
      <point x="83.0" y="0.0" type="line"/>
      <point x="910.0" y="0.0" type="line"/>
      <point x="910.0" y="119.0" type="line"/>
      <point x="503.0" y="119.0" type="line"/>
      <point x="434.0" y="119.0"/>
      <point x="356.0" y="113.0"/>
      <point x="284.0" y="108.0" type="curve"/>
      <point x="615.0" y="457.0"/>
      <point x="844.0" y="739.0"/>
      <point x="844.0" y="995.0" type="curve" smooth="yes"/>
      <point x="844.0" y="1224.0"/>
      <point x="701.0" y="1370.0"/>
      <point x="461.0" y="1370.0" type="curve" smooth="yes"/>
      <point x="295.0" y="1370.0"/>
      <point x="179.0" y="1293.0"/>
      <point x="75.0" y="1179.0" type="curve"/>
      <point x="156.0" y="1098.0" type="line"/>
      <point x="233.0" y="1191.0"/>
      <point x="332.0" y="1258.0"/>
      <point x="445.0" y="1258.0" type="curve" smooth="yes"/>
      <point x="626.0" y="1258.0"/>
      <point x="710.0" y="1142.0"/>
      <point x="710.0" y="988.0" type="curve" smooth="yes"/>
      <point x="710.0" y="770.0"/>
      <point x="491.0" y="493.0"/>
      <point x="83.0" y="82.0" type="curve"/>
    </contour>
  </outline>
</glyph>
<glyph name="six" format="2">
  <advance width="1003.0"/>
  <unicode hex="0036"/>
  <outline>
    <contour>
      <point x="543.0" y="-25.0" type="curve" smooth="yes"/>
      <point x="747.0" y="-25.0"/>
      <point x="918.0" y="152.0"/>
      <point x="918.0" y="397.0" type="curve" smooth="yes"/>
      <point x="918.0" y="684.0"/>
      <point x="776.0" y="828.0"/>
      <point x="549.0" y="828.0" type="curve" smooth="yes"/>
      <point x="437.0" y="828.0"/>
      <point x="319.0" y="764.0"/>
      <point x="234.0" y="659.0" type="curve"/>
      <point x="240.0" y="1107.0"/>
      <point x="404.0" y="1254.0"/>
      <point x="596.0" y="1254.0" type="curve" smooth="yes"/>
      <point x="679.0" y="1254.0"/>
      <point x="759.0" y="1224.0"/>
      <point x="814.0" y="1157.0" type="curve"/>
      <point x="892.0" y="1244.0" type="line"/>
      <point x="821.0" y="1322.0"/>
      <point x="726.0" y="1370.0"/>
      <point x="593.0" y="1370.0" type="curve" smooth="yes"/>
      <point x="336.0" y="1370.0"/>
      <point x="101.0" y="1170.0"/>
      <point x="101.0" y="629.0" type="curve" smooth="yes"/>
      <point x="101.0" y="213.0"/>
      <point x="284.0" y="-25.0"/>
    </contour>
    <contour>
      <point x="544.0" y="86.0" type="curve" smooth="yes"/>
      <point x="359.0" y="86.0"/>
      <point x="256.0" y="273.0"/>
      <point x="237.0" y="542.0" type="curve"/>
      <point x="332.0" y="673.0"/>
      <point x="442.0" y="721.0"/>
      <point x="528.0" y="721.0" type="curve" smooth="yes"/>
      <point x="705.0" y="721.0"/>
      <point x="786.0" y="595.0"/>
      <point x="786.0" y="397.0" type="curve" smooth="yes"/>
      <point x="786.0" y="219.0"/>
      <point x="682.0" y="86.0"/>
    </contour>
  </outline>
</glyph>
<glyph name="C" format="2">
  <advance width="1152.0"/>
  <unicode hex="0043"/>
  <anchor x="626.0" y="0.0" name="bottom"/>
  <anchor x="646.0" y="1346.0" name="top"/>
  <outline>
    <contour>
      <point x="679.0" y="-25.0" type="curve" smooth="yes"/>
      <point x="851.0" y="-25.0"/>
      <point x="981.0" y="46.0"/>
      <point x="1085.0" y="167.0" type="curve"/>
      <point x="1005.0" y="253.0" type="line"/>
      <point x="914.0" y="151.0"/>
      <point x="815.0" y="99.0"/>
      <point x="683.0" y="99.0" type="curve" smooth="yes"/>
      <point x="413.0" y="99.0"/>
      <point x="246.0" y="318.0"/>
      <point x="246.0" y="678.0" type="curve" smooth="yes"/>
      <point x="246.0" y="1035.0"/>
      <point x="419.0" y="1247.0"/>
      <point x="691.0" y="1247.0" type="curve" smooth="yes"/>
      <point x="807.0" y="1247.0"/>
      <point x="901.0" y="1197.0"/>
      <point x="973.0" y="1119.0" type="curve"/>
      <point x="1053.0" y="1208.0" type="line"/>
      <point x="976.0" y="1294.0"/>
      <point x="849.0" y="1370.0"/>
      <point x="690.0" y="1370.0" type="curve" smooth="yes"/>
      <point x="346.0" y="1370.0"/>
      <point x="102.0" y="1114.0"/>
      <point x="102.0" y="674.0" type="curve" smooth="yes"/>
      <point x="102.0" y="231.0"/>
      <point x="343.0" y="-25.0"/>
    </contour>
  </outline>
</glyph>
<glyph name="D" format="2">
  <advance width="1242.0"/>
  <unicode hex="0044"/>
  <anchor x="621.0" y="0.0" name="bottom"/>
  <anchor x="621.0" y="673.0" name="center"/>
  <anchor x="621.0" y="1346.0" name="top"/>
  <outline>
    <contour>
      <point x="184.0" y="0.0" type="line"/>
      <point x="518.0" y="0.0" type="line"/>
      <point x="928.0" y="0.0"/>
      <point x="1136.0" y="252.0"/>
      <point x="1136.0" y="679.0" type="curve" smooth="yes"/>
      <point x="1136.0" y="1104.0"/>
      <point x="934.0" y="1346.0"/>
      <point x="519.0" y="1346.0" type="curve" smooth="yes"/>
      <point x="184.0" y="1346.0" type="line"/>
    </contour>
    <contour>
      <point x="324.0" y="115.0" type="line"/>
      <point x="324.0" y="1231.0" type="line"/>
      <point x="508.0" y="1231.0" type="line"/>
      <point x="843.0" y="1231.0"/>
      <point x="992.0" y="1028.0"/>
      <point x="992.0" y="679.0" type="curve" smooth="yes"/>
      <point x="992.0" y="330.0"/>
      <point x="838.0" y="115.0"/>
      <point x="502.0" y="115.0" type="curve" smooth="yes"/>
    </contour>
  </outline>
</glyph>
<glyph name="F" format="2">
  <advance width="985.0"/>
  <unicode hex="0046"/>
  <anchor x="493.0" y="0.0" name="bottom"/>
  <anchor x="493.0" y="1346.0" name="top"/>
  <outline>
    <contour>
      <point x="184.0" y="0.0" type="line"/>
      <point x="324.0" y="0.0" type="line"/>
      <point x="324.0" y="621.0" type="line"/>
      <point x="848.0" y="621.0" type="line"/>
      <point x="848.0" y="739.0" type="line"/>
      <point x="324.0" y="739.0" type="line"/>
      <point x="324.0" y="1228.0" type="line"/>
      <point x="943.0" y="1228.0" type="line"/>
      <point x="943.0" y="1346.0" type="line"/>
      <point x="184.0" y="1346.0" type="line"/>
    </contour>
  </outline>
</glyph>
<glyph name="G" format="2">
  <advance width="1241.0"/>
  <unicode hex="0047"/>
  <anchor x="621.0" y="0.0" name="bottom"/>
  <anchor x="713.0" y="1346.0" name="top"/>
  <outline>
    <contour>
      <point x="696.0" y="-25.0" type="curve" smooth="yes"/>
      <point x="875.0" y="-25.0"/>
      <point x="1020.0" y="43.0"/>
      <point x="1106.0" y="130.0" type="curve"/>
      <point x="1106.0" y="683.0" type="line"/>
      <point x="683.0" y="683.0" type="line"/>
      <point x="683.0" y="567.0" type="line"/>
      <point x="978.0" y="567.0" type="line"/>
      <point x="978.0" y="188.0" type="line"/>
      <point x="919.0" y="132.0"/>
      <point x="817.0" y="99.0"/>
      <point x="710.0" y="99.0" type="curve" smooth="yes"/>
      <point x="415.0" y="99.0"/>
      <point x="247.0" y="315.0"/>
      <point x="247.0" y="675.0" type="curve" smooth="yes"/>
      <point x="247.0" y="1041.0"/>
      <point x="427.0" y="1247.0"/>
      <point x="714.0" y="1247.0" type="curve" smooth="yes"/>
      <point x="854.0" y="1247.0"/>
      <point x="942.0" y="1196.0"/>
      <point x="1010.0" y="1123.0" type="curve"/>
      <point x="1091.0" y="1212.0" type="line"/>
      <point x="1014.0" y="1292.0"/>
      <point x="896.0" y="1370.0"/>
      <point x="713.0" y="1370.0" type="curve" smooth="yes"/>
      <point x="354.0" y="1370.0"/>
      <point x="102.0" y="1124.0"/>
      <point x="102.0" y="673.0" type="curve" smooth="yes"/>
      <point x="102.0" y="227.0"/>
      <point x="346.0" y="-25.0"/>
    </contour>
  </outline>
</glyph>
<glyph name="I" format="2">
  <advance width="507.0"/>
  <unicode hex="0049"/>
  <anchor x="254.0" y="0.0" name="bottom"/>
  <anchor x="456.0" y="10.0" name="ogonek"/>
  <anchor x="254.0" y="1346.0" name="top"/>
  <anchor x="20.0" y="1346.0" name="topleft"/>
  <outline>
    <contour>
      <point x="184.0" y="0.0" type="line"/>
      <point x="324.0" y="0.0" type="line"/>
      <point x="324.0" y="1346.0" type="line"/>
      <point x="184.0" y="1346.0" type="line"/>
    </contour>
  </outline>
</glyph>
<glyph name="J" format="2">
  <advance width="955.0"/>
  <unicode hex="004A"/>
  <anchor x="478.0" y="0.0" name="bottom"/>
  <anchor x="708.0" y="1346.0" name="top"/>
  <outline>
    <contour>
      <point x="422.0" y="-25.0" type="curve" smooth="yes"/>
      <point x="678.0" y="-25.0"/>
      <point x="777.0" y="152.0"/>
      <point x="777.0" y="378.0" type="curve" smooth="yes"/>
      <point x="777.0" y="1346.0" type="line"/>
      <point x="638.0" y="1346.0" type="line"/>
      <point x="638.0" y="392.0" type="line"/>
      <point x="638.0" y="181.0"/>
      <point x="565.0" y="99.0"/>
      <point x="413.0" y="99.0" type="curve" smooth="yes"/>
      <point x="310.0" y="99.0"/>
      <point x="231.0" y="144.0"/>
      <point x="166.0" y="253.0" type="curve"/>
      <point x="66.0" y="183.0" type="line"/>
      <point x="140.0" y="48.0"/>
      <point x="260.0" y="-25.0"/>
    </contour>
  </outline>
</glyph>
<glyph name="K" format="2">
  <advance width="1156.0"/>
  <unicode hex="004B"/>
  <anchor x="578.0" y="0.0" name="bottom"/>
  <anchor x="578.0" y="1346.0" name="top"/>
  <outline>
    <contour>
      <point x="184.0" y="0.0" type="line"/>
      <point x="324.0" y="0.0" type="line"/>
      <point x="324.0" y="442.0" type="line"/>
      <point x="572.0" y="731.0" type="line"/>
      <point x="991.0" y="0.0" type="line"/>
      <point x="1148.0" y="0.0" type="line"/>
      <point x="661.0" y="839.0" type="line"/>
      <point x="1086.0" y="1346.0" type="line"/>
      <point x="926.0" y="1346.0" type="line"/>
      <point x="328.0" y="641.0" type="line"/>
      <point x="324.0" y="641.0" type="line"/>
      <point x="324.0" y="1346.0" type="line"/>
      <point x="184.0" y="1346.0" type="line"/>
    </contour>
  </outline>
</glyph>
<glyph name="N" format="2">
  <advance width="1304.0"/>
  <unicode hex="004E"/>
  <anchor x="652.0" y="0.0" name="bottom"/>
  <anchor x="652.0" y="1346.0" name="top"/>
  <outline>
    <contour>
      <point x="184.0" y="0.0" type="line"/>
      <point x="316.0" y="0.0" type="line"/>
      <point x="316.0" y="758.0" type="line"/>
      <point x="316.0" y="895.0"/>
      <point x="306.0" y="1030.0"/>
      <point x="298.0" y="1163.0" type="curve"/>
      <point x="307.0" y="1163.0" type="line"/>
      <point x="455.0" y="889.0" type="line"/>
      <point x="974.0" y="0.0" type="line"/>
      <point x="1119.0" y="0.0" type="line"/>
      <point x="1119.0" y="1346.0" type="line"/>
      <point x="987.0" y="1346.0" type="line"/>
      <point x="987.0" y="597.0" type="line"/>
      <point x="987.0" y="460.0"/>
      <point x="998.0" y="317.0"/>
      <point x="1005.0" y="183.0" type="curve"/>
      <point x="997.0" y="183.0" type="line"/>
      <point x="849.0" y="458.0" type="line"/>
      <point x="328.0" y="1346.0" type="line"/>
      <point x="184.0" y="1346.0" type="line"/>
    </contour>
  </outline>
</glyph>
<glyph name="Q" format="2">
  <advance width="1338.0"/>
  <unicode hex="0051"/>
  <anchor x="669.0" y="0.0" name="bottom"/>
  <anchor x="669.0" y="1346.0" name="top"/>
  <outline>
    <contour>
      <point x="1016.0" y="-328.0" type="curve" smooth="yes"/>
      <point x="1090.0" y="-328.0"/>
      <point x="1165.0" y="-313.0"/>
      <point x="1203.0" y="-301.0" type="curve"/>
      <point x="1175.0" y="-189.0" type="line"/>
      <point x="1139.0" y="-199.0"/>
      <point x="1090.0" y="-209.0"/>
      <point x="1030.0" y="-209.0" type="curve" smooth="yes"/>
      <point x="885.0" y="-209.0"/>
      <point x="787.0" y="-174.0"/>
      <point x="747.0" y="-19.0" type="curve"/>
      <point x="1038.0" y="22.0"/>
      <point x="1235.0" y="278.0"/>
      <point x="1235.0" y="679.0" type="curve" smooth="yes"/>
      <point x="1235.0" y="1112.0"/>
      <point x="1006.0" y="1370.0"/>
      <point x="666.0" y="1370.0" type="curve" smooth="yes"/>
      <point x="327.0" y="1370.0"/>
      <point x="100.0" y="1114.0"/>
      <point x="100.0" y="679.0" type="curve" smooth="yes"/>
      <point x="100.0" y="274.0"/>
      <point x="302.0" y="16.0"/>
      <point x="595.0" y="-20.0" type="curve"/>
      <point x="653.0" y="-229.0"/>
      <point x="786.0" y="-328.0"/>
    </contour>
    <contour>
      <point x="666.0" y="99.0" type="curve" smooth="yes"/>
      <point x="407.0" y="99.0"/>
      <point x="245.0" y="322.0"/>
      <point x="245.0" y="679.0" type="curve" smooth="yes"/>
      <point x="245.0" y="1034.0"/>
      <point x="407.0" y="1247.0"/>
      <point x="666.0" y="1247.0" type="curve" smooth="yes"/>
      <point x="925.0" y="1247.0"/>
      <point x="1088.0" y="1034.0"/>
      <point x="1088.0" y="679.0" type="curve" smooth="yes"/>
      <point x="1088.0" y="322.0"/>
      <point x="925.0" y="99.0"/>
    </contour>
  </outline>
</glyph>
<glyph name="S" format="2">
  <advance width="1071.0"/>
  <unicode hex="0053"/>
  <anchor x="536.0" y="0.0" name="bottom"/>
  <anchor x="536.0" y="1346.0" name="top"/>
  <outline>
    <contour>
      <point x="548.0" y="-25.0" type="curve" smooth="yes"/>
      <point x="822.0" y="-25.0"/>
      <point x="996.0" y="137.0"/>
      <point x="996.0" y="348.0" type="curve" smooth="yes"/>
      <point x="996.0" y="550.0"/>
      <point x="865.0" y="641.0"/>
      <point x="711.0" y="708.0" type="curve" smooth="yes"/>
      <point x="514.0" y="794.0" type="line"/>
      <point x="412.0" y="839.0"/>
      <point x="289.0" y="898.0"/>
      <point x="289.0" y="1038.0" type="curve" smooth="yes"/>
      <point x="289.0" y="1170.0"/>
      <point x="400.0" y="1247.0"/>
      <point x="562.0" y="1247.0" type="curve" smooth="yes"/>
      <point x="690.0" y="1247.0"/>
      <point x="791.0" y="1201.0"/>
      <point x="871.0" y="1121.0" type="curve"/>
      <point x="947.0" y="1212.0" type="line"/>
      <point x="858.0" y="1306.0"/>
      <point x="723.0" y="1370.0"/>
      <point x="562.0" y="1370.0" type="curve" smooth="yes"/>
      <point x="327.0" y="1370.0"/>
      <point x="149.0" y="1231.0"/>
      <point x="149.0" y="1030.0" type="curve" smooth="yes"/>
      <point x="149.0" y="832.0"/>
      <point x="297.0" y="735.0"/>
      <point x="419.0" y="683.0" type="curve" smooth="yes"/>
      <point x="616.0" y="595.0" type="line"/>
      <point x="746.0" y="537.0"/>
      <point x="854.0" y="487.0"/>
      <point x="854.0" y="337.0" type="curve" smooth="yes"/>
      <point x="854.0" y="194.0"/>
      <point x="739.0" y="99.0"/>
      <point x="551.0" y="99.0" type="curve" smooth="yes"/>
      <point x="403.0" y="99.0"/>
      <point x="269.0" y="162.0"/>
      <point x="171.0" y="267.0" type="curve"/>
      <point x="87.0" y="170.0" type="line"/>
      <point x="200.0" y="50.0"/>
      <point x="355.0" y="-25.0"/>
    </contour>
  </outline>
</glyph>
<glyph name="U" format="2">
  <advance width="1300.0"/>
  <unicode hex="0055"/>
  <anchor x="650.0" y="0.0" name="bottom"/>
  <anchor x="1170.0" y="10.0" name="ogonek"/>
  <anchor x="650.0" y="1346.0" name="top"/>
  <anchor x="1280.0" y="1346.0" name="topright"/>
  <outline>
    <contour>
      <point x="649.0" y="-25.0" type="curve" smooth="yes"/>
      <point x="906.0" y="-25.0"/>
      <point x="1122.0" y="108.0"/>
      <point x="1122.0" y="534.0" type="curve" smooth="yes"/>
      <point x="1122.0" y="1346.0" type="line"/>
      <point x="989.0" y="1346.0" type="line"/>
      <point x="989.0" y="536.0" type="line"/>
      <point x="989.0" y="199.0"/>
      <point x="835.0" y="99.0"/>
      <point x="649.0" y="99.0" type="curve" smooth="yes"/>
      <point x="469.0" y="99.0"/>
      <point x="318.0" y="200.0"/>
      <point x="318.0" y="536.0" type="curve" smooth="yes"/>
      <point x="318.0" y="1346.0" type="line"/>
      <point x="178.0" y="1346.0" type="line"/>
      <point x="178.0" y="534.0" type="line"/>
      <point x="178.0" y="110.0"/>
      <point x="392.0" y="-25.0"/>
    </contour>
  </outline>
</glyph>
<glyph name="Y" format="2">
  <advance width="939.0"/>
  <unicode hex="0059"/>
  <anchor x="470.0" y="0.0" name="bottom"/>
  <anchor x="470.0" y="1346.0" name="top"/>
  <anchor x="20.0" y="1346.0" name="topleft"/>
  <outline>
    <contour>
      <point x="399.0" y="0.0" type="line"/>
      <point x="539.0" y="0.0" type="line"/>
      <point x="539.0" y="531.0" type="line"/>
      <point x="943.0" y="1346.0" type="line"/>
      <point x="800.0" y="1346.0" type="line"/>
      <point x="613.0" y="950.0" type="line"/>
      <point x="571.0" y="851.0"/>
      <point x="521.0" y="757.0"/>
      <point x="474.0" y="658.0" type="curve"/>
      <point x="465.0" y="658.0" type="line"/>
      <point x="417.0" y="757.0"/>
      <point x="374.0" y="851.0"/>
      <point x="330.0" y="950.0" type="curve" smooth="yes"/>
      <point x="144.0" y="1346.0" type="line"/>
      <point x="-6.0" y="1346.0" type="line"/>
      <point x="399.0" y="531.0" type="line"/>
    </contour>
  </outline>
</glyph>
<glyph name="asciicircum" format="2">
  <advance width="1003.0"/>
  <unicode hex="005E"/>
  <outline>
    <contour>
      <point x="128.0" y="587.0" type="line"/>
      <point x="251.0" y="587.0" type="line"/>
      <point x="394.0" y="970.0" type="line"/>
      <point x="497.0" y="1242.0" type="line"/>
      <point x="506.0" y="1242.0" type="line"/>
      <point x="608.0" y="970.0" type="line"/>
      <point x="752.0" y="587.0" type="line"/>
      <point x="875.0" y="587.0" type="line"/>
      <point x="565.0" y="1372.0" type="line"/>
      <point x="437.0" y="1372.0" type="line"/>
    </contour>
  </outline>
</glyph>
<glyph name="grave" format="2">
  <advance width="1104.0"/>
  <unicode hex="0060"/>
  <outline>
    <contour>
      <point x="569.0" y="1173.0" type="line"/>
      <point x="677.0" y="1173.0" type="line"/>
      <point x="491.0" y="1457.0" type="line"/>
      <point x="344.0" y="1457.0" type="line"/>
    </contour>
  </outline>
</glyph>
<glyph name="a" format="2">
  <advance width="1038.0"/>
  <unicode hex="0061"/>
  <anchor x="519.0" y="0.0" name="bottom"/>
  <anchor x="934.0" y="10.0" name="ogonek"/>
  <anchor x="519.0" y="990.0" name="top"/>
  <outline>
    <contour>
      <point x="421.0" y="-25.0" type="curve" smooth="yes"/>
      <point x="558.0" y="-25.0"/>
      <point x="654.0" y="43.0"/>
      <point x="752.0" y="122.0" type="curve"/>
      <point x="756.0" y="122.0" type="line"/>
      <point x="769.0" y="0.0" type="line"/>
      <point x="882.0" y="0.0" type="line"/>
      <point x="882.0" y="618.0" type="line"/>
      <point x="882.0" y="859.0"/>
      <point x="788.0" y="1015.0"/>
      <point x="549.0" y="1015.0" type="curve" smooth="yes"/>
      <point x="389.0" y="1015.0"/>
      <point x="247.0" y="952.0"/>
      <point x="164.0" y="898.0" type="curve"/>
      <point x="221.0" y="801.0" type="line"/>
      <point x="294.0" y="853.0"/>
      <point x="405.0" y="900.0"/>
      <point x="529.0" y="900.0" type="curve" smooth="yes"/>
      <point x="703.0" y="900.0"/>
      <point x="748.0" y="775.0"/>
      <point x="746.0" y="625.0" type="curve"/>
      <point x="314.0" y="593.0"/>
      <point x="125.0" y="471.0"/>
      <point x="125.0" y="254.0" type="curve" smooth="yes"/>
      <point x="125.0" y="73.0"/>
      <point x="252.0" y="-25.0"/>
    </contour>
    <contour>
      <point x="455.0" y="87.0" type="curve" smooth="yes"/>
      <point x="344.0" y="87.0"/>
      <point x="261.0" y="138.0"/>
      <point x="261.0" y="262.0" type="curve" smooth="yes"/>
      <point x="261.0" y="401.0"/>
      <point x="382.0" y="504.0"/>
      <point x="746.0" y="531.0" type="curve"/>
      <point x="746.0" y="231.0" type="line"/>
      <point x="640.0" y="138.0"/>
      <point x="558.0" y="87.0"/>
    </contour>
  </outline>
</glyph>
<glyph name="d" format="2">
  <advance width="1128.0"/>
  <unicode hex="0064"/>
  <anchor x="544.0" y="0.0" name="bottom"/>
  <anchor x="1097.0" y="990.0" name="car"/>
  <anchor x="534.0" y="495.0" name="center"/>
  <anchor x="450.0" y="990.0" name="top"/>
  <anchor x="1108.0" y="990.0" name="topright"/>
  <outline>
    <contour>
      <point x="510.0" y="-25.0" type="curve" smooth="yes"/>
      <point x="633.0" y="-25.0"/>
      <point x="740.0" y="43.0"/>
      <point x="819.0" y="121.0" type="curve"/>
      <point x="825.0" y="121.0" type="line"/>
      <point x="837.0" y="0.0" type="line"/>
      <point x="951.0" y="0.0" type="line"/>
      <point x="951.0" y="1464.0" type="line"/>
      <point x="814.0" y="1464.0" type="line"/>
      <point x="814.0" y="1072.0" type="line"/>
      <point x="821.0" y="898.0" type="line"/>
      <point x="728.0" y="971.0"/>
      <point x="651.0" y="1015.0"/>
      <point x="534.0" y="1015.0" type="curve" smooth="yes"/>
      <point x="298.0" y="1015.0"/>
      <point x="100.0" y="824.0"/>
      <point x="100.0" y="494.0" type="curve" smooth="yes"/>
      <point x="100.0" y="154.0"/>
      <point x="263.0" y="-25.0"/>
    </contour>
    <contour>
      <point x="537.0" y="92.0" type="curve" smooth="yes"/>
      <point x="343.0" y="92.0"/>
      <point x="241.0" y="243.0"/>
      <point x="241.0" y="495.0" type="curve" smooth="yes"/>
      <point x="241.0" y="737.0"/>
      <point x="373.0" y="899.0"/>
      <point x="554.0" y="899.0" type="curve" smooth="yes"/>
      <point x="641.0" y="899.0"/>
      <point x="722.0" y="868.0"/>
      <point x="814.0" y="785.0" type="curve"/>
      <point x="814.0" y="239.0" type="line"/>
      <point x="723.0" y="142.0"/>
      <point x="636.0" y="92.0"/>
    </contour>
  </outline>
</glyph>
<glyph name="e" format="2">
  <advance width="1005.0"/>
  <unicode hex="0065"/>
  <anchor x="523.0" y="0.0" name="bottom"/>
  <anchor x="825.0" y="10.0" name="ogonek"/>
  <anchor x="543.0" y="990.0" name="top"/>
  <outline>
    <contour>
      <point x="567.0" y="-25.0" type="curve" smooth="yes"/>
      <point x="706.0" y="-25.0"/>
      <point x="804.0" y="19.0"/>
      <point x="886.0" y="70.0" type="curve"/>
      <point x="836.0" y="163.0" type="line"/>
      <point x="762.0" y="114.0"/>
      <point x="682.0" y="87.0"/>
      <point x="583.0" y="87.0" type="curve" smooth="yes"/>
      <point x="379.0" y="87.0"/>
      <point x="244.0" y="235.0"/>
      <point x="235.0" y="468.0" type="curve"/>
      <point x="922.0" y="468.0" type="line"/>
      <point x="926.0" y="493.0"/>
      <point x="927.0" y="522.0"/>
      <point x="927.0" y="553.0" type="curve" smooth="yes"/>
      <point x="927.0" y="846.0"/>
      <point x="793.0" y="1016.0"/>
      <point x="537.0" y="1016.0" type="curve" smooth="yes"/>
      <point x="303.0" y="1016.0"/>
      <point x="98.0" y="823.0"/>
      <point x="98.0" y="494.0" type="curve" smooth="yes"/>
      <point x="98.0" y="163.0"/>
      <point x="307.0" y="-25.0"/>
    </contour>
    <contour>
      <point x="234.0" y="562.0" type="line"/>
      <point x="253.0" y="779.0"/>
      <point x="384.0" y="905.0"/>
      <point x="541.0" y="905.0" type="curve" smooth="yes"/>
      <point x="710.0" y="905.0"/>
      <point x="805.0" y="791.0"/>
      <point x="805.0" y="562.0" type="curve"/>
    </contour>
  </outline>
</glyph>
<glyph name="g" format="2">
  <advance width="1018.0"/>
  <unicode hex="0067"/>
  <anchor x="509.0" y="-987.0" name="bottom"/>
  <anchor x="509.0" y="990.0" name="top"/>
  <outline>
    <contour>
      <point x="505.0" y="-465.0" type="curve" smooth="yes"/>
      <point x="813.0" y="-465.0"/>
      <point x="994.0" y="-304.0"/>
      <point x="994.0" y="-126.0" type="curve" smooth="yes"/>
      <point x="994.0" y="36.0"/>
      <point x="902.0" y="115.0"/>
      <point x="669.0" y="115.0" type="curve" smooth="yes"/>
      <point x="456.0" y="115.0" type="line"/>
      <point x="316.0" y="115.0"/>
      <point x="275.0" y="165.0"/>
      <point x="275.0" y="231.0" type="curve" smooth="yes"/>
      <point x="275.0" y="291.0"/>
      <point x="307.0" y="319.0"/>
      <point x="345.0" y="352.0" type="curve"/>
      <point x="390.0" y="328.0"/>
      <point x="446.0" y="314.0"/>
      <point x="501.0" y="314.0" type="curve" smooth="yes"/>
      <point x="705.0" y="314.0"/>
      <point x="857.0" y="445.0"/>
      <point x="857.0" y="660.0" type="curve" smooth="yes"/>
      <point x="857.0" y="771.0"/>
      <point x="817.0" y="840.0"/>
      <point x="763.0" y="883.0" type="curve"/>
      <point x="977.0" y="883.0" type="line"/>
      <point x="977.0" y="990.0" type="line"/>
      <point x="637.0" y="990.0" type="line"/>
      <point x="602.0" y="1004.0"/>
      <point x="561.0" y="1015.0"/>
      <point x="501.0" y="1015.0" type="curve" smooth="yes"/>
      <point x="296.0" y="1015.0"/>
      <point x="137.0" y="894.0"/>
      <point x="137.0" y="664.0" type="curve" smooth="yes"/>
      <point x="137.0" y="540.0"/>
      <point x="200.0" y="448.0"/>
      <point x="264.0" y="395.0" type="curve"/>
      <point x="264.0" y="387.0" type="line"/>
      <point x="216.0" y="353.0"/>
      <point x="157.0" y="297.0"/>
      <point x="157.0" y="212.0" type="curve" smooth="yes"/>
      <point x="157.0" y="135.0"/>
      <point x="194.0" y="82.0"/>
      <point x="244.0" y="52.0" type="curve"/>
      <point x="244.0" y="44.0" type="line"/>
      <point x="153.0" y="-17.0"/>
      <point x="98.0" y="-107.0"/>
      <point x="98.0" y="-195.0" type="curve" smooth="yes"/>
      <point x="98.0" y="-364.0"/>
      <point x="235.0" y="-465.0"/>
    </contour>
    <contour>
      <point x="525.0" y="-364.0" type="curve" smooth="yes"/>
      <point x="321.0" y="-364.0"/>
      <point x="222.0" y="-291.0"/>
      <point x="222.0" y="-178.0" type="curve" smooth="yes"/>
      <point x="222.0" y="-114.0"/>
      <point x="254.0" y="-39.0"/>
      <point x="334.0" y="16.0" type="curve"/>
      <point x="380.0" y="4.0"/>
      <point x="429.0" y="0.0"/>
      <point x="460.0" y="0.0" type="curve" smooth="yes"/>
      <point x="648.0" y="0.0" type="line"/>
      <point x="791.0" y="0.0"/>
      <point x="860.0" y="-45.0"/>
      <point x="860.0" y="-144.0" type="curve" smooth="yes"/>
      <point x="860.0" y="-256.0"/>
      <point x="733.0" y="-364.0"/>
    </contour>
    <contour>
      <point x="501.0" y="410.0" type="curve" smooth="yes"/>
      <point x="376.0" y="410.0"/>
      <point x="271.0" y="504.0"/>
      <point x="271.0" y="664.0" type="curve" smooth="yes"/>
      <point x="271.0" y="831.0"/>
      <point x="368.0" y="912.0"/>
      <point x="501.0" y="912.0" type="curve" smooth="yes"/>
      <point x="633.0" y="912.0"/>
      <point x="729.0" y="834.0"/>
      <point x="729.0" y="664.0" type="curve" smooth="yes"/>
      <point x="729.0" y="502.0"/>
      <point x="623.0" y="410.0"/>
    </contour>
  </outline>
</glyph>
<glyph name="h" format="2">
  <advance width="1100.0"/>
  <unicode hex="0068"/>
  <anchor x="550.0" y="0.0" name="bottom"/>
  <anchor x="550.0" y="888.0" name="center"/>
  <anchor x="246.0" y="1376.0" name="top"/>
  <outline>
    <contour>
      <point x="176.0" y="0.0" type="line"/>
      <point x="313.0" y="0.0" type="line"/>
      <point x="313.0" y="729.0" type="line"/>
      <point x="421.0" y="839.0"/>
      <point x="497.0" y="895.0"/>
      <point x="605.0" y="895.0" type="curve" smooth="yes"/>
      <point x="751.0" y="895.0"/>
      <point x="808.0" y="810.0"/>
      <point x="808.0" y="614.0" type="curve" smooth="yes"/>
      <point x="808.0" y="0.0" type="line"/>
      <point x="944.0" y="0.0" type="line"/>
      <point x="944.0" y="633.0" type="line"/>
      <point x="944.0" y="887.0"/>
      <point x="854.0" y="1015.0"/>
      <point x="644.0" y="1015.0" type="curve" smooth="yes"/>
      <point x="507.0" y="1015.0"/>
      <point x="406.0" y="940.0"/>
      <point x="309.0" y="845.0" type="curve"/>
      <point x="313.0" y="1055.0" type="line"/>
      <point x="313.0" y="1464.0" type="line"/>
      <point x="176.0" y="1464.0" type="line"/>
    </contour>
  </outline>
</glyph>
<glyph name="k" format="2">
  <advance width="988.0"/>
  <unicode hex="006B"/>
  <anchor x="494.0" y="0.0" name="bottom"/>
  <anchor x="494.0" y="1775.0" name="top"/>
  <outline>
    <contour>
      <point x="176.0" y="0.0" type="line"/>
      <point x="311.0" y="0.0" type="line"/>
      <point x="311.0" y="264.0" type="line"/>
      <point x="512.0" y="498.0" type="line"/>
      <point x="817.0" y="0.0" type="line"/>
      <point x="967.0" y="0.0" type="line"/>
      <point x="590.0" y="595.0" type="line"/>
      <point x="918.0" y="990.0" type="line"/>
      <point x="766.0" y="990.0" type="line"/>
      <point x="317.0" y="437.0" type="line"/>
      <point x="311.0" y="437.0" type="line"/>
      <point x="311.0" y="1464.0" type="line"/>
      <point x="176.0" y="1464.0" type="line"/>
    </contour>
  </outline>
</glyph>
<glyph name="m" format="2">
  <advance width="1684.0"/>
  <unicode hex="006D"/>
  <anchor x="842.0" y="0.0" name="bottom"/>
  <anchor x="842.0" y="990.0" name="top"/>
  <outline>
    <contour>
      <point x="176.0" y="0.0" type="line"/>
      <point x="313.0" y="0.0" type="line"/>
      <point x="313.0" y="729.0" type="line"/>
      <point x="411.0" y="840.0"/>
      <point x="501.0" y="895.0"/>
      <point x="581.0" y="895.0" type="curve" smooth="yes"/>
      <point x="724.0" y="895.0"/>
      <point x="781.0" y="811.0"/>
      <point x="781.0" y="615.0" type="curve" smooth="yes"/>
      <point x="781.0" y="0.0" type="line"/>
      <point x="917.0" y="0.0" type="line"/>
      <point x="917.0" y="732.0" type="line"/>
      <point x="1016.0" y="843.0"/>
      <point x="1102.0" y="895.0"/>
      <point x="1186.0" y="895.0" type="curve" smooth="yes"/>
      <point x="1327.0" y="895.0"/>
      <point x="1384.0" y="811.0"/>
      <point x="1384.0" y="615.0" type="curve" smooth="yes"/>
      <point x="1384.0" y="0.0" type="line"/>
      <point x="1521.0" y="0.0" type="line"/>
      <point x="1521.0" y="634.0" type="line"/>
      <point x="1521.0" y="888.0"/>
      <point x="1429.0" y="1015.0"/>
      <point x="1221.0" y="1015.0" type="curve" smooth="yes"/>
      <point x="1104.0" y="1015.0"/>
      <point x="999.0" y="940.0"/>
      <point x="891.0" y="823.0" type="curve"/>
      <point x="852.0" y="943.0"/>
      <point x="777.0" y="1015.0"/>
      <point x="618.0" y="1015.0" type="curve" smooth="yes"/>
      <point x="503.0" y="1015.0"/>
      <point x="396.0" y="940.0"/>
      <point x="309.0" y="843.0" type="curve"/>
      <point x="302.0" y="843.0" type="line"/>
      <point x="290.0" y="990.0" type="line"/>
      <point x="176.0" y="990.0" type="line"/>
    </contour>
  </outline>
</glyph>
<glyph name="p" format="2">
  <advance width="1128.0"/>
  <unicode hex="0070"/>
  <anchor x="564.0" y="0.0" name="bottom"/>
  <anchor x="564.0" y="990.0" name="top"/>
  <outline>
    <contour>
      <point x="176.0" y="-430.0" type="line"/>
      <point x="313.0" y="-430.0" type="line"/>
      <point x="313.0" y="-85.0" type="line"/>
      <point x="310.0" y="92.0" type="line"/>
      <point x="406.0" y="19.0"/>
      <point x="499.0" y="-25.0"/>
      <point x="593.0" y="-25.0" type="curve" smooth="yes"/>
      <point x="826.0" y="-25.0"/>
      <point x="1026.0" y="167.0"/>
      <point x="1026.0" y="508.0" type="curve" smooth="yes"/>
      <point x="1026.0" y="820.0"/>
      <point x="895.0" y="1015.0"/>
      <point x="632.0" y="1015.0" type="curve" smooth="yes"/>
      <point x="512.0" y="1015.0"/>
      <point x="401.0" y="948.0"/>
      <point x="309.0" y="872.0" type="curve"/>
      <point x="302.0" y="872.0" type="line"/>
      <point x="290.0" y="990.0" type="line"/>
      <point x="176.0" y="990.0" type="line"/>
    </contour>
    <contour>
      <point x="574.0" y="92.0" type="curve" smooth="yes"/>
      <point x="503.0" y="92.0"/>
      <point x="412.0" y="122.0"/>
      <point x="313.0" y="205.0" type="curve"/>
      <point x="313.0" y="752.0" type="line"/>
      <point x="419.0" y="847.0"/>
      <point x="509.0" y="899.0"/>
      <point x="600.0" y="899.0" type="curve" smooth="yes"/>
      <point x="807.0" y="899.0"/>
      <point x="883.0" y="741.0"/>
      <point x="883.0" y="508.0" type="curve" smooth="yes"/>
      <point x="883.0" y="251.0"/>
      <point x="754.0" y="92.0"/>
    </contour>
  </outline>
</glyph>
<glyph name="r" format="2">
  <advance width="686.0"/>
  <unicode hex="0072"/>
  <anchor x="253.0" y="0.0" name="bottom"/>
  <anchor x="403.0" y="990.0" name="top"/>
  <outline>
    <contour>
      <point x="176.0" y="0.0" type="line"/>
      <point x="313.0" y="0.0" type="line"/>
      <point x="313.0" y="652.0" type="line"/>
      <point x="383.0" y="826.0"/>
      <point x="486.0" y="890.0"/>
      <point x="571.0" y="890.0" type="curve" smooth="yes"/>
      <point x="611.0" y="890.0"/>
      <point x="632.0" y="885.0"/>
      <point x="665.0" y="874.0" type="curve"/>
      <point x="692.0" y="994.0" type="line"/>
      <point x="660.0" y="1010.0"/>
      <point x="630.0" y="1015.0"/>
      <point x="589.0" y="1015.0" type="curve" smooth="yes"/>
      <point x="475.0" y="1015.0"/>
      <point x="375.0" y="933.0"/>
      <point x="309.0" y="809.0" type="curve"/>
      <point x="302.0" y="809.0" type="line"/>
      <point x="290.0" y="990.0" type="line"/>
      <point x="176.0" y="990.0" type="line"/>
    </contour>
  </outline>
</glyph>
<glyph name="s" format="2">
  <advance width="846.0"/>
  <unicode hex="0073"/>
  <anchor x="423.0" y="0.0" name="bottom"/>
  <anchor x="423.0" y="990.0" name="top"/>
  <outline>
    <contour>
      <point x="427.0" y="-25.0" type="curve" smooth="yes"/>
      <point x="654.0" y="-25.0"/>
      <point x="779.0" y="106.0"/>
      <point x="779.0" y="261.0" type="curve" smooth="yes"/>
      <point x="779.0" y="452.0"/>
      <point x="615.0" y="510.0"/>
      <point x="467.0" y="565.0" type="curve" smooth="yes"/>
      <point x="353.0" y="608.0"/>
      <point x="242.0" y="654.0"/>
      <point x="242.0" y="753.0" type="curve" smooth="yes"/>
      <point x="242.0" y="835.0"/>
      <point x="305.0" y="906.0"/>
      <point x="441.0" y="906.0" type="curve" smooth="yes"/>
      <point x="534.0" y="906.0"/>
      <point x="604.0" y="870.0"/>
      <point x="671.0" y="820.0" type="curve"/>
      <point x="739.0" y="909.0" type="line"/>
      <point x="664.0" y="970.0"/>
      <point x="557.0" y="1015.0"/>
      <point x="441.0" y="1015.0" type="curve" smooth="yes"/>
      <point x="230.0" y="1015.0"/>
      <point x="109.0" y="895.0"/>
      <point x="109.0" y="742.0" type="curve" smooth="yes"/>
      <point x="109.0" y="574.0"/>
      <point x="268.0" y="507.0"/>
      <point x="412.0" y="455.0" type="curve" smooth="yes"/>
      <point x="523.0" y="414.0"/>
      <point x="645.0" y="365.0"/>
      <point x="645.0" y="254.0" type="curve" smooth="yes"/>
      <point x="645.0" y="160.0"/>
      <point x="574.0" y="84.0"/>
      <point x="433.0" y="84.0" type="curve" smooth="yes"/>
      <point x="305.0" y="84.0"/>
      <point x="220.0" y="137.0"/>
      <point x="135.0" y="206.0" type="curve"/>
      <point x="64.0" y="112.0" type="line"/>
      <point x="156.0" y="36.0"/>
      <point x="285.0" y="-25.0"/>
    </contour>
  </outline>
</glyph>
<glyph name="t" format="2">
  <advance width="670.0"/>
  <unicode hex="0074"/>
  <anchor x="395.0" y="0.0" name="bottom"/>
  <anchor x="522.0" y="990.0" name="car"/>
  <anchor x="335.0" y="495.0" name="center"/>
  <anchor x="284.0" y="1193.0" name="top"/>
  <anchor x="464.0" y="990.0" name="topright"/>
  <outline>
    <contour>
      <point x="471.0" y="-25.0" type="curve" smooth="yes"/>
      <point x="525.0" y="-25.0"/>
      <point x="589.0" y="-7.0"/>
      <point x="645.0" y="12.0" type="curve"/>
      <point x="616.0" y="117.0" type="line"/>
      <point x="582.0" y="104.0"/>
      <point x="535.0" y="89.0"/>
      <point x="499.0" y="89.0" type="curve" smooth="yes"/>
      <point x="376.0" y="89.0"/>
      <point x="341.0" y="164.0"/>
      <point x="341.0" y="288.0" type="curve" smooth="yes"/>
      <point x="341.0" y="877.0" type="line"/>
      <point x="616.0" y="877.0" type="line"/>
      <point x="616.0" y="990.0" type="line"/>
      <point x="341.0" y="990.0" type="line"/>
      <point x="341.0" y="1272.0" type="line"/>
      <point x="225.0" y="1272.0" type="line"/>
      <point x="208.0" y="990.0" type="line"/>
      <point x="52.0" y="981.0" type="line"/>
      <point x="52.0" y="877.0" type="line"/>
      <point x="203.0" y="877.0" type="line"/>
      <point x="203.0" y="293.0" type="line"/>
      <point x="203.0" y="105.0"/>
      <point x="267.0" y="-25.0"/>
    </contour>
  </outline>
</glyph>
<glyph name="v" format="2">
  <advance width="929.0"/>
  <unicode hex="0076"/>
  <anchor x="464.0" y="-300.0" name="btm"/>
  <anchor x="464.0" y="1050.0" name="top"/>
  <outline>
    <contour>
      <point x="387.0" y="0.0" type="line"/>
      <point x="547.0" y="0.0" type="line"/>
      <point x="904.0" y="990.0" type="line"/>
      <point x="768.0" y="990.0" type="line"/>
      <point x="567.0" y="404.0" type="line"/>
      <point x="536.0" y="307.0"/>
      <point x="502.0" y="208.0"/>
      <point x="472.0" y="115.0" type="curve"/>
      <point x="464.0" y="115.0" type="line"/>
      <point x="434.0" y="208.0"/>
      <point x="399.0" y="307.0"/>
      <point x="369.0" y="404.0" type="curve"/>
      <point x="168.0" y="990.0" type="line"/>
      <point x="25.0" y="990.0" type="line"/>
    </contour>
  </outline>
</glyph>
<glyph name="sterling" format="2">
  <advance width="1003.0"/>
  <unicode hex="00A3"/>
  <outline>
    <contour>
      <point x="113.0" y="0.0" type="line"/>
      <point x="925.0" y="0.0" type="line"/>
      <point x="925.0" y="119.0" type="line"/>
      <point x="319.0" y="119.0" type="line"/>
      <point x="319.0" y="128.0" type="line"/>
      <point x="407.0" y="214.0"/>
      <point x="455.0" y="308.0"/>
      <point x="455.0" y="462.0" type="curve" smooth="yes"/>
      <point x="455.0" y="508.0"/>
      <point x="450.0" y="549.0"/>
      <point x="442.0" y="591.0" type="curve"/>
      <point x="733.0" y="591.0" type="line"/>
      <point x="733.0" y="688.0" type="line"/>
      <point x="419.0" y="688.0" type="line"/>
      <point x="393.0" y="782.0"/>
      <point x="364.0" y="869.0"/>
      <point x="364.0" y="964.0" type="curve" smooth="yes"/>
      <point x="364.0" y="1110.0"/>
      <point x="447.0" y="1216.0"/>
      <point x="603.0" y="1216.0" type="curve" smooth="yes"/>
      <point x="702.0" y="1216.0"/>
      <point x="768.0" y="1173.0"/>
      <point x="821.0" y="1108.0" type="curve"/>
      <point x="904.0" y="1188.0" type="line"/>
      <point x="836.0" y="1272.0"/>
      <point x="740.0" y="1332.0"/>
      <point x="596.0" y="1332.0" type="curve" smooth="yes"/>
      <point x="373.0" y="1332.0"/>
      <point x="228.0" y="1192.0"/>
      <point x="228.0" y="967.0" type="curve" smooth="yes"/>
      <point x="228.0" y="873.0"/>
      <point x="260.0" y="781.0"/>
      <point x="288.0" y="688.0" type="curve"/>
      <point x="246.0" y="688.0" type="line"/>
      <point x="110.0" y="681.0" type="line"/>
      <point x="110.0" y="591.0" type="line"/>
      <point x="314.0" y="591.0" type="line"/>
      <point x="324.0" y="549.0"/>
      <point x="330.0" y="508.0"/>
      <point x="330.0" y="464.0" type="curve" smooth="yes"/>
      <point x="330.0" y="308.0"/>
      <point x="257.0" y="163.0"/>
      <point x="113.0" y="83.0" type="curve"/>
    </contour>
  </outline>
</glyph>
<glyph name="yen" format="2">
  <advance width="1003.0"/>
  <unicode hex="00A5"/>
  <outline>
    <contour>
      <point x="431.0" y="0.0" type="line"/>
      <point x="569.0" y="0.0" type="line"/>
      <point x="569.0" y="330.0" type="line"/>
      <point x="907.0" y="330.0" type="line"/>
      <point x="907.0" y="416.0" type="line"/>
      <point x="569.0" y="416.0" type="line"/>
      <point x="569.0" y="554.0" type="line"/>
      <point x="907.0" y="554.0" type="line"/>
      <point x="907.0" y="639.0" type="line"/>
      <point x="605.0" y="639.0" type="line"/>
      <point x="950.0" y="1308.0" type="line"/>
      <point x="810.0" y="1308.0" type="line"/>
      <point x="637.0" y="938.0" type="line"/>
      <point x="593.0" y="848.0"/>
      <point x="554.0" y="758.0"/>
      <point x="507.0" y="661.0" type="curve"/>
      <point x="498.0" y="661.0" type="line"/>
      <point x="453.0" y="758.0"/>
      <point x="412.0" y="848.0"/>
      <point x="370.0" y="938.0" type="curve" smooth="yes"/>
      <point x="197.0" y="1308.0" type="line"/>
      <point x="53.0" y="1308.0" type="line"/>
      <point x="395.0" y="639.0" type="line"/>
      <point x="96.0" y="639.0" type="line"/>
      <point x="96.0" y="554.0" type="line"/>
      <point x="431.0" y="554.0" type="line"/>
      <point x="431.0" y="416.0" type="line"/>
      <point x="96.0" y="416.0" type="line"/>
      <point x="96.0" y="330.0" type="line"/>
      <point x="431.0" y="330.0" type="line"/>
    </contour>
  </outline>
</glyph>
<glyph name="dieresis" format="2">
  <advance width="1104.0"/>
  <unicode hex="00A8"/>
  <outline>
    <contour>
      <point x="382.0" y="1213.0" type="curve" smooth="yes"/>
      <point x="433.0" y="1213.0"/>
      <point x="472.0" y="1251.0"/>
      <point x="472.0" y="1303.0" type="curve" smooth="yes"/>
      <point x="472.0" y="1353.0"/>
      <point x="433.0" y="1392.0"/>
      <point x="382.0" y="1392.0" type="curve" smooth="yes"/>
      <point x="331.0" y="1392.0"/>
      <point x="292.0" y="1353.0"/>
      <point x="292.0" y="1303.0" type="curve" smooth="yes"/>
      <point x="292.0" y="1251.0"/>
      <point x="331.0" y="1213.0"/>
    </contour>
    <contour>
      <point x="722.0" y="1213.0" type="curve" smooth="yes"/>
      <point x="775.0" y="1213.0"/>
      <point x="812.0" y="1251.0"/>
      <point x="812.0" y="1303.0" type="curve" smooth="yes"/>
      <point x="812.0" y="1353.0"/>
      <point x="775.0" y="1392.0"/>
      <point x="722.0" y="1392.0" type="curve" smooth="yes"/>
      <point x="671.0" y="1392.0"/>
      <point x="634.0" y="1353.0"/>
      <point x="634.0" y="1303.0" type="curve" smooth="yes"/>
      <point x="634.0" y="1251.0"/>
      <point x="671.0" y="1213.0"/>
    </contour>
  </outline>
</glyph>
<glyph name="softhyphen" format="2">
  <advance width="627.0"/>
  <unicode hex="00AD"/>
  <outline>
    <contour>
      <point x="83.0" y="458.0" type="line"/>
      <point x="546.0" y="458.0" type="line"/>
      <point x="546.0" y="567.0" type="line"/>
      <point x="83.0" y="567.0" type="line"/>
    </contour>
  </outline>
</glyph>
<glyph name="degree" format="2">
  <advance width="661.0"/>
  <unicode hex="00B0"/>
  <outline>
    <contour>
      <point x="331.0" y="894.0" type="curve" smooth="yes"/>
      <point x="462.0" y="894.0"/>
      <point x="578.0" y="991.0"/>
      <point x="578.0" y="1146.0" type="curve" smooth="yes"/>
      <point x="578.0" y="1305.0"/>
      <point x="462.0" y="1402.0"/>
      <point x="331.0" y="1402.0" type="curve" smooth="yes"/>
      <point x="201.0" y="1402.0"/>
      <point x="85.0" y="1305.0"/>
      <point x="85.0" y="1146.0" type="curve" smooth="yes"/>
      <point x="85.0" y="991.0"/>
      <point x="201.0" y="894.0"/>
    </contour>
    <contour>
      <point x="331.0" y="976.0" type="curve" smooth="yes"/>
      <point x="239.0" y="976.0"/>
      <point x="174.0" y="1048.0"/>
      <point x="174.0" y="1146.0" type="curve" smooth="yes"/>
      <point x="174.0" y="1248.0"/>
      <point x="239.0" y="1320.0"/>
      <point x="331.0" y="1320.0" type="curve" smooth="yes"/>
      <point x="424.0" y="1320.0"/>
      <point x="489.0" y="1248.0"/>
      <point x="489.0" y="1146.0" type="curve" smooth="yes"/>
      <point x="489.0" y="1048.0"/>
      <point x="424.0" y="976.0"/>
    </contour>
  </outline>
</glyph>
<glyph name="two.sups" format="2">
  <advance width="747.0"/>
  <unicode hex="00B2"/>
  <outline>
    <contour>
      <point x="110.0" y="901.0" type="line"/>
      <point x="648.0" y="901.0" type="line"/>
      <point x="648.0" y="996.0" type="line"/>
      <point x="287.0" y="996.0" type="line"/>
      <point x="471.0" y="1182.0"/>
      <point x="604.0" y="1310.0"/>
      <point x="604.0" y="1469.0" type="curve" smooth="yes"/>
      <point x="604.0" y="1636.0"/>
      <point x="500.0" y="1724.0"/>
      <point x="346.0" y="1724.0" type="curve" smooth="yes"/>
      <point x="241.0" y="1724.0"/>
      <point x="144.0" y="1659.0"/>
      <point x="88.0" y="1571.0" type="curve"/>
      <point x="155.0" y="1510.0" type="line"/>
      <point x="200.0" y="1577.0"/>
      <point x="262.0" y="1631.0"/>
      <point x="333.0" y="1631.0" type="curve" smooth="yes"/>
      <point x="432.0" y="1631.0"/>
      <point x="495.0" y="1563.0"/>
      <point x="495.0" y="1453.0" type="curve" smooth="yes"/>
      <point x="495.0" y="1327.0"/>
      <point x="368.0" y="1202.0"/>
      <point x="110.0" y="967.0" type="curve"/>
    </contour>
  </outline>
</glyph>
<glyph name="three.sups" format="2">
  <advance width="747.0"/>
  <unicode hex="00B3"/>
  <outline>
    <contour>
      <point x="366.0" y="877.0" type="curve" smooth="yes"/>
      <point x="519.0" y="877.0"/>
      <point x="644.0" y="967.0"/>
      <point x="644.0" y="1114.0" type="curve" smooth="yes"/>
      <point x="644.0" y="1224.0"/>
      <point x="559.0" y="1291.0"/>
      <point x="466.0" y="1312.0" type="curve"/>
      <point x="550.0" y="1350.0"/>
      <point x="612.0" y="1414.0"/>
      <point x="612.0" y="1511.0" type="curve" smooth="yes"/>
      <point x="612.0" y="1646.0"/>
      <point x="498.0" y="1724.0"/>
      <point x="362.0" y="1724.0" type="curve" smooth="yes"/>
      <point x="255.0" y="1724.0"/>
      <point x="173.0" y="1671.0"/>
      <point x="109.0" y="1594.0" type="curve"/>
      <point x="177.0" y="1535.0" type="line"/>
      <point x="224.0" y="1593.0"/>
      <point x="286.0" y="1635.0"/>
      <point x="347.0" y="1635.0" type="curve" smooth="yes"/>
      <point x="442.0" y="1635.0"/>
      <point x="503.0" y="1580.0"/>
      <point x="503.0" y="1499.0" type="curve" smooth="yes"/>
      <point x="503.0" y="1413.0"/>
      <point x="419.0" y="1344.0"/>
      <point x="272.0" y="1344.0" type="curve"/>
      <point x="272.0" y="1271.0" type="line"/>
      <point x="435.0" y="1271.0"/>
      <point x="534.0" y="1218.0"/>
      <point x="534.0" y="1120.0" type="curve" smooth="yes"/>
      <point x="534.0" y="1021.0"/>
      <point x="456.0" y="966.0"/>
      <point x="363.0" y="966.0" type="curve" smooth="yes"/>
      <point x="276.0" y="966.0"/>
      <point x="201.0" y="1014.0"/>
      <point x="152.0" y="1090.0" type="curve"/>
      <point x="76.0" y="1031.0" type="line"/>
      <point x="135.0" y="944.0"/>
      <point x="239.0" y="877.0"/>
    </contour>
  </outline>
</glyph>
<glyph name="mu" format="2">
  <advance width="1115.0"/>
  <unicode hex="00B5"/>
  <outline>
    <contour>
      <point x="176.0" y="-410.0" type="line"/>
      <point x="313.0" y="-410.0" type="line"/>
      <point x="313.0" y="-105.0" type="line"/>
      <point x="305.0" y="79.0" type="line"/>
      <point x="355.0" y="0.0"/>
      <point x="419.0" y="-19.0"/>
      <point x="507.0" y="-19.0" type="curve" smooth="yes"/>
      <point x="628.0" y="-19.0"/>
      <point x="725.0" y="50.0"/>
      <point x="808.0" y="159.0" type="curve"/>
      <point x="813.0" y="159.0" type="line"/>
      <point x="825.0" y="0.0" type="line"/>
      <point x="939.0" y="0.0" type="line"/>
      <point x="939.0" y="990.0" type="line"/>
      <point x="803.0" y="990.0" type="line"/>
      <point x="803.0" y="276.0" type="line"/>
      <point x="700.0" y="150.0"/>
      <point x="625.0" y="95.0"/>
      <point x="516.0" y="95.0" type="curve" smooth="yes"/>
      <point x="374.0" y="95.0"/>
      <point x="313.0" y="183.0"/>
      <point x="313.0" y="378.0" type="curve" smooth="yes"/>
      <point x="313.0" y="990.0" type="line"/>
      <point x="176.0" y="990.0" type="line"/>
    </contour>
  </outline>
</glyph>
<glyph name="cedilla" format="2">
  <advance width="1104.0"/>
  <unicode hex="00B8"/>
  <outline>
    <contour>
      <point x="419.0" y="-432.0" type="line"/>
      <point x="563.0" y="-417.0"/>
      <point x="698.0" y="-363.0"/>
      <point x="698.0" y="-250.0" type="curve" smooth="yes"/>
      <point x="698.0" y="-166.0"/>
      <point x="643.0" y="-128.0"/>
      <point x="576.0" y="-106.0" type="curve"/>
      <point x="632.0" y="5.0" type="line"/>
      <point x="537.0" y="5.0" type="line"/>
      <point x="455.0" y="-153.0" type="line"/>
      <point x="537.0" y="-173.0"/>
      <point x="589.0" y="-200.0"/>
      <point x="589.0" y="-256.0" type="curve" smooth="yes"/>
      <point x="589.0" y="-312.0"/>
      <point x="512.0" y="-342.0"/>
      <point x="403.0" y="-357.0" type="curve"/>
    </contour>
  </outline>
</glyph>
<glyph name="ordmasculine" format="2">
  <advance width="743.0"/>
  <unicode hex="00BA"/>
  <outline>
    <contour>
      <point x="371.0" y="516.0" type="curve" smooth="yes"/>
      <point x="537.0" y="516.0"/>
      <point x="677.0" y="644.0"/>
      <point x="677.0" y="860.0" type="curve" smooth="yes"/>
      <point x="677.0" y="1079.0"/>
      <point x="537.0" y="1205.0"/>
      <point x="371.0" y="1205.0" type="curve" smooth="yes"/>
      <point x="202.0" y="1205.0"/>
      <point x="64.0" y="1079.0"/>
      <point x="64.0" y="860.0" type="curve" smooth="yes"/>
      <point x="64.0" y="644.0"/>
      <point x="202.0" y="516.0"/>
    </contour>
    <contour>
      <point x="371.0" y="606.0" type="curve" smooth="yes"/>
      <point x="250.0" y="606.0"/>
      <point x="172.0" y="710.0"/>
      <point x="172.0" y="860.0" type="curve" smooth="yes"/>
      <point x="172.0" y="1014.0"/>
      <point x="250.0" y="1116.0"/>
      <point x="371.0" y="1116.0" type="curve" smooth="yes"/>
      <point x="490.0" y="1116.0"/>
      <point x="567.0" y="1014.0"/>
      <point x="567.0" y="860.0" type="curve" smooth="yes"/>
      <point x="567.0" y="710.0"/>
      <point x="490.0" y="606.0"/>
    </contour>
  </outline>
</glyph>
<glyph name="Oslash" format="2">
  <advance width="1338.0"/>
  <unicode hex="00D8"/>
  <anchor x="669.0" y="0.0" name="bottom"/>
  <anchor x="669.0" y="1346.0" name="top"/>
  <outline>
    <contour>
      <point x="182.0" y="-55.0" type="line"/>
      <point x="310.0" y="113.0" type="line"/>
      <point x="406.0" y="24.0"/>
      <point x="529.0" y="-25.0"/>
      <point x="670.0" y="-25.0" type="curve" smooth="yes"/>
      <point x="1001.0" y="-25.0"/>
      <point x="1236.0" y="248.0"/>
      <point x="1236.0" y="679.0" type="curve" smooth="yes"/>
      <point x="1236.0" y="875.0"/>
      <point x="1186.0" y="1037.0"/>
      <point x="1100.0" y="1155.0" type="curve"/>
      <point x="1242.0" y="1341.0" type="line"/>
      <point x="1161.0" y="1402.0" type="line"/>
      <point x="1033.0" y="1232.0" type="line"/>
      <point x="937.0" y="1321.0"/>
      <point x="812.0" y="1370.0"/>
      <point x="670.0" y="1370.0" type="curve" smooth="yes"/>
      <point x="337.0" y="1370.0"/>
      <point x="102.0" y="1107.0"/>
      <point x="102.0" y="679.0" type="curve" smooth="yes"/>
      <point x="102.0" y="478.0"/>
      <point x="153.0" y="312.0"/>
      <point x="241.0" y="192.0" type="curve"/>
      <point x="100.0" y="6.0" type="line"/>
    </contour>
    <contour>
      <point x="670.0" y="99.0" type="curve" smooth="yes"/>
      <point x="558.0" y="99.0"/>
      <point x="462.0" y="143.0"/>
      <point x="392.0" y="221.0" type="curve"/>
      <point x="1011.0" y="1038.0" type="line"/>
      <point x="1063.0" y="945.0"/>
      <point x="1091.0" y="823.0"/>
      <point x="1091.0" y="679.0" type="curve" smooth="yes"/>
      <point x="1091.0" y="327.0"/>
      <point x="923.0" y="99.0"/>
    </contour>
    <contour>
      <point x="330.0" y="308.0" type="line"/>
      <point x="276.0" y="404.0"/>
      <point x="246.0" y="531.0"/>
      <point x="246.0" y="679.0" type="curve" smooth="yes"/>
      <point x="246.0" y="1029.0"/>
      <point x="415.0" y="1247.0"/>
      <point x="670.0" y="1247.0" type="curve" smooth="yes"/>
      <point x="782.0" y="1247.0"/>
      <point x="879.0" y="1204.0"/>
      <point x="951.0" y="1124.0" type="curve"/>
    </contour>
  </outline>
</glyph>
<glyph name="germandbls" format="2">
  <advance width="1151.0"/>
  <unicode hex="00DF"/>
  <anchor x="634.0" y="-300.0" name="btm"/>
  <anchor x="634.0" y="1050.0" name="top"/>
  <outline>
    <contour>
      <point x="776.0" y="-25.0" type="curve" smooth="yes"/>
      <point x="967.0" y="-25.0"/>
      <point x="1092.0" y="104.0"/>
      <point x="1092.0" y="272.0" type="curve" smooth="yes"/>
      <point x="1092.0" y="609.0"/>
      <point x="678.0" y="555.0"/>
      <point x="678.0" y="768.0" type="curve" smooth="yes"/>
      <point x="678.0" y="919.0"/>
      <point x="870.0" y="989.0"/>
      <point x="870.0" y="1196.0" type="curve" smooth="yes"/>
      <point x="870.0" y="1354.0"/>
      <point x="757.0" y="1485.0"/>
      <point x="557.0" y="1485.0" type="curve" smooth="yes"/>
      <point x="318.0" y="1485.0"/>
      <point x="176.0" y="1323.0"/>
      <point x="176.0" y="1069.0" type="curve" smooth="yes"/>
      <point x="176.0" y="0.0" type="line"/>
      <point x="313.0" y="0.0" type="line"/>
      <point x="313.0" y="1038.0" type="line"/>
      <point x="313.0" y="1263.0"/>
      <point x="405.0" y="1371.0"/>
      <point x="555.0" y="1371.0" type="curve" smooth="yes"/>
      <point x="674.0" y="1371.0"/>
      <point x="735.0" y="1292.0"/>
      <point x="735.0" y="1182.0" type="curve" smooth="yes"/>
      <point x="735.0" y="1005.0"/>
      <point x="546.0" y="944.0"/>
      <point x="546.0" y="753.0" type="curve" smooth="yes"/>
      <point x="546.0" y="464.0"/>
      <point x="960.0" y="522.0"/>
      <point x="960.0" y="264.0" type="curve" smooth="yes"/>
      <point x="960.0" y="171.0"/>
      <point x="896.0" y="84.0"/>
      <point x="773.0" y="84.0" type="curve" smooth="yes"/>
      <point x="692.0" y="84.0"/>
      <point x="624.0" y="114.0"/>
      <point x="549.0" y="175.0" type="curve"/>
      <point x="491.0" y="78.0" type="line"/>
      <point x="573.0" y="15.0"/>
      <point x="666.0" y="-25.0"/>
    </contour>
  </outline>
</glyph>
<glyph name="eth" format="2">
  <advance width="1108.0"/>
  <unicode hex="00F0"/>
  <anchor x="548.0" y="-300.0" name="btm"/>
  <anchor x="548.0" y="1050.0" name="top"/>
  <outline>
    <contour>
      <point x="549.0" y="-25.0" type="curve" smooth="yes"/>
      <point x="807.0" y="-25.0"/>
      <point x="981.0" y="194.0"/>
      <point x="981.0" y="522.0" type="curve" smooth="yes"/>
      <point x="981.0" y="850.0"/>
      <point x="866.0" y="1075.0"/>
      <point x="703.0" y="1241.0" type="curve"/>
      <point x="970.0" y="1378.0" type="line"/>
      <point x="929.0" y="1451.0" type="line"/>
      <point x="638.0" y="1300.0" type="line"/>
      <point x="551.0" y="1375.0"/>
      <point x="455.0" y="1437.0"/>
      <point x="355.0" y="1490.0" type="curve"/>
      <point x="291.0" y="1402.0" type="line"/>
      <point x="377.0" y="1354.0"/>
      <point x="457.0" y="1303.0"/>
      <point x="530.0" y="1244.0" type="curve"/>
      <point x="266.0" y="1109.0" type="line"/>
      <point x="307.0" y="1036.0" type="line"/>
      <point x="597.0" y="1186.0" type="line"/>
      <point x="705.0" y="1080.0"/>
      <point x="786.0" y="949.0"/>
      <point x="823.0" y="768.0" type="curve"/>
      <point x="749.0" y="865.0"/>
      <point x="647.0" y="911.0"/>
      <point x="537.0" y="911.0" type="curve" smooth="yes"/>
      <point x="294.0" y="911.0"/>
      <point x="115.0" y="727.0"/>
      <point x="115.0" y="453.0" type="curve" smooth="yes"/>
      <point x="115.0" y="156.0"/>
      <point x="323.0" y="-25.0"/>
    </contour>
    <contour>
      <point x="552.0" y="90.0" type="curve" smooth="yes"/>
      <point x="385.0" y="90.0"/>
      <point x="245.0" y="236.0"/>
      <point x="245.0" y="453.0" type="curve" smooth="yes"/>
      <point x="245.0" y="646.0"/>
      <point x="355.0" y="802.0"/>
      <point x="553.0" y="802.0" type="curve" smooth="yes"/>
      <point x="649.0" y="802.0"/>
      <point x="746.0" y="771.0"/>
      <point x="842.0" y="636.0" type="curve"/>
      <point x="845.0" y="599.0"/>
      <point x="847.0" y="559.0"/>
      <point x="847.0" y="518.0" type="curve" smooth="yes"/>
      <point x="847.0" y="272.0"/>
      <point x="752.0" y="90.0"/>
    </contour>
  </outline>
</glyph>
<glyph name="thorn" format="2">
  <advance width="1128.0"/>
  <unicode hex="00FE"/>
  <outline>
    <contour>
      <point x="176.0" y="-430.0" type="line"/>
      <point x="313.0" y="-430.0" type="line"/>
      <point x="313.0" y="-85.0" type="line"/>
      <point x="311.0" y="89.0" type="line"/>
      <point x="406.0" y="17.0"/>
      <point x="498.0" y="-25.0"/>
      <point x="594.0" y="-25.0" type="curve" smooth="yes"/>
      <point x="823.0" y="-25.0"/>
      <point x="1026.0" y="173.0"/>
      <point x="1026.0" y="510.0" type="curve" smooth="yes"/>
      <point x="1026.0" y="817.0"/>
      <point x="890.0" y="1015.0"/>
      <point x="627.0" y="1015.0" type="curve" smooth="yes"/>
      <point x="513.0" y="1015.0"/>
      <point x="404.0" y="952.0"/>
      <point x="311.0" y="879.0" type="curve"/>
      <point x="313.0" y="1056.0" type="line"/>
      <point x="313.0" y="1464.0" type="line"/>
      <point x="176.0" y="1464.0" type="line"/>
    </contour>
    <contour>
      <point x="575.0" y="92.0" type="curve" smooth="yes"/>
      <point x="506.0" y="92.0"/>
      <point x="412.0" y="122.0"/>
      <point x="313.0" y="205.0" type="curve"/>
      <point x="313.0" y="752.0" type="line"/>
      <point x="419.0" y="847.0"/>
      <point x="511.0" y="899.0"/>
      <point x="601.0" y="899.0" type="curve" smooth="yes"/>
      <point x="805.0" y="899.0"/>
      <point x="883.0" y="738.0"/>
      <point x="883.0" y="510.0" type="curve" smooth="yes"/>
      <point x="883.0" y="255.0"/>
      <point x="753.0" y="92.0"/>
    </contour>
  </outline>
</glyph>
<glyph name="dcroat" format="2">
  <advance width="1128.0"/>
  <unicode hex="0111"/>
  <outline>
    <contour>
      <point x="510.0" y="-25.0" type="curve" smooth="yes"/>
      <point x="634.0" y="-25.0"/>
      <point x="740.0" y="40.0"/>
      <point x="818.0" y="119.0" type="curve"/>
      <point x="823.0" y="119.0" type="line"/>
      <point x="834.0" y="0.0" type="line"/>
      <point x="951.0" y="0.0" type="line"/>
      <point x="951.0" y="1178.0" type="line"/>
      <point x="1101.0" y="1187.0" type="line"/>
      <point x="1101.0" y="1263.0" type="line"/>
      <point x="951.0" y="1263.0" type="line"/>
      <point x="951.0" y="1464.0" type="line"/>
      <point x="814.0" y="1464.0" type="line"/>
      <point x="814.0" y="1263.0" type="line"/>
      <point x="536.0" y="1263.0" type="line"/>
      <point x="536.0" y="1178.0" type="line"/>
      <point x="814.0" y="1178.0" type="line"/>
      <point x="814.0" y="1031.0" type="line"/>
      <point x="821.0" y="857.0" type="line"/>
      <point x="728.0" y="930.0"/>
      <point x="651.0" y="974.0"/>
      <point x="534.0" y="974.0" type="curve" smooth="yes"/>
      <point x="304.0" y="974.0"/>
      <point x="100.0" y="780.0"/>
      <point x="100.0" y="473.0" type="curve" smooth="yes"/>
      <point x="100.0" y="154.0"/>
      <point x="261.0" y="-25.0"/>
    </contour>
    <contour>
      <point x="537.0" y="92.0" type="curve" smooth="yes"/>
      <point x="349.0" y="92.0"/>
      <point x="243.0" y="238.0"/>
      <point x="243.0" y="474.0" type="curve" smooth="yes"/>
      <point x="243.0" y="697.0"/>
      <point x="379.0" y="858.0"/>
      <point x="554.0" y="858.0" type="curve" smooth="yes"/>
      <point x="641.0" y="858.0"/>
      <point x="722.0" y="827.0"/>
      <point x="814.0" y="744.0" type="curve"/>
      <point x="814.0" y="239.0" type="line"/>
      <point x="723.0" y="142.0"/>
      <point x="636.0" y="92.0"/>
    </contour>
  </outline>
</glyph>
<glyph name="hbar" format="2">
  <advance width="1100.0"/>
  <unicode hex="0127"/>
  <outline>
    <contour>
      <point x="176.0" y="0.0" type="line"/>
      <point x="313.0" y="0.0" type="line"/>
      <point x="313.0" y="688.0" type="line"/>
      <point x="421.0" y="798.0"/>
      <point x="497.0" y="855.0"/>
      <point x="605.0" y="855.0" type="curve" smooth="yes"/>
      <point x="748.0" y="855.0"/>
      <point x="808.0" y="767.0"/>
      <point x="808.0" y="572.0" type="curve" smooth="yes"/>
      <point x="808.0" y="0.0" type="line"/>
      <point x="944.0" y="0.0" type="line"/>
      <point x="944.0" y="590.0" type="line"/>
      <point x="944.0" y="844.0"/>
      <point x="850.0" y="974.0"/>
      <point x="644.0" y="974.0" type="curve" smooth="yes"/>
      <point x="507.0" y="974.0"/>
      <point x="406.0" y="899.0"/>
      <point x="309.0" y="804.0" type="curve"/>
      <point x="313.0" y="1014.0" type="line"/>
      <point x="313.0" y="1178.0" type="line"/>
      <point x="692.0" y="1178.0" type="line"/>
      <point x="692.0" y="1263.0" type="line"/>
      <point x="313.0" y="1263.0" type="line"/>
      <point x="313.0" y="1464.0" type="line"/>
      <point x="176.0" y="1464.0" type="line"/>
      <point x="176.0" y="1263.0" type="line"/>
      <point x="22.0" y="1254.0" type="line"/>
      <point x="22.0" y="1178.0" type="line"/>
      <point x="176.0" y="1178.0" type="line"/>
    </contour>
  </outline>
</glyph>
<glyph name="Iogonek" format="2">
  <advance width="507.0"/>
  <unicode hex="012E"/>
  <outline>
    <contour>
      <point x="269.0" y="-428.0" type="curve" smooth="yes"/>
      <point x="320.0" y="-428.0"/>
      <point x="384.0" y="-403.0"/>
      <point x="420.0" y="-375.0" type="curve"/>
      <point x="378.0" y="-297.0" type="line"/>
      <point x="353.0" y="-317.0"/>
      <point x="328.0" y="-326.0"/>
      <point x="294.0" y="-326.0" type="curve" smooth="yes"/>
      <point x="244.0" y="-326.0"/>
      <point x="194.0" y="-294.0"/>
      <point x="194.0" y="-227.0" type="curve" smooth="yes"/>
      <point x="194.0" y="-140.0"/>
      <point x="244.0" y="-71.0"/>
      <point x="324.0" y="0.0" type="curve"/>
      <point x="324.0" y="1346.0" type="line"/>
      <point x="184.0" y="1346.0" type="line"/>
      <point x="184.0" y="0.0" type="line"/>
      <point x="215.0" y="0.0" type="line"/>
      <point x="149.0" y="-64.0"/>
      <point x="83.0" y="-140.0"/>
      <point x="83.0" y="-254.0" type="curve" smooth="yes"/>
      <point x="83.0" y="-370.0"/>
      <point x="166.0" y="-428.0"/>
    </contour>
  </outline>
</glyph>
<glyph name="lslash" format="2">
  <advance width="517.0"/>
  <unicode hex="0142"/>
  <outline>
    <contour>
      <point x="336.0" y="-25.0" type="curve" smooth="yes"/>
      <point x="376.0" y="-25.0"/>
      <point x="399.0" y="-19.0"/>
      <point x="422.0" y="-10.0" type="curve"/>
      <point x="401.0" y="94.0" type="line"/>
      <point x="382.0" y="90.0"/>
      <point x="374.0" y="90.0"/>
      <point x="365.0" y="90.0" type="curve" smooth="yes"/>
      <point x="340.0" y="90.0"/>
      <point x="320.0" y="111.0"/>
      <point x="320.0" y="160.0" type="curve" smooth="yes"/>
      <point x="320.0" y="779.0" type="line"/>
      <point x="466.0" y="873.0" type="line"/>
      <point x="466.0" y="994.0" type="line"/>
      <point x="320.0" y="899.0" type="line"/>
      <point x="320.0" y="1464.0" type="line"/>
      <point x="182.0" y="1464.0" type="line"/>
      <point x="182.0" y="825.0" type="line"/>
      <point x="51.0" y="741.0" type="line"/>
      <point x="51.0" y="621.0" type="line"/>
      <point x="182.0" y="705.0" type="line"/>
      <point x="182.0" y="172.0" type="line"/>
      <point x="182.0" y="43.0"/>
      <point x="230.0" y="-25.0"/>
    </contour>
  </outline>
</glyph>
<glyph name="OE" format="2">
  <advance width="1711.0"/>
  <unicode hex="0152"/>
  <anchor x="856.0" y="1346.0" name="top"/>
  <outline>
    <contour>
      <point x="747.0" y="0.0" type="curve" smooth="yes"/>
      <point x="1619.0" y="0.0" type="line"/>
      <point x="1619.0" y="119.0" type="line"/>
      <point x="1014.0" y="119.0" type="line"/>
      <point x="1014.0" y="651.0" type="line"/>
      <point x="1501.0" y="651.0" type="line"/>
      <point x="1501.0" y="770.0" type="line"/>
      <point x="1014.0" y="770.0" type="line"/>
      <point x="1014.0" y="1228.0" type="line"/>
      <point x="1599.0" y="1228.0" type="line"/>
      <point x="1599.0" y="1346.0" type="line"/>
      <point x="753.0" y="1346.0" type="line"/>
      <point x="333.0" y="1346.0"/>
      <point x="102.0" y="1097.0"/>
      <point x="102.0" y="679.0" type="curve" smooth="yes"/>
      <point x="102.0" y="258.0"/>
      <point x="333.0" y="0.0"/>
    </contour>
    <contour>
      <point x="764.0" y="115.0" type="line"/>
      <point x="419.0" y="115.0"/>
      <point x="246.0" y="333.0"/>
      <point x="246.0" y="679.0" type="curve" smooth="yes"/>
      <point x="246.0" y="1024.0"/>
      <point x="419.0" y="1231.0"/>
      <point x="764.0" y="1231.0" type="curve" smooth="yes"/>
      <point x="874.0" y="1231.0" type="line"/>
      <point x="874.0" y="115.0" type="line"/>
    </contour>
  </outline>
</glyph>
<glyph name="Tbar" format="2">
  <advance width="1076.0"/>
  <unicode hex="0166"/>
  <anchor x="538.0" y="0.0" name="bottom"/>
  <anchor x="538.0" y="673.0" name="center"/>
  <anchor x="538.0" y="1346.0" name="top"/>
  <outline>
    <contour>
      <point x="279.0" y="631.0" type="line"/>
      <point x="836.0" y="631.0" type="line"/>
      <point x="836.0" y="742.0" type="line"/>
      <point x="279.0" y="742.0" type="line"/>
    </contour>
    <component base="T"/>
  </outline>
</glyph>
<glyph name="florin" format="2">
  <advance width="1003.0"/>
  <unicode hex="0192"/>
  <outline>
    <contour>
      <point x="174.0" y="-200.0" type="curve" smooth="yes"/>
      <point x="389.0" y="-200.0"/>
      <point x="472.0" y="-35.0"/>
      <point x="500.0" y="216.0" type="curve" smooth="yes"/>
      <point x="556.0" y="726.0" type="line"/>
      <point x="836.0" y="726.0" type="line"/>
      <point x="836.0" y="833.0" type="line"/>
      <point x="567.0" y="833.0" type="line"/>
      <point x="582.0" y="966.0" type="line"/>
      <point x="599.0" y="1116.0"/>
      <point x="648.0" y="1257.0"/>
      <point x="779.0" y="1257.0" type="curve" smooth="yes"/>
      <point x="832.0" y="1257.0"/>
      <point x="868.0" y="1239.0"/>
      <point x="898.0" y="1227.0" type="curve"/>
      <point x="930.0" y="1333.0" type="line"/>
      <point x="892.0" y="1352.0"/>
      <point x="837.0" y="1370.0"/>
      <point x="774.0" y="1370.0" type="curve" smooth="yes"/>
      <point x="568.0" y="1370.0"/>
      <point x="478.0" y="1219.0"/>
      <point x="448.0" y="953.0" type="curve" smooth="yes"/>
      <point x="435.0" y="833.0" type="line"/>
      <point x="378.0" y="833.0" type="line"/>
      <point x="239.0" y="825.0" type="line"/>
      <point x="239.0" y="726.0" type="line"/>
      <point x="423.0" y="726.0" type="line"/>
      <point x="371.0" y="241.0" type="line"/>
      <point x="349.0" y="38.0"/>
      <point x="299.0" y="-86.0"/>
      <point x="164.0" y="-86.0" type="curve" smooth="yes"/>
      <point x="126.0" y="-86.0"/>
      <point x="92.0" y="-79.0"/>
      <point x="60.0" y="-64.0" type="curve"/>
      <point x="31.0" y="-168.0" type="line"/>
      <point x="65.0" y="-187.0"/>
      <point x="114.0" y="-200.0"/>
    </contour>
  </outline>
</glyph>
<glyph name="Ohorn" format="2">
  <advance width="1338.0"/>
  <unicode hex="01A0"/>
  <anchor x="670.0" y="0.0" name="bottom"/>
  <anchor x="669.0" y="-300.0" name="btm"/>
  <anchor x="670.0" y="1340.0" name="top"/>
  <outline>
    <contour>
      <point x="670.0" y="-25.0" type="curve" smooth="yes"/>
      <point x="1001.0" y="-25.0"/>
      <point x="1236.0" y="248.0"/>
      <point x="1236.0" y="679.0" type="curve" smooth="yes"/>
      <point x="1236.0" y="931.0"/>
      <point x="1153.0" y="1126.0"/>
      <point x="1019.0" y="1244.0" type="curve"/>
      <point x="1145.0" y="1274.0"/>
      <point x="1224.0" y="1339.0"/>
      <point x="1224.0" y="1452.0" type="curve" smooth="yes"/>
      <point x="1224.0" y="1499.0"/>
      <point x="1207.0" y="1540.0"/>
      <point x="1181.0" y="1577.0" type="curve"/>
      <point x="1080.0" y="1526.0" type="line"/>
      <point x="1098.0" y="1499.0"/>
      <point x="1109.0" y="1473.0"/>
      <point x="1109.0" y="1444.0" type="curve" smooth="yes"/>
      <point x="1109.0" y="1367.0"/>
      <point x="1053.0" y="1325.0"/>
      <point x="931.0" y="1305.0" type="curve"/>
      <point x="855.0" y="1348.0"/>
      <point x="767.0" y="1370.0"/>
      <point x="670.0" y="1370.0" type="curve" smooth="yes"/>
      <point x="337.0" y="1370.0"/>
      <point x="102.0" y="1107.0"/>
      <point x="102.0" y="679.0" type="curve" smooth="yes"/>
      <point x="102.0" y="248.0"/>
      <point x="337.0" y="-25.0"/>
    </contour>
    <contour>
      <point x="670.0" y="99.0" type="curve" smooth="yes"/>
      <point x="415.0" y="99.0"/>
      <point x="246.0" y="327.0"/>
      <point x="246.0" y="679.0" type="curve" smooth="yes"/>
      <point x="246.0" y="1029.0"/>
      <point x="415.0" y="1247.0"/>
      <point x="670.0" y="1247.0" type="curve" smooth="yes"/>
      <point x="923.0" y="1247.0"/>
      <point x="1091.0" y="1029.0"/>
      <point x="1091.0" y="679.0" type="curve" smooth="yes"/>
      <point x="1091.0" y="327.0"/>
      <point x="923.0" y="99.0"/>
    </contour>
  </outline>
</glyph>
<glyph name="Uhorn" format="2">
  <advance width="1326.0"/>
  <unicode hex="01AF"/>
  <anchor x="663.0" y="0.0" name="bottom"/>
  <anchor x="663.0" y="1346.0" name="top"/>
  <outline>
    <contour>
      <point x="649.0" y="-25.0" type="curve" smooth="yes"/>
      <point x="906.0" y="-25.0"/>
      <point x="1122.0" y="112.0"/>
      <point x="1122.0" y="540.0" type="curve" smooth="yes"/>
      <point x="1122.0" y="1281.0" type="line"/>
      <point x="1237.0" y="1306.0"/>
      <point x="1340.0" y="1362.0"/>
      <point x="1340.0" y="1493.0" type="curve" smooth="yes"/>
      <point x="1340.0" y="1540.0"/>
      <point x="1321.0" y="1581.0"/>
      <point x="1295.0" y="1618.0" type="curve"/>
      <point x="1193.0" y="1567.0" type="line"/>
      <point x="1212.0" y="1540.0"/>
      <point x="1224.0" y="1514.0"/>
      <point x="1224.0" y="1485.0" type="curve" smooth="yes"/>
      <point x="1224.0" y="1395.0"/>
      <point x="1157.0" y="1362.0"/>
      <point x="1042.0" y="1346.0" type="curve"/>
      <point x="989.0" y="1346.0" type="line"/>
      <point x="989.0" y="542.0" type="line"/>
      <point x="989.0" y="204.0"/>
      <point x="835.0" y="99.0"/>
      <point x="649.0" y="99.0" type="curve" smooth="yes"/>
      <point x="469.0" y="99.0"/>
      <point x="318.0" y="204.0"/>
      <point x="318.0" y="542.0" type="curve" smooth="yes"/>
      <point x="318.0" y="1346.0" type="line"/>
      <point x="178.0" y="1346.0" type="line"/>
      <point x="178.0" y="540.0" type="line"/>
      <point x="178.0" y="112.0"/>
      <point x="392.0" y="-25.0"/>
    </contour>
  </outline>
</glyph>
<glyph name="Oogonek" format="2">
  <advance width="1338.0"/>
  <unicode hex="01EA"/>
  <outline>
    <contour>
      <point x="731.0" y="-428.0" type="curve" smooth="yes"/>
      <point x="781.0" y="-428.0"/>
      <point x="845.0" y="-403.0"/>
      <point x="881.0" y="-375.0" type="curve"/>
      <point x="841.0" y="-297.0" type="line"/>
      <point x="815.0" y="-317.0"/>
      <point x="789.0" y="-326.0"/>
      <point x="755.0" y="-326.0" type="curve" smooth="yes"/>
      <point x="706.0" y="-326.0"/>
      <point x="656.0" y="-294.0"/>
      <point x="656.0" y="-227.0" type="curve" smooth="yes"/>
      <point x="656.0" y="-156.0"/>
      <point x="706.0" y="-65.0"/>
      <point x="819.0" y="-15.0" type="curve" smooth="yes"/>
      <point x="1087.0" y="108.0"/>
      <point x="1236.0" y="314.0"/>
      <point x="1236.0" y="679.0" type="curve" smooth="yes"/>
      <point x="1236.0" y="1106.0"/>
      <point x="1001.0" y="1370.0"/>
      <point x="670.0" y="1370.0" type="curve" smooth="yes"/>
      <point x="337.0" y="1370.0"/>
      <point x="102.0" y="1107.0"/>
      <point x="102.0" y="679.0" type="curve" smooth="yes"/>
      <point x="102.0" y="257.0"/>
      <point x="322.0" y="-19.0"/>
      <point x="670.0" y="-24.0" type="curve"/>
      <point x="594.0" y="-84.0"/>
      <point x="545.0" y="-168.0"/>
      <point x="545.0" y="-254.0" type="curve" smooth="yes"/>
      <point x="545.0" y="-370.0"/>
      <point x="628.0" y="-428.0"/>
    </contour>
    <contour>
      <point x="670.0" y="99.0" type="curve" smooth="yes"/>
      <point x="415.0" y="99.0"/>
      <point x="246.0" y="327.0"/>
      <point x="246.0" y="679.0" type="curve" smooth="yes"/>
      <point x="246.0" y="1029.0"/>
      <point x="415.0" y="1247.0"/>
      <point x="670.0" y="1247.0" type="curve" smooth="yes"/>
      <point x="923.0" y="1247.0"/>
      <point x="1091.0" y="1029.0"/>
      <point x="1091.0" y="679.0" type="curve" smooth="yes"/>
      <point x="1091.0" y="327.0"/>
      <point x="923.0" y="99.0"/>
    </contour>
  </outline>
</glyph>
<glyph name="h.sups" format="2">
  <advance width="741.0"/>
  <unicode hex="02B0"/>
  <outline>
    <contour>
      <point x="111.0" y="532.0" type="line"/>
      <point x="217.0" y="532.0" type="line"/>
      <point x="217.0" y="1009.0" type="line"/>
      <point x="289.0" y="1080.0"/>
      <point x="347.0" y="1112.0"/>
      <point x="403.0" y="1112.0" type="curve" smooth="yes"/>
      <point x="514.0" y="1112.0"/>
      <point x="538.0" y="1043.0"/>
      <point x="538.0" y="932.0" type="curve" smooth="yes"/>
      <point x="538.0" y="532.0" type="line"/>
      <point x="645.0" y="532.0" type="line"/>
      <point x="645.0" y="949.0" type="line"/>
      <point x="645.0" y="1100.0"/>
      <point x="591.0" y="1205.0"/>
      <point x="437.0" y="1205.0" type="curve" smooth="yes"/>
      <point x="349.0" y="1205.0"/>
      <point x="270.0" y="1153.0"/>
      <point x="213.0" y="1092.0" type="curve"/>
      <point x="217.0" y="1232.0" type="line"/>
      <point x="217.0" y="1496.0" type="line"/>
      <point x="111.0" y="1496.0" type="line"/>
    </contour>
  </outline>
</glyph>
<glyph name="j.sups" format="2">
  <advance width="336.0"/>
  <unicode hex="02B2"/>
  <outline>
    <contour>
      <point x="45.0" y="231.0" type="curve" smooth="yes"/>
      <point x="169.0" y="231.0"/>
      <point x="222.0" y="312.0"/>
      <point x="222.0" y="457.0" type="curve" smooth="yes"/>
      <point x="222.0" y="1189.0" type="line"/>
      <point x="116.0" y="1189.0" type="line"/>
      <point x="116.0" y="449.0" type="line"/>
      <point x="116.0" y="369.0"/>
      <point x="99.0" y="323.0"/>
      <point x="33.0" y="323.0" type="curve" smooth="yes"/>
      <point x="5.0" y="323.0"/>
      <point x="-8.0" y="327.0"/>
      <point x="-26.0" y="334.0" type="curve"/>
      <point x="-50.0" y="248.0" type="line"/>
      <point x="-18.0" y="237.0"/>
      <point x="4.0" y="231.0"/>
    </contour>
    <contour>
      <point x="171.0" y="1324.0" type="curve" smooth="yes"/>
      <point x="215.0" y="1324.0"/>
      <point x="248.0" y="1354.0"/>
      <point x="248.0" y="1397.0" type="curve" smooth="yes"/>
      <point x="248.0" y="1440.0"/>
      <point x="215.0" y="1470.0"/>
      <point x="171.0" y="1470.0" type="curve" smooth="yes"/>
      <point x="127.0" y="1470.0"/>
      <point x="93.0" y="1440.0"/>
      <point x="93.0" y="1397.0" type="curve" smooth="yes"/>
      <point x="93.0" y="1354.0"/>
      <point x="127.0" y="1324.0"/>
    </contour>
  </outline>
</glyph>
<glyph name="r.sups" format="2">
  <advance width="476.0"/>
  <unicode hex="02B3"/>
  <outline>
    <contour>
      <point x="111.0" y="532.0" type="line"/>
      <point x="221.0" y="532.0" type="line"/>
      <point x="221.0" y="957.0" type="line"/>
      <point x="268.0" y="1066.0"/>
      <point x="333.0" y="1104.0"/>
      <point x="393.0" y="1104.0" type="curve" smooth="yes"/>
      <point x="415.0" y="1104.0"/>
      <point x="441.0" y="1099.0"/>
      <point x="456.0" y="1095.0" type="curve"/>
      <point x="479.0" y="1191.0" type="line"/>
      <point x="462.0" y="1199.0"/>
      <point x="434.0" y="1205.0"/>
      <point x="403.0" y="1205.0" type="curve" smooth="yes"/>
      <point x="329.0" y="1205.0"/>
      <point x="268.0" y="1157.0"/>
      <point x="217.0" y="1072.0" type="curve"/>
      <point x="211.0" y="1072.0" type="line"/>
      <point x="196.0" y="1189.0" type="line"/>
      <point x="111.0" y="1189.0" type="line"/>
    </contour>
  </outline>
</glyph>
<glyph name="w.sups" format="2">
  <advance width="979.0"/>
  <unicode hex="02B7"/>
  <outline>
    <contour>
      <point x="218.0" y="532.0" type="line"/>
      <point x="347.0" y="532.0" type="line"/>
      <point x="444.0" y="886.0" type="line"/>
      <point x="489.0" y="1074.0" type="line"/>
      <point x="493.0" y="1074.0" type="line"/>
      <point x="539.0" y="886.0" type="line"/>
      <point x="634.0" y="532.0" type="line"/>
      <point x="764.0" y="532.0" type="line"/>
      <point x="947.0" y="1189.0" type="line"/>
      <point x="844.0" y="1189.0" type="line"/>
      <point x="749.0" y="806.0" type="line"/>
      <point x="703.0" y="622.0" type="line"/>
      <point x="695.0" y="622.0" type="line"/>
      <point x="648.0" y="806.0" type="line"/>
      <point x="541.0" y="1189.0" type="line"/>
      <point x="440.0" y="1189.0" type="line"/>
      <point x="338.0" y="806.0" type="line"/>
      <point x="292.0" y="622.0" type="line"/>
      <point x="284.0" y="622.0" type="line"/>
      <point x="241.0" y="806.0" type="line"/>
      <point x="145.0" y="1189.0" type="line"/>
      <point x="33.0" y="1189.0" type="line"/>
    </contour>
  </outline>
</glyph>
<glyph name="y.sups" format="2">
  <advance width="636.0"/>
  <unicode hex="02B8"/>
  <outline>
    <contour>
      <point x="124.0" y="253.0" type="curve" smooth="yes"/>
      <point x="257.0" y="253.0"/>
      <point x="328.0" y="355.0"/>
      <point x="374.0" y="485.0" type="curve" smooth="yes"/>
      <point x="620.0" y="1189.0" type="line"/>
      <point x="514.0" y="1189.0" type="line"/>
      <point x="400.0" y="825.0" type="line"/>
      <point x="379.0" y="763.0"/>
      <point x="357.0" y="702.0"/>
      <point x="339.0" y="636.0" type="curve"/>
      <point x="330.0" y="636.0" type="line"/>
      <point x="308.0" y="702.0"/>
      <point x="284.0" y="766.0"/>
      <point x="263.0" y="825.0" type="curve" smooth="yes"/>
      <point x="125.0" y="1189.0" type="line"/>
      <point x="16.0" y="1189.0" type="line"/>
      <point x="286.0" y="532.0" type="line"/>
      <point x="270.0" y="488.0" type="line"/>
      <point x="244.0" y="403.0"/>
      <point x="192.0" y="343.0"/>
      <point x="118.0" y="343.0" type="curve" smooth="yes"/>
      <point x="101.0" y="343.0"/>
      <point x="86.0" y="346.0"/>
      <point x="67.0" y="355.0" type="curve"/>
      <point x="44.0" y="265.0" type="line"/>
      <point x="68.0" y="257.0"/>
      <point x="93.0" y="253.0"/>
    </contour>
  </outline>
</glyph>
<glyph name="dotaccent" format="2">
  <advance width="1104.0"/>
  <unicode hex="02D9"/>
  <outline>
    <contour>
      <point x="552.0" y="1209.0" type="curve" smooth="yes"/>
      <point x="607.0" y="1209.0"/>
      <point x="649.0" y="1248.0"/>
      <point x="649.0" y="1309.0" type="curve" smooth="yes"/>
      <point x="649.0" y="1365.0"/>
      <point x="607.0" y="1406.0"/>
      <point x="552.0" y="1406.0" type="curve" smooth="yes"/>
      <point x="497.0" y="1406.0"/>
      <point x="454.0" y="1365.0"/>
      <point x="454.0" y="1309.0" type="curve" smooth="yes"/>
      <point x="454.0" y="1248.0"/>
      <point x="497.0" y="1209.0"/>
    </contour>
  </outline>
</glyph>
<glyph name="ring" format="2">
  <advance width="1104.0"/>
  <unicode hex="02DA"/>
  <outline>
    <contour>
      <point x="552.0" y="1108.0" type="curve" smooth="yes"/>
      <point x="657.0" y="1108.0"/>
      <point x="735.0" y="1182.0"/>
      <point x="735.0" y="1292.0" type="curve" smooth="yes"/>
      <point x="735.0" y="1402.0"/>
      <point x="657.0" y="1476.0"/>
      <point x="552.0" y="1476.0" type="curve" smooth="yes"/>
      <point x="448.0" y="1476.0"/>
      <point x="371.0" y="1402.0"/>
      <point x="371.0" y="1292.0" type="curve" smooth="yes"/>
      <point x="371.0" y="1182.0"/>
      <point x="448.0" y="1108.0"/>
    </contour>
    <contour>
      <point x="552.0" y="1174.0" type="curve" smooth="yes"/>
      <point x="495.0" y="1174.0"/>
      <point x="450.0" y="1221.0"/>
      <point x="450.0" y="1292.0" type="curve" smooth="yes"/>
      <point x="450.0" y="1363.0"/>
      <point x="495.0" y="1410.0"/>
      <point x="552.0" y="1410.0" type="curve" smooth="yes"/>
      <point x="609.0" y="1410.0"/>
      <point x="654.0" y="1363.0"/>
      <point x="654.0" y="1292.0" type="curve" smooth="yes"/>
      <point x="654.0" y="1221.0"/>
      <point x="609.0" y="1174.0"/>
    </contour>
  </outline>
</glyph>
<glyph name="ogonek" format="2">
  <advance width="1104.0"/>
  <unicode hex="02DB"/>
  <outline>
    <contour>
      <point x="603.0" y="-420.0" type="curve" smooth="yes"/>
      <point x="653.0" y="-420.0"/>
      <point x="718.0" y="-396.0"/>
      <point x="753.0" y="-368.0" type="curve"/>
      <point x="714.0" y="-296.0" type="line"/>
      <point x="689.0" y="-314.0"/>
      <point x="663.0" y="-323.0"/>
      <point x="629.0" y="-323.0" type="curve" smooth="yes"/>
      <point x="579.0" y="-323.0"/>
      <point x="532.0" y="-291.0"/>
      <point x="532.0" y="-224.0" type="curve" smooth="yes"/>
      <point x="532.0" y="-141.0"/>
      <point x="589.0" y="-60.0"/>
      <point x="679.0" y="7.0" type="curve"/>
      <point x="573.0" y="7.0" type="line"/>
      <point x="502.0" y="-47.0"/>
      <point x="427.0" y="-140.0"/>
      <point x="427.0" y="-249.0" type="curve" smooth="yes"/>
      <point x="427.0" y="-361.0"/>
      <point x="505.0" y="-420.0"/>
    </contour>
  </outline>
</glyph>
<glyph name="l.sups" format="2">
  <advance width="346.0"/>
  <unicode hex="02E1"/>
  <outline>
    <contour>
      <point x="231.0" y="516.0" type="curve" smooth="yes"/>
      <point x="261.0" y="516.0"/>
      <point x="279.0" y="521.0"/>
      <point x="295.0" y="527.0" type="curve"/>
      <point x="279.0" y="610.0" type="line"/>
      <point x="267.0" y="606.0"/>
      <point x="258.0" y="606.0"/>
      <point x="250.0" y="606.0" type="curve" smooth="yes"/>
      <point x="230.0" y="606.0"/>
      <point x="217.0" y="619.0"/>
      <point x="217.0" y="655.0" type="curve" smooth="yes"/>
      <point x="217.0" y="1496.0" type="line"/>
      <point x="111.0" y="1496.0" type="line"/>
      <point x="111.0" y="665.0" type="line"/>
      <point x="111.0" y="571.0"/>
      <point x="143.0" y="516.0"/>
    </contour>
  </outline>
</glyph>
<glyph name="gravecomb" format="2">
  <unicode hex="0300"/>
  <anchor x="277.0" y="990.0" name="_top"/>
  <anchor x="177.0" y="1457.0" name="top"/>
  <outline>
    <contour>
      <point x="236.0" y="1173.0" type="line"/>
      <point x="344.0" y="1173.0" type="line"/>
      <point x="158.0" y="1457.0" type="line"/>
      <point x="10.0" y="1457.0" type="line"/>
    </contour>
  </outline>
</glyph>
<glyph name="acutecomb" format="2">
  <unicode hex="0301"/>
  <anchor x="107.0" y="990.0" name="_top"/>
  <anchor x="178.0" y="1347.0" name="top"/>
  <outline>
    <contour>
      <point x="10.0" y="1173.0" type="line"/>
      <point x="118.0" y="1173.0" type="line"/>
      <point x="344.0" y="1457.0" type="line"/>
      <point x="196.0" y="1457.0" type="line"/>
    </contour>
  </outline>
</glyph>
<glyph name="hookabovecomb" format="2">
  <unicode hex="0309"/>
  <anchor x="151.5" y="990.0" name="_top"/>
  <anchor x="151.5" y="1476.0" name="top"/>
  <outline>
    <contour>
      <point x="79.0" y="1131.0" type="line"/>
      <point x="189.0" y="1154.0"/>
      <point x="293.0" y="1202.0"/>
      <point x="293.0" y="1316.0" type="curve" smooth="yes"/>
      <point x="293.0" y="1420.0"/>
      <point x="185.0" y="1470.0"/>
      <point x="25.0" y="1476.0" type="curve"/>
      <point x="10.0" y="1392.0" type="line"/>
      <point x="123.0" y="1387.0"/>
      <point x="182.0" y="1357.0"/>
      <point x="182.0" y="1300.0" type="curve" smooth="yes"/>
      <point x="182.0" y="1246.0"/>
      <point x="130.0" y="1219.0"/>
      <point x="61.0" y="1199.0" type="curve"/>
    </contour>
  </outline>
</glyph>
<glyph name="commaaccentcomb" format="2">
  <unicode hex="0326"/>
  <anchor x="158.0" y="0.0" name="_bottom"/>
  <anchor x="158.0" y="-436.0" name="bottom"/>
  <outline>
    <contour>
      <point x="26.0" y="-436.0" type="line"/>
      <point x="171.0" y="-423.0"/>
      <point x="306.0" y="-369.0"/>
      <point x="306.0" y="-255.0" type="curve" smooth="yes"/>
      <point x="306.0" y="-166.0"/>
      <point x="246.0" y="-122.0"/>
      <point x="119.0" y="-100.0" type="curve"/>
      <point x="86.0" y="-171.0" type="line"/>
      <point x="145.0" y="-184.0"/>
      <point x="196.0" y="-208.0"/>
      <point x="196.0" y="-265.0" type="curve" smooth="yes"/>
      <point x="196.0" y="-319.0"/>
      <point x="120.0" y="-348.0"/>
      <point x="10.0" y="-363.0" type="curve"/>
    </contour>
  </outline>
</glyph>
<glyph name="brevebelowcomb" format="2">
  <unicode hex="032E"/>
  <anchor x="262.0" y="0.0" name="_bottom"/>
  <anchor x="262.0" y="-420.0" name="bottom"/>
  <outline>
    <contour>
      <point x="262.0" y="-420.0" type="curve" smooth="yes"/>
      <point x="435.0" y="-420.0"/>
      <point x="504.0" y="-280.0"/>
      <point x="514.0" y="-166.0" type="curve"/>
      <point x="425.0" y="-166.0" type="line"/>
      <point x="414.0" y="-249.0"/>
      <point x="363.0" y="-330.0"/>
      <point x="262.0" y="-330.0" type="curve" smooth="yes"/>
      <point x="161.0" y="-330.0"/>
      <point x="110.0" y="-249.0"/>
      <point x="99.0" y="-166.0" type="curve"/>
      <point x="10.0" y="-166.0" type="line"/>
      <point x="20.0" y="-280.0"/>
      <point x="89.0" y="-420.0"/>
    </contour>
  </outline>
</glyph>
<glyph name="candraBindu-deva" format="2">
  <unicode hex="0901"/>
  <anchor x="273.0" y="1247.0" name="_candra"/>
  <anchor x="272.0" y="1247.0" name="_top"/>
  <anchor x="264.0" y="1848.0" name="top"/>
  <outline>
    <contour>
      <point x="270.0" y="1431.0" type="curve" smooth="yes"/>
      <point x="397.0" y="1431.0"/>
      <point x="494.0" y="1500.0"/>
      <point x="552.0" y="1624.0" type="curve"/>
      <point x="480.0" y="1671.0" type="line"/>
      <point x="440.0" y="1606.0"/>
      <point x="381.0" y="1541.0"/>
      <point x="271.0" y="1541.0" type="curve" smooth="yes"/>
      <point x="165.0" y="1541.0"/>
      <point x="104.0" y="1598.0"/>
      <point x="62.0" y="1669.0" type="curve"/>
      <point x="-13.0" y="1619.0" type="line"/>
      <point x="31.0" y="1522.0"/>
      <point x="120.0" y="1431.0"/>
    </contour>
    <contour>
      <point x="265.0" y="1630.0" type="curve" smooth="yes"/>
      <point x="323.0" y="1630.0"/>
      <point x="347.0" y="1654.0"/>
      <point x="347.0" y="1711.0" type="curve" smooth="yes"/>
      <point x="347.0" y="1768.0"/>
      <point x="323.0" y="1792.0"/>
      <point x="265.0" y="1792.0" type="curve" smooth="yes"/>
      <point x="208.0" y="1792.0"/>
      <point x="183.0" y="1768.0"/>
      <point x="183.0" y="1711.0" type="curve" smooth="yes"/>
      <point x="183.0" y="1654.0"/>
      <point x="208.0" y="1630.0"/>
    </contour>
  </outline>
</glyph>
<glyph name="u-deva" format="2">
  <advance width="877.0"/>
  <unicode hex="0909"/>
  <anchor x="432.0" y="40.0" name="bottom"/>
  <anchor x="447.0" y="1250.0" name="candra"/>
  <anchor x="451.0" y="1171.0" name="top"/>
  <outline>
    <contour>
      <point x="419.0" y="9.0" type="curve" smooth="yes"/>
      <point x="621.0" y="9.0"/>
      <point x="791.0" y="133.0"/>
      <point x="791.0" y="351.0" type="curve" smooth="yes"/>
      <point x="791.0" y="525.0"/>
      <point x="671.0" y="647.0"/>
      <point x="440.0" y="687.0" type="curve"/>
      <point x="366.0" y="647.0" type="line"/>
      <point x="562.0" y="588.0"/>
      <point x="665.0" y="501.0"/>
      <point x="665.0" y="356.0" type="curve" smooth="yes"/>
      <point x="665.0" y="197.0"/>
      <point x="550.0" y="120.0"/>
      <point x="406.0" y="120.0" type="curve" smooth="yes"/>
      <point x="279.0" y="120.0"/>
      <point x="164.0" y="188.0"/>
      <point x="90.0" y="255.0" type="curve"/>
      <point x="28.0" y="178.0" type="line"/>
      <point x="120.0" y="84.0"/>
      <point x="259.0" y="9.0"/>
    </contour>
    <contour>
      <point x="275.0" y="580.0" type="line"/>
      <point x="363.0" y="584.0"/>
      <point x="465.0" y="604.0"/>
      <point x="547.0" y="649.0" type="curve" smooth="yes"/>
      <point x="675.0" y="716.0"/>
      <point x="736.0" y="810.0"/>
      <point x="736.0" y="939.0" type="curve" smooth="yes"/>
      <point x="736.0" y="1139.0"/>
      <point x="559.0" y="1201.0"/>
      <point x="392.0" y="1197.0" type="curve"/>
      <point x="385.0" y="1146.0" type="line"/>
      <point x="492.0" y="1146.0"/>
      <point x="614.0" y="1087.0"/>
      <point x="614.0" y="943.0" type="curve" smooth="yes"/>
      <point x="614.0" y="815.0"/>
      <point x="538.0" y="732.0"/>
      <point x="355.0" y="695.0" type="curve" smooth="yes"/>
      <point x="329.0" y="689.0"/>
      <point x="309.0" y="685.0"/>
      <point x="259.0" y="680.0" type="curve"/>
    </contour>
    <contour>
      <point x="-12.0" y="1143.0" type="line"/>
      <point x="890.0" y="1143.0" type="line"/>
      <point x="890.0" y="1247.0" type="line"/>
      <point x="-12.0" y="1247.0" type="line"/>
    </contour>
  </outline>
</glyph>
<glyph name="uu-deva" format="2">
  <advance width="1356.0"/>
  <unicode hex="090A"/>
  <anchor x="701.0" y="28.0" name="bottom"/>
  <anchor x="798.0" y="1247.0" name="candra"/>
  <anchor x="509.0" y="1168.0" name="top"/>
  <outline>
    <contour>
      <point x="1141.0" y="64.0" type="line"/>
      <point x="1247.0" y="189.0"/>
      <point x="1284.0" y="323.0"/>
      <point x="1284.0" y="428.0" type="curve" smooth="yes"/>
      <point x="1284.0" y="612.0"/>
      <point x="1172.0" y="720.0"/>
      <point x="1020.0" y="720.0" type="curve" smooth="yes"/>
      <point x="912.0" y="720.0"/>
      <point x="816.0" y="675.0"/>
      <point x="724.0" y="527.0" type="curve"/>
      <point x="747.0" y="351.0" type="line"/>
      <point x="839.0" y="548.0"/>
      <point x="916.0" y="610.0"/>
      <point x="1017.0" y="610.0" type="curve" smooth="yes"/>
      <point x="1117.0" y="610.0"/>
      <point x="1168.0" y="544.0"/>
      <point x="1168.0" y="432.0" type="curve" smooth="yes"/>
      <point x="1168.0" y="343.0"/>
      <point x="1131.0" y="236.0"/>
      <point x="1053.0" y="132.0" type="curve"/>
    </contour>
    <contour>
      <point x="530.0" y="1143.0" type="line"/>
      <point x="1369.0" y="1143.0" type="line"/>
      <point x="1369.0" y="1247.0" type="line"/>
      <point x="530.0" y="1247.0" type="line"/>
    </contour>
    <component base="u-deva"/>
  </outline>
</glyph>
<glyph name="lVocalic-deva" format="2">
  <advance width="1303.0"/>
  <unicode hex="090C"/>
  <anchor x="687.0" y="-4.0" name="bottom"/>
  <anchor x="729.0" y="1247.0" name="candra"/>
  <anchor x="984.0" y="1247.0" name="top"/>
  <outline>
    <contour>
      <point x="1073.0" y="-191.0" type="curve" smooth="yes"/>
      <point x="1183.0" y="-191.0"/>
      <point x="1293.0" y="-150.0"/>
      <point x="1368.0" y="-93.0" type="curve"/>
      <point x="1319.0" y="-3.0" type="line"/>
      <point x="1252.0" y="-55.0"/>
      <point x="1157.0" y="-88.0"/>
      <point x="1073.0" y="-88.0" type="curve" smooth="yes"/>
      <point x="937.0" y="-88.0"/>
      <point x="920.0" y="0.0"/>
      <point x="920.0" y="55.0" type="curve" smooth="yes"/>
      <point x="920.0" y="143.0"/>
      <point x="1003.0" y="202.0"/>
      <point x="1162.0" y="253.0" type="curve"/>
      <point x="1213.0" y="386.0"/>
      <point x="1227.0" y="485.0"/>
      <point x="1227.0" y="550.0" type="curve" smooth="yes"/>
      <point x="1227.0" y="789.0"/>
      <point x="1118.0" y="917.0"/>
      <point x="920.0" y="917.0" type="curve" smooth="yes"/>
      <point x="757.0" y="917.0"/>
      <point x="605.0" y="799.0"/>
      <point x="605.0" y="580.0" type="curve" smooth="yes"/>
      <point x="605.0" y="549.0"/>
      <point x="608.0" y="515.0"/>
      <point x="617.0" y="480.0" type="curve"/>
      <point x="734.0" y="496.0" type="line"/>
      <point x="731.0" y="519.0"/>
      <point x="729.0" y="540.0"/>
      <point x="729.0" y="562.0" type="curve" smooth="yes"/>
      <point x="729.0" y="713.0"/>
      <point x="811.0" y="799.0"/>
      <point x="925.0" y="799.0" type="curve" smooth="yes"/>
      <point x="1042.0" y="799.0"/>
      <point x="1105.0" y="714.0"/>
      <point x="1105.0" y="560.0" type="curve" smooth="yes"/>
      <point x="1105.0" y="482.0"/>
      <point x="1096.0" y="398.0"/>
      <point x="1046.0" y="277.0" type="curve"/>
      <point x="1100.0" y="333.0" type="line"/>
      <point x="894.0" y="274.0"/>
      <point x="801.0" y="168.0"/>
      <point x="801.0" y="53.0" type="curve"/>
      <point x="801.0" y="-49.0"/>
      <point x="860.0" y="-191.0"/>
    </contour>
    <contour>
      <point x="316.0" y="31.0" type="curve"/>
      <point x="412.0" y="107.0" type="line"/>
      <point x="315.0" y="231.0"/>
      <point x="200.0" y="406.0"/>
      <point x="200.0" y="592.0" type="curve" smooth="yes"/>
      <point x="200.0" y="745.0"/>
      <point x="286.0" y="801.0"/>
      <point x="385.0" y="801.0" type="curve" smooth="yes"/>
      <point x="506.0" y="801.0"/>
      <point x="579.0" y="721.0"/>
      <point x="636.0" y="591.0" type="curve"/>
      <point x="674.0" y="687.0" type="line"/>
      <point x="599.0" y="857.0"/>
      <point x="498.0" y="920.0"/>
      <point x="362.0" y="920.0" type="curve" smooth="yes"/>
      <point x="184.0" y="920.0"/>
      <point x="74.0" y="809.0"/>
      <point x="74.0" y="608.0" type="curve" smooth="yes"/>
      <point x="74.0" y="352.0"/>
      <point x="235.0" y="131.0"/>
    </contour>
    <contour>
      <point x="-12.0" y="1143.0" type="line"/>
      <point x="1316.0" y="1143.0" type="line"/>
      <point x="1316.0" y="1247.0" type="line"/>
      <point x="-12.0" y="1247.0" type="line"/>
    </contour>
    <contour>
      <point x="920.0" y="868.0" type="line"/>
      <point x="1047.0" y="868.0" type="line"/>
      <point x="1047.0" y="1191.0" type="line"/>
      <point x="920.0" y="1191.0" type="line"/>
    </contour>
  </outline>
</glyph>
<glyph name="gha-deva" format="2">
  <advance width="1188.0"/>
  <unicode hex="0918"/>
  <anchor x="910.0" y="0.0" name="bottom"/>
  <anchor x="854.0" y="1247.0" name="candra"/>
  <anchor x="297.0" y="44.0" name="nukta"/>
  <anchor x="913.0" y="1247.0" name="top"/>
  <outline>
    <contour>
      <point x="460.0" y="215.0" type="curve" smooth="yes"/>
      <point x="647.0" y="215.0"/>
      <point x="827.0" y="288.0"/>
      <point x="926.0" y="411.0" type="curve"/>
      <point x="905.0" y="543.0" type="line"/>
      <point x="801.0" y="405.0"/>
      <point x="630.0" y="329.0"/>
      <point x="471.0" y="329.0" type="curve" smooth="yes"/>
      <point x="328.0" y="329.0"/>
      <point x="260.0" y="388.0"/>
      <point x="260.0" y="511.0" type="curve" smooth="yes"/>
      <point x="260.0" y="642.0"/>
      <point x="339.0" y="696.0"/>
      <point x="517.0" y="715.0" type="curve"/>
      <point x="510.0" y="817.0" type="line"/>
      <point x="209.0" y="802.0"/>
      <point x="129.0" y="651.0"/>
      <point x="129.0" y="509.0" type="curve" smooth="yes"/>
      <point x="129.0" y="331.0"/>
      <point x="245.0" y="215.0"/>
    </contour>
    <contour>
      <point x="323.0" y="683.0" type="curve"/>
      <point x="384.0" y="742.0" type="line"/>
      <point x="274.0" y="796.0"/>
      <point x="200.0" y="863.0"/>
      <point x="200.0" y="975.0" type="curve" smooth="yes"/>
      <point x="200.0" y="1081.0"/>
      <point x="290.0" y="1141.0"/>
      <point x="435.0" y="1155.0" type="curve"/>
      <point x="449.0" y="1225.0" type="line"/>
      <point x="249.0" y="1228.0"/>
      <point x="72.0" y="1157.0"/>
      <point x="72.0" y="973.0" type="curve" smooth="yes"/>
      <point x="72.0" y="879.0"/>
      <point x="122.0" y="771.0"/>
    </contour>
    <contour>
      <point x="847.0" y="0.0" type="line"/>
      <point x="974.0" y="0.0" type="line"/>
      <point x="974.0" y="1191.0" type="line"/>
      <point x="847.0" y="1191.0" type="line"/>
    </contour>
    <contour>
      <point x="-12.0" y="1143.0" type="line"/>
      <point x="1201.0" y="1143.0" type="line"/>
      <point x="1201.0" y="1247.0" type="line"/>
      <point x="-12.0" y="1247.0" type="line"/>
    </contour>
  </outline>
</glyph>
<glyph name="ca-deva" format="2">
  <advance width="1220.0"/>
  <unicode hex="091A"/>
  <anchor x="944.0" y="0.0" name="bottom"/>
  <anchor x="870.0" y="1247.0" name="candra"/>
  <anchor x="329.0" y="44.0" name="nukta"/>
  <anchor x="942.0" y="1247.0" name="top"/>
  <outline>
    <contour>
      <point x="530.0" y="210.0" type="curve" smooth="yes"/>
      <point x="697.0" y="207.0"/>
      <point x="853.0" y="280.0"/>
      <point x="948.0" y="401.0" type="curve"/>
      <point x="926.0" y="526.0" type="line"/>
      <point x="816.0" y="381.0"/>
      <point x="679.0" y="316.0"/>
      <point x="539.0" y="320.0" type="curve" smooth="yes"/>
      <point x="379.0" y="326.0"/>
      <point x="314.0" y="415.0"/>
      <point x="314.0" y="543.0" type="curve" smooth="yes"/>
      <point x="314.0" y="701.0"/>
      <point x="437.0" y="799.0"/>
      <point x="615.0" y="791.0" type="curve"/>
      <point x="585.0" y="852.0" type="line"/>
      <point x="415.0" y="828.0" type="line"/>
      <point x="276.0" y="798.0"/>
      <point x="183.0" y="692.0"/>
      <point x="183.0" y="535.0" type="curve" smooth="yes"/>
      <point x="183.0" y="359.0"/>
      <point x="296.0" y="214.0"/>
    </contour>
    <contour>
      <point x="29.0" y="790.0" type="line"/>
      <point x="680.0" y="791.0" type="line"/>
      <point x="680.0" y="899.0" type="line"/>
      <point x="29.0" y="898.0" type="line"/>
    </contour>
    <contour>
      <point x="881.0" y="0.0" type="line"/>
      <point x="1007.0" y="0.0" type="line"/>
      <point x="1007.0" y="1193.0" type="line"/>
      <point x="881.0" y="1193.0" type="line"/>
    </contour>
    <contour>
      <point x="-12.0" y="1143.0" type="line"/>
      <point x="1233.0" y="1143.0" type="line"/>
      <point x="1233.0" y="1247.0" type="line"/>
      <point x="-12.0" y="1247.0" type="line"/>
    </contour>
  </outline>
</glyph>
<glyph name="jha-deva" format="2">
  <advance width="1483.0"/>
  <unicode hex="091D"/>
  <anchor x="125.0" y="-153.0" name="nukta"/>
  <anchor x="1206.0" y="0.0" name="bottom"/>
  <anchor x="442.0" y="1247.0" name="candra_1"/>
  <anchor x="1104.0" y="1247.0" name="candra_2"/>
  <anchor x="727.0" y="1247.0" name="top_1"/>
  <anchor x="1207.0" y="1247.0" name="top_2"/>
  <outline>
    <contour>
      <point x="842.0" y="434.0" type="line"/>
      <point x="948.0" y="421.0"/>
      <point x="1138.0" y="462.0"/>
      <point x="1202.0" y="522.0" type="curve"/>
      <point x="1189.0" y="642.0" type="line"/>
      <point x="1072.0" y="552.0"/>
      <point x="914.0" y="518.0"/>
      <point x="796.0" y="528.0" type="curve"/>
    </contour>
    <component base="i-deva"/>
    <component base="aaMatra-deva" xOffset="929.0"/>
  </outline>
</glyph>
<glyph name="nya-deva" format="2">
  <advance width="1455.0"/>
  <unicode hex="091E"/>
  <anchor x="1171.0" y="0.0" name="bottom"/>
  <anchor x="1168.0" y="1248.0" name="candra"/>
  <anchor x="218.0" y="44.0" name="nukta"/>
  <anchor x="1171.0" y="1247.0" name="top"/>
  <outline>
    <contour>
      <point x="554.0" y="211.0" type="curve" smooth="yes"/>
      <point x="778.0" y="211.0"/>
      <point x="899.0" y="349.0"/>
      <point x="899.0" y="568.0" type="curve" smooth="yes"/>
      <point x="899.0" y="782.0"/>
      <point x="770.0" y="909.0"/>
      <point x="563.0" y="909.0" type="curve" smooth="yes"/>
      <point x="507.0" y="909.0"/>
      <point x="459.0" y="903.0"/>
      <point x="403.0" y="881.0" type="curve"/>
      <point x="429.0" y="776.0" type="line"/>
      <point x="476.0" y="788.0"/>
      <point x="522.0" y="793.0"/>
      <point x="572.0" y="793.0" type="curve" smooth="yes"/>
      <point x="689.0" y="793.0"/>
      <point x="779.0" y="732.0"/>
      <point x="780.0" y="572.0" type="curve" smooth="yes"/>
      <point x="780.0" y="411.0"/>
      <point x="694.0" y="327.0"/>
      <point x="554.0" y="327.0" type="curve" smooth="yes"/>
      <point x="350.0" y="327.0"/>
      <point x="231.0" y="486.0"/>
      <point x="162.0" y="848.0" type="curve"/>
      <point x="57.0" y="825.0" type="line"/>
      <point x="133.0" y="370.0"/>
      <point x="327.0" y="211.0"/>
    </contour>
    <contour>
      <point x="833.0" y="527.0" type="line"/>
      <point x="928.0" y="510.0"/>
      <point x="1132.0" y="543.0"/>
      <point x="1209.0" y="615.0" type="curve"/>
      <point x="1202.0" y="741.0" type="line"/>
      <point x="1075.0" y="645.0"/>
      <point x="914.0" y="616.0"/>
      <point x="807.0" y="629.0" type="curve"/>
    </contour>
    <contour>
      <point x="1108.0" y="0.0" type="line"/>
      <point x="1234.0" y="0.0" type="line"/>
      <point x="1234.0" y="1191.0" type="line"/>
      <point x="1108.0" y="1191.0" type="line"/>
    </contour>
    <contour>
      <point x="-12.0" y="1143.0" type="line"/>
      <point x="1468.0" y="1143.0" type="line"/>
      <point x="1468.0" y="1247.0" type="line"/>
      <point x="-12.0" y="1247.0" type="line"/>
    </contour>
  </outline>
</glyph>
<glyph name="tta-deva" format="2">
  <advance width="1017.0"/>
  <unicode hex="091F"/>
  <anchor x="570.0" y="-53.0" name="bottom"/>
  <anchor x="728.0" y="1247.0" name="candra"/>
  <anchor x="564.0" y="-181.0" name="nukta"/>
  <anchor x="783.0" y="1247.0" name="top"/>
  <outline>
    <contour>
      <point x="569.0" y="36.0" type="curve" smooth="yes"/>
      <point x="715.0" y="36.0"/>
      <point x="871.0" y="72.0"/>
      <point x="973.0" y="135.0" type="curve"/>
      <point x="932.0" y="243.0" type="line"/>
      <point x="828.0" y="189.0"/>
      <point x="703.0" y="152.0"/>
      <point x="574.0" y="152.0" type="curve" smooth="yes"/>
      <point x="333.0" y="152.0"/>
      <point x="217.0" y="252.0"/>
      <point x="217.0" y="480.0" type="curve" smooth="yes"/>
      <point x="218.0" y="703.0"/>
      <point x="334.0" y="780.0"/>
      <point x="603.0" y="788.0" type="curve" smooth="yes"/>
      <point x="673.0" y="789.0"/>
      <point x="799.0" y="784.0"/>
      <point x="842.0" y="783.0" type="curve"/>
      <point x="842.0" y="1174.0" type="line"/>
      <point x="716.0" y="1174.0" type="line"/>
      <point x="716.0" y="843.0" type="line"/>
      <point x="752.0" y="888.0" type="line"/>
      <point x="694.0" y="898.0"/>
      <point x="605.0" y="901.0"/>
      <point x="564.0" y="901.0" type="curve" smooth="yes"/>
      <point x="237.0" y="901.0"/>
      <point x="85.0" y="751.0"/>
      <point x="85.0" y="483.0" type="curve" smooth="yes"/>
      <point x="85.0" y="169.0"/>
      <point x="302.0" y="36.0"/>
    </contour>
    <contour>
      <point x="-12.0" y="1143.0" type="line"/>
      <point x="1030.0" y="1143.0" type="line"/>
      <point x="1030.0" y="1247.0" type="line"/>
      <point x="-12.0" y="1247.0" type="line"/>
    </contour>
  </outline>
</glyph>
<glyph name="dda-deva" format="2">
  <advance width="986.0"/>
  <unicode hex="0921"/>
  <anchor x="515.0" y="-83.0" name="bottom"/>
  <anchor x="665.0" y="1247.0" name="candra"/>
  <anchor x="515.0" y="-217.0" name="nukta"/>
  <anchor x="728.0" y="1247.0" name="top"/>
  <outline>
    <contour>
      <point x="-12.0" y="1143.0" type="line"/>
      <point x="999.0" y="1143.0" type="line"/>
      <point x="999.0" y="1247.0" type="line"/>
      <point x="-12.0" y="1247.0" type="line"/>
    </contour>
    <contour>
      <point x="668.0" y="829.0" type="line"/>
      <point x="793.0" y="829.0" type="line"/>
      <point x="793.0" y="1186.0" type="line"/>
      <point x="668.0" y="1186.0" type="line"/>
    </contour>
    <contour>
      <point x="515.0" y="0.0" type="curve" smooth="yes"/>
      <point x="734.0" y="0.0"/>
      <point x="918.0" y="100.0"/>
      <point x="918.0" y="321.0" type="curve" smooth="yes"/>
      <point x="918.0" y="530.0"/>
      <point x="775.0" y="573.0"/>
      <point x="626.0" y="572.0" type="curve" smooth="yes"/>
      <point x="508.0" y="571.0"/>
      <point x="313.0" y="551.0"/>
      <point x="250.0" y="534.0" type="curve"/>
      <point x="281.0" y="518.0" type="line"/>
      <point x="237.0" y="568.0"/>
      <point x="217.0" y="647.0"/>
      <point x="217.0" y="706.0" type="curve" smooth="yes"/>
      <point x="217.0" y="782.0"/>
      <point x="245.0" y="829.0"/>
      <point x="378.0" y="829.0" type="curve" smooth="yes"/>
      <point x="746.0" y="829.0" type="line"/>
      <point x="732.0" y="941.0" type="line"/>
      <point x="345.0" y="941.0" type="line" smooth="yes"/>
      <point x="186.0" y="941.0"/>
      <point x="100.0" y="870.0"/>
      <point x="100.0" y="740.0" type="curve" smooth="yes"/>
      <point x="100.0" y="635.0"/>
      <point x="148.0" y="510.0"/>
      <point x="205.0" y="456.0" type="curve" smooth="yes"/>
      <point x="224.0" y="438.0"/>
      <point x="249.0" y="421.0"/>
      <point x="287.0" y="427.0" type="curve" smooth="yes"/>
      <point x="342.0" y="436.0"/>
      <point x="523.0" y="457.0"/>
      <point x="617.0" y="457.0" type="curve" smooth="yes"/>
      <point x="754.0" y="457.0"/>
      <point x="802.0" y="402.0"/>
      <point x="799.0" y="302.0" type="curve" smooth="yes"/>
      <point x="796.0" y="188.0"/>
      <point x="706.0" y="111.0"/>
      <point x="504.0" y="111.0" type="curve" smooth="yes"/>
      <point x="319.0" y="111.0"/>
      <point x="205.0" y="194.0"/>
      <point x="98.0" y="289.0" type="curve"/>
      <point x="39.0" y="217.0" type="line"/>
      <point x="163.0" y="80.0"/>
      <point x="316.0" y="0.0"/>
    </contour>
  </outline>
</glyph>
<glyph name="ddha-deva" format="2">
  <advance width="1069.0"/>
  <unicode hex="0922"/>
  <anchor x="576.0" y="-20.0" name="bottom"/>
  <anchor x="723.0" y="1247.0" name="candra"/>
  <anchor x="564.0" y="-168.0" name="nukta"/>
  <anchor x="779.0" y="1247.0" name="top"/>
  <outline>
    <contour>
      <point x="560.0" y="51.0" type="curve" smooth="yes"/>
      <point x="803.0" y="51.0"/>
      <point x="1006.0" y="149.0"/>
      <point x="1006.0" y="348.0" type="curve" smooth="yes"/>
      <point x="1006.0" y="497.0"/>
      <point x="907.0" y="573.0"/>
      <point x="761.0" y="573.0" type="curve" smooth="yes"/>
      <point x="602.0" y="573.0"/>
      <point x="537.0" y="472.0"/>
      <point x="537.0" y="380.0" type="curve" smooth="yes"/>
      <point x="537.0" y="264.0"/>
      <point x="601.0" y="195.0"/>
      <point x="692.0" y="133.0" type="curve"/>
      <point x="779.0" y="160.0" type="line"/>
      <point x="703.0" y="224.0"/>
      <point x="653.0" y="272.0"/>
      <point x="653.0" y="356.0" type="curve" smooth="yes"/>
      <point x="653.0" y="415.0"/>
      <point x="678.0" y="476.0"/>
      <point x="773.0" y="476.0" type="curve" smooth="yes"/>
      <point x="842.0" y="476.0"/>
      <point x="893.0" y="445.0"/>
      <point x="893.0" y="361.0" type="curve" smooth="yes"/>
      <point x="893.0" y="247.0"/>
      <point x="803.0" y="160.0"/>
      <point x="583.0" y="159.0" type="curve" smooth="yes"/>
      <point x="328.0" y="158.0"/>
      <point x="217.0" y="254.0"/>
      <point x="217.0" y="480.0" type="curve" smooth="yes"/>
      <point x="217.0" y="713.0"/>
      <point x="337.0" y="785.0"/>
      <point x="603.0" y="788.0" type="curve" smooth="yes"/>
      <point x="652.0" y="789.0"/>
      <point x="777.0" y="786.0"/>
      <point x="842.0" y="784.0" type="curve"/>
      <point x="842.0" y="1174.0" type="line"/>
      <point x="716.0" y="1174.0" type="line"/>
      <point x="716.0" y="849.0" type="line"/>
      <point x="774.0" y="888.0" type="line"/>
      <point x="706.0" y="899.0"/>
      <point x="625.0" y="900.0"/>
      <point x="564.0" y="901.0" type="curve" smooth="yes"/>
      <point x="237.0" y="901.0"/>
      <point x="85.0" y="761.0"/>
      <point x="85.0" y="490.0" type="curve" smooth="yes"/>
      <point x="85.0" y="188.0"/>
      <point x="290.0" y="51.0"/>
    </contour>
    <contour>
      <point x="-12.0" y="1143.0" type="line"/>
      <point x="1082.0" y="1143.0" type="line"/>
      <point x="1082.0" y="1247.0" type="line"/>
      <point x="-12.0" y="1247.0" type="line"/>
    </contour>
  </outline>
</glyph>
<glyph name="nna-deva" format="2">
  <advance width="1501.0"/>
  <unicode hex="0923"/>
  <anchor x="1226.0" y="0.0" name="bottom"/>
  <anchor x="1131.0" y="1247.0" name="candra"/>
  <anchor x="480.0" y="44.0" name="nukta"/>
  <anchor x="1224.0" y="1247.0" name="top"/>
  <outline>
    <contour>
      <point x="482.0" y="327.0" type="curve" smooth="yes"/>
      <point x="713.0" y="327.0"/>
      <point x="834.0" y="459.0"/>
      <point x="834.0" y="695.0" type="curve" smooth="yes"/>
      <point x="834.0" y="1180.0" type="line"/>
      <point x="708.0" y="1180.0" type="line"/>
      <point x="708.0" y="691.0" type="line" smooth="yes"/>
      <point x="708.0" y="534.0"/>
      <point x="651.0" y="439.0"/>
      <point x="480.0" y="439.0" type="curve" smooth="yes"/>
      <point x="317.0" y="439.0"/>
      <point x="260.0" y="527.0"/>
      <point x="260.0" y="692.0" type="curve" smooth="yes"/>
      <point x="260.0" y="1180.0" type="line"/>
      <point x="134.0" y="1180.0" type="line"/>
      <point x="134.0" y="700.0" type="line" smooth="yes"/>
      <point x="134.0" y="457.0"/>
      <point x="252.0" y="327.0"/>
    </contour>
    <contour>
      <point x="1161.0" y="0.0" type="line"/>
      <point x="1287.0" y="0.0" type="line"/>
      <point x="1287.0" y="1196.0" type="line"/>
      <point x="1161.0" y="1196.0" type="line"/>
    </contour>
    <contour>
      <point x="-12.0" y="1143.0" type="line"/>
      <point x="1514.0" y="1143.0" type="line"/>
      <point x="1514.0" y="1247.0" type="line"/>
      <point x="-12.0" y="1247.0" type="line"/>
    </contour>
  </outline>
</glyph>
<glyph name="tha-deva" format="2">
  <advance width="1209.0"/>
  <unicode hex="0925"/>
  <anchor x="932.0" y="0.0" name="bottom"/>
  <anchor x="861.0" y="1247.0" name="candra"/>
  <anchor x="202.0" y="111.0" name="nukta"/>
  <anchor x="932.0" y="1247.0" name="top"/>
  <outline>
    <contour>
      <point x="546.0" y="257.0" type="curve" smooth="yes"/>
      <point x="673.0" y="257.0"/>
      <point x="808.0" y="307.0"/>
      <point x="893.0" y="420.0" type="curve"/>
      <point x="880.0" y="565.0" type="line"/>
      <point x="787.0" y="419.0"/>
      <point x="659.0" y="373.0"/>
      <point x="549.0" y="373.0" type="curve" smooth="yes"/>
      <point x="397.0" y="373.0"/>
      <point x="264.0" y="462.0"/>
      <point x="225.0" y="650.0" type="curve"/>
      <point x="210.0" y="593.0" type="line"/>
      <point x="357.0" y="639.0"/>
      <point x="592.0" y="765.0"/>
      <point x="592.0" y="991.0" type="curve" smooth="yes"/>
      <point x="592.0" y="1120.0"/>
      <point x="511.0" y="1267.0"/>
      <point x="318.0" y="1267.0" type="curve" smooth="yes"/>
      <point x="150.0" y="1267.0"/>
      <point x="70.0" y="1171.0"/>
      <point x="74.0" y="1063.0" type="curve" smooth="yes"/>
      <point x="77.0" y="990.0"/>
      <point x="121.0" y="918.0"/>
      <point x="216.0" y="864.0" type="curve"/>
      <point x="268.0" y="928.0" type="line"/>
      <point x="207.0" y="977.0"/>
      <point x="185.0" y="1009.0"/>
      <point x="185.0" y="1055.0" type="curve" smooth="yes"/>
      <point x="185.0" y="1115.0"/>
      <point x="227.0" y="1165.0"/>
      <point x="318.0" y="1165.0" type="curve" smooth="yes"/>
      <point x="406.0" y="1165.0"/>
      <point x="468.0" y="1104.0"/>
      <point x="468.0" y="1002.0" type="curve" smooth="yes"/>
      <point x="468.0" y="831.0"/>
      <point x="290.0" y="730.0"/>
      <point x="104.0" y="673.0" type="curve"/>
      <point x="163.0" y="377.0"/>
      <point x="350.0" y="257.0"/>
    </contour>
    <contour>
      <point x="869.0" y="0.0" type="line"/>
      <point x="995.0" y="0.0" type="line"/>
      <point x="995.0" y="1182.0" type="line"/>
      <point x="869.0" y="1182.0" type="line"/>
    </contour>
    <contour>
      <point x="728.0" y="1143.0" type="line"/>
      <point x="1221.0" y="1143.0" type="line"/>
      <point x="1221.0" y="1247.0" type="line"/>
      <point x="728.0" y="1247.0" type="line"/>
    </contour>
  </outline>
</glyph>
<glyph name="pa-deva" format="2">
  <advance width="1165.0"/>
  <unicode hex="092A"/>
  <anchor x="889.0" y="0.0" name="bottom"/>
  <anchor x="799.0" y="1247.0" name="candra"/>
  <anchor x="335.0" y="128.0" name="nukta"/>
  <anchor x="888.0" y="1247.0" name="top"/>
  <outline>
    <contour>
      <point x="510.0" y="317.0" type="curve" smooth="yes"/>
      <point x="630.0" y="317.0"/>
      <point x="776.0" y="375.0"/>
      <point x="866.0" y="490.0" type="curve"/>
      <point x="850.0" y="623.0" type="line"/>
      <point x="752.0" y="490.0"/>
      <point x="629.0" y="431.0"/>
      <point x="516.0" y="430.0" type="curve" smooth="yes"/>
      <point x="343.0" y="429.0"/>
      <point x="291.0" y="519.0"/>
      <point x="291.0" y="667.0" type="curve" smooth="yes"/>
      <point x="291.0" y="1178.0" type="line"/>
      <point x="164.0" y="1178.0" type="line"/>
      <point x="164.0" y="685.0" type="line" smooth="yes"/>
      <point x="164.0" y="441.0"/>
      <point x="275.0" y="317.0"/>
    </contour>
    <contour>
      <point x="825.0" y="0.0" type="line"/>
      <point x="951.0" y="0.0" type="line"/>
      <point x="951.0" y="1191.0" type="line"/>
      <point x="825.0" y="1191.0" type="line"/>
    </contour>
    <contour>
      <point x="-13.0" y="1143.0" type="line"/>
      <point x="1178.0" y="1143.0" type="line"/>
      <point x="1178.0" y="1247.0" type="line"/>
      <point x="-13.0" y="1247.0" type="line"/>
    </contour>
  </outline>
</glyph>
<glyph name="pha-deva" format="2">
  <advance width="1565.0"/>
  <unicode hex="092B"/>
  <anchor x="830.0" y="0.0" name="bottom"/>
  <anchor x="821.0" y="1247.0" name="candra"/>
  <anchor x="370.0" y="88.0" name="nukta"/>
  <anchor x="830.0" y="1247.0" name="top"/>
  <outline>
    <contour>
      <point x="489.0" y="332.0" type="curve" smooth="yes"/>
      <point x="604.0" y="332.0"/>
      <point x="753.0" y="391.0"/>
      <point x="843.0" y="515.0" type="curve"/>
      <point x="827.0" y="639.0" type="line"/>
      <point x="729.0" y="507.0"/>
      <point x="605.0" y="447.0"/>
      <point x="495.0" y="446.0" type="curve" smooth="yes"/>
      <point x="344.0" y="445.0"/>
      <point x="292.0" y="534.0"/>
      <point x="292.0" y="683.0" type="curve" smooth="yes"/>
      <point x="292.0" y="1186.0" type="line"/>
      <point x="165.0" y="1186.0" type="line"/>
      <point x="165.0" y="700.0" type="line" smooth="yes"/>
      <point x="165.0" y="457.0"/>
      <point x="276.0" y="332.0"/>
    </contour>
    <contour>
      <point x="767.0" y="0.0" type="line"/>
      <point x="893.0" y="0.0" type="line"/>
      <point x="893.0" y="1191.0" type="line"/>
      <point x="767.0" y="1191.0" type="line"/>
    </contour>
    <contour>
      <point x="1343.0" y="168.0" type="line"/>
      <point x="1450.0" y="300.0"/>
      <point x="1489.0" y="440.0"/>
      <point x="1489.0" y="555.0" type="curve" smooth="yes"/>
      <point x="1489.0" y="736.0"/>
      <point x="1388.0" y="861.0"/>
      <point x="1223.0" y="861.0" type="curve" smooth="yes"/>
      <point x="1100.0" y="861.0"/>
      <point x="990.0" y="805.0"/>
      <point x="890.0" y="683.0" type="curve"/>
      <point x="882.0" y="509.0" type="line"/>
      <point x="1004.0" y="669.0"/>
      <point x="1112.0" y="747.0"/>
      <point x="1215.0" y="747.0" type="curve" smooth="yes"/>
      <point x="1319.0" y="747.0"/>
      <point x="1371.0" y="676.0"/>
      <point x="1371.0" y="560.0" type="curve" smooth="yes"/>
      <point x="1371.0" y="468.0"/>
      <point x="1334.0" y="357.0"/>
      <point x="1244.0" y="236.0" type="curve"/>
    </contour>
    <contour>
      <point x="-12.0" y="1143.0" type="line"/>
      <point x="1578.0" y="1143.0" type="line"/>
      <point x="1578.0" y="1247.0" type="line"/>
      <point x="-12.0" y="1247.0" type="line"/>
    </contour>
  </outline>
</glyph>
<glyph name="ba-deva" format="2">
  <advance width="1103.0"/>
  <unicode hex="092C"/>
  <anchor x="826.0" y="0.0" name="bottom"/>
  <anchor x="743.0" y="1247.0" name="candra"/>
  <anchor x="248.0" y="44.0" name="nukta"/>
  <anchor x="826.0" y="1247.0" name="top"/>
  <outline>
    <contour>
      <point x="436.0" y="209.0" type="curve" smooth="yes"/>
      <point x="588.0" y="209.0"/>
      <point x="717.0" y="262.0"/>
      <point x="816.0" y="374.0" type="curve"/>
      <point x="803.0" y="482.0" type="line"/>
      <point x="698.0" y="371.0"/>
      <point x="596.0" y="312.0"/>
      <point x="435.0" y="312.0" type="curve" smooth="yes"/>
      <point x="283.0" y="312.0"/>
      <point x="212.0" y="390.0"/>
      <point x="212.0" y="574.0" type="curve" smooth="yes"/>
      <point x="212.0" y="764.0"/>
      <point x="277.0" y="824.0"/>
      <point x="448.0" y="830.0" type="curve" smooth="yes"/>
      <point x="567.0" y="834.0"/>
      <point x="674.0" y="815.0"/>
      <point x="811.0" y="754.0" type="curve"/>
      <point x="805.0" y="855.0" type="line"/>
      <point x="676.0" y="912.0"/>
      <point x="570.0" y="933.0"/>
      <point x="460.0" y="933.0" type="curve" smooth="yes"/>
      <point x="217.0" y="933.0"/>
      <point x="87.0" y="813.0"/>
      <point x="87.0" y="576.0" type="curve" smooth="yes"/>
      <point x="87.0" y="320.0"/>
      <point x="235.0" y="209.0"/>
    </contour>
    <contour>
      <point x="695.0" y="316.0" type="line"/>
      <point x="758.0" y="384.0" type="line"/>
      <point x="284.0" y="867.0" type="line"/>
      <point x="220.0" y="798.0" type="line"/>
    </contour>
    <contour>
      <point x="763.0" y="0.0" type="line"/>
      <point x="889.0" y="0.0" type="line"/>
      <point x="889.0" y="1193.0" type="line"/>
      <point x="763.0" y="1193.0" type="line"/>
    </contour>
    <contour>
      <point x="-12.0" y="1143.0" type="line"/>
      <point x="1116.0" y="1143.0" type="line"/>
      <point x="1116.0" y="1247.0" type="line"/>
      <point x="-12.0" y="1247.0" type="line"/>
    </contour>
  </outline>
</glyph>
<glyph name="ya-deva" format="2">
  <advance width="1139.0"/>
  <unicode hex="092F"/>
  <anchor x="863.0" y="0.0" name="bottom"/>
  <anchor x="777.0" y="1247.0" name="candra"/>
  <anchor x="196.0" y="64.0" name="nukta"/>
  <anchor x="863.0" y="1247.0" name="top"/>
  <outline>
    <contour>
      <point x="481.0" y="269.0" type="curve" smooth="yes"/>
      <point x="604.0" y="269.0"/>
      <point x="746.0" y="324.0"/>
      <point x="831.0" y="432.0" type="curve"/>
      <point x="834.0" y="597.0" type="line"/>
      <point x="747.0" y="454.0"/>
      <point x="619.0" y="384.0"/>
      <point x="477.0" y="384.0" type="curve" smooth="yes"/>
      <point x="330.0" y="384.0"/>
      <point x="247.0" y="458.0"/>
      <point x="185.0" y="650.0" type="curve"/>
      <point x="140.0" y="581.0" type="line"/>
      <point x="367.0" y="660.0"/>
      <point x="445.0" y="779.0"/>
      <point x="445.0" y="894.0" type="curve" smooth="yes"/>
      <point x="445.0" y="971.0"/>
      <point x="408.0" y="1064.0"/>
      <point x="329.0" y="1160.0" type="curve"/>
      <point x="193.0" y="1156.0" type="line"/>
      <point x="268.0" y="1075.0"/>
      <point x="315.0" y="972.0"/>
      <point x="315.0" y="908.0" type="curve" smooth="yes"/>
      <point x="315.0" y="820.0"/>
      <point x="248.0" y="739.0"/>
      <point x="55.0" y="670.0" type="curve"/>
      <point x="109.0" y="417.0"/>
      <point x="255.0" y="269.0"/>
    </contour>
    <contour>
      <point x="800.0" y="0.0" type="line"/>
      <point x="926.0" y="0.0" type="line"/>
      <point x="926.0" y="1199.0" type="line"/>
      <point x="800.0" y="1199.0" type="line"/>
    </contour>
    <contour>
      <point x="-12.0" y="1143.0" type="line"/>
      <point x="1152.0" y="1143.0" type="line"/>
      <point x="1152.0" y="1247.0" type="line"/>
      <point x="-12.0" y="1247.0" type="line"/>
    </contour>
  </outline>
</glyph>
<glyph name="ra-deva" format="2">
  <advance width="650.0"/>
  <unicode hex="0930"/>
  <anchor x="479.0" y="31.0" name="bottom"/>
  <anchor x="450.0" y="1248.0" name="candra"/>
  <anchor x="121.0" y="163.0" name="nukta"/>
  <anchor x="411.0" y="1247.0" name="top"/>
  <outline>
    <contour>
      <point x="478.0" y="-26.0" type="line"/>
      <point x="578.0" y="47.0" type="line"/>
      <point x="178.0" y="623.0" type="line"/>
      <point x="141.0" y="617.0" type="line"/>
      <point x="163.0" y="588.0"/>
      <point x="223.0" y="568.0"/>
      <point x="275.0" y="568.0" type="curve" smooth="yes"/>
      <point x="400.0" y="568.0"/>
      <point x="477.0" y="644.0"/>
      <point x="477.0" y="824.0" type="curve" smooth="yes"/>
      <point x="477.0" y="1192.0" type="line"/>
      <point x="351.0" y="1191.0" type="line"/>
      <point x="351.0" y="818.0" type="line" smooth="yes"/>
      <point x="351.0" y="718.0"/>
      <point x="324.0" y="667.0"/>
      <point x="237.0" y="667.0" type="curve" smooth="yes"/>
      <point x="202.0" y="667.0"/>
      <point x="156.0" y="678.0"/>
      <point x="117.0" y="707.0" type="curve"/>
      <point x="39.0" y="643.0" type="line"/>
    </contour>
    <contour>
      <point x="-12.0" y="1143.0" type="line"/>
      <point x="663.0" y="1143.0" type="line"/>
      <point x="663.0" y="1247.0" type="line"/>
      <point x="-12.0" y="1247.0" type="line"/>
    </contour>
  </outline>
</glyph>
<glyph name="la-deva" format="2">
  <advance width="1404.0"/>
  <unicode hex="0932"/>
  <anchor x="1127.0" y="0.0" name="bottom"/>
  <anchor x="988.0" y="1247.0" name="candra"/>
  <anchor x="81.0" y="44.0" name="nukta"/>
  <anchor x="1127.0" y="1247.0" name="top"/>
  <outline>
    <contour>
      <point x="350.0" y="-21.0" type="curve"/>
      <point x="446.0" y="54.0" type="line"/>
      <point x="335.0" y="194.0"/>
      <point x="208.0" y="393.0"/>
      <point x="208.0" y="587.0" type="curve" smooth="yes"/>
      <point x="208.0" y="745.0"/>
      <point x="294.0" y="800.0"/>
      <point x="398.0" y="800.0" type="curve" smooth="yes"/>
      <point x="519.0" y="800.0"/>
      <point x="592.0" y="720.0"/>
      <point x="648.0" y="598.0" type="curve"/>
      <point x="687.0" y="687.0" type="line"/>
      <point x="613.0" y="857.0"/>
      <point x="511.0" y="920.0"/>
      <point x="375.0" y="920.0" type="curve" smooth="yes"/>
      <point x="192.0" y="920.0"/>
      <point x="82.0" y="809.0"/>
      <point x="82.0" y="608.0" type="curve" smooth="yes"/>
      <point x="82.0" y="352.0"/>
      <point x="255.0" y="93.0"/>
    </contour>
    <contour>
      <point x="599.0" y="475.0" type="curve"/>
      <point x="716.0" y="491.0" type="line"/>
      <point x="713.0" y="514.0"/>
      <point x="711.0" y="535.0"/>
      <point x="711.0" y="557.0" type="curve" smooth="yes"/>
      <point x="711.0" y="708.0"/>
      <point x="793.0" y="794.0"/>
      <point x="914.0" y="794.0" type="curve" smooth="yes"/>
      <point x="1009.0" y="794.0"/>
      <point x="1065.0" y="749.0"/>
      <point x="1098.0" y="690.0" type="curve"/>
      <point x="1114.0" y="777.0" type="line"/>
      <point x="1078.0" y="865.0"/>
      <point x="979.0" y="911.0"/>
      <point x="893.0" y="911.0" type="curve" smooth="yes"/>
      <point x="739.0" y="911.0"/>
      <point x="587.0" y="794.0"/>
      <point x="587.0" y="574.0" type="curve" smooth="yes"/>
      <point x="587.0" y="544.0"/>
      <point x="590.0" y="510.0"/>
    </contour>
    <contour>
      <point x="1064.0" y="0.0" type="line"/>
      <point x="1190.0" y="0.0" type="line"/>
      <point x="1190.0" y="1190.0" type="line"/>
      <point x="1064.0" y="1190.0" type="line"/>
    </contour>
    <contour>
      <point x="-12.0" y="1143.0" type="line"/>
      <point x="1417.0" y="1143.0" type="line"/>
      <point x="1417.0" y="1247.0" type="line"/>
      <point x="-12.0" y="1247.0" type="line"/>
    </contour>
  </outline>
</glyph>
<glyph name="lla-deva" format="2">
  <advance width="1507.0"/>
  <unicode hex="0933"/>
  <anchor x="1132.0" y="90.0" name="bottom"/>
  <anchor x="1068.0" y="1247.0" name="candra"/>
  <anchor x="739.0" y="98.0" name="nukta"/>
  <anchor x="1124.0" y="1247.0" name="top"/>
  <outline>
    <contour>
      <point x="388.0" y="166.0" type="curve" smooth="yes"/>
      <point x="569.0" y="166.0"/>
      <point x="642.0" y="248.0"/>
      <point x="805.0" y="505.0" type="curve" smooth="yes"/>
      <point x="930.0" y="717.0"/>
      <point x="1007.0" y="818.0"/>
      <point x="1124.0" y="818.0" type="curve" smooth="yes"/>
      <point x="1245.0" y="818.0"/>
      <point x="1301.0" y="728.0"/>
      <point x="1301.0" y="564.0" type="curve" smooth="yes"/>
      <point x="1301.0" y="376.0"/>
      <point x="1221.0" y="278.0"/>
      <point x="1075.0" y="278.0" type="curve" smooth="yes"/>
      <point x="934.0" y="278.0"/>
      <point x="859.0" y="365.0"/>
      <point x="778.0" y="490.0" type="curve"/>
      <point x="715.0" y="406.0" type="line"/>
      <point x="801.0" y="277.0"/>
      <point x="900.0" y="168.0"/>
      <point x="1094.0" y="168.0" type="curve" smooth="yes"/>
      <point x="1313.0" y="168.0"/>
      <point x="1429.0" y="302.0"/>
      <point x="1429.0" y="562.0" type="curve" smooth="yes"/>
      <point x="1429.0" y="818.0"/>
      <point x="1301.0" y="930.0"/>
      <point x="1119.0" y="930.0" type="curve" smooth="yes"/>
      <point x="924.0" y="930.0"/>
      <point x="843.0" y="804.0"/>
      <point x="734.0" y="623.0" type="curve" smooth="yes"/>
      <point x="621.0" y="428.0"/>
      <point x="534.0" y="280.0"/>
      <point x="393.0" y="280.0" type="curve" smooth="yes"/>
      <point x="264.0" y="280.0"/>
      <point x="212.0" y="355.0"/>
      <point x="212.0" y="546.0" type="curve" smooth="yes"/>
      <point x="212.0" y="727.0"/>
      <point x="288.0" y="822.0"/>
      <point x="438.0" y="822.0" type="curve" smooth="yes"/>
      <point x="571.0" y="822.0"/>
      <point x="661.0" y="747.0"/>
      <point x="750.0" y="603.0" type="curve"/>
      <point x="809.0" y="676.0" type="line"/>
      <point x="693.0" y="881.0"/>
      <point x="579.0" y="932.0"/>
      <point x="427.0" y="932.0" type="curve" smooth="yes"/>
      <point x="202.0" y="932.0"/>
      <point x="83.0" y="800.0"/>
      <point x="83.0" y="549.0" type="curve" smooth="yes"/>
      <point x="83.0" y="304.0"/>
      <point x="192.0" y="166.0"/>
    </contour>
    <contour>
      <point x="-13.0" y="1143.0" type="line"/>
      <point x="1519.0" y="1143.0" type="line"/>
      <point x="1519.0" y="1247.0" type="line"/>
      <point x="-13.0" y="1247.0" type="line"/>
    </contour>
    <contour>
      <point x="1062.0" y="884.0" type="line"/>
      <point x="1187.0" y="884.0" type="line"/>
      <point x="1187.0" y="1196.0" type="line"/>
      <point x="1062.0" y="1196.0" type="line"/>
    </contour>
  </outline>
</glyph>
<glyph name="va-deva" format="2">
  <advance width="1088.0"/>
  <unicode hex="0935"/>
  <anchor x="811.0" y="0.0" name="bottom"/>
  <anchor x="744.0" y="1247.0" name="candra"/>
  <anchor x="106.0" y="75.0" name="nukta"/>
  <anchor x="811.0" y="1247.0" name="top"/>
  <outline>
    <contour>
      <point x="425.0" y="219.0" type="curve" smooth="yes"/>
      <point x="571.0" y="219.0"/>
      <point x="701.0" y="276.0"/>
      <point x="796.0" y="383.0" type="curve"/>
      <point x="778.0" y="493.0" type="line"/>
      <point x="682.0" y="391.0"/>
      <point x="577.0" y="329.0"/>
      <point x="427.0" y="329.0" type="curve" smooth="yes"/>
      <point x="292.0" y="329.0"/>
      <point x="208.0" y="385.0"/>
      <point x="208.0" y="566.0" type="curve" smooth="yes"/>
      <point x="208.0" y="746.0"/>
      <point x="293.0" y="814.0"/>
      <point x="466.0" y="815.0" type="curve" smooth="yes"/>
      <point x="557.0" y="816.0"/>
      <point x="669.0" y="796.0"/>
      <point x="791.0" y="741.0" type="curve"/>
      <point x="791.0" y="838.0" type="line"/>
      <point x="672.0" y="896.0"/>
      <point x="555.0" y="926.0"/>
      <point x="448.0" y="926.0" type="curve" smooth="yes"/>
      <point x="203.0" y="926.0"/>
      <point x="78.0" y="807.0"/>
      <point x="78.0" y="576.0" type="curve" smooth="yes"/>
      <point x="78.0" y="329.0"/>
      <point x="223.0" y="219.0"/>
    </contour>
    <contour>
      <point x="748.0" y="0.0" type="line"/>
      <point x="874.0" y="0.0" type="line"/>
      <point x="874.0" y="1196.0" type="line"/>
      <point x="748.0" y="1196.0" type="line"/>
    </contour>
    <contour>
      <point x="-52.0" y="1143.0" type="line"/>
      <point x="1101.0" y="1143.0" type="line"/>
      <point x="1101.0" y="1247.0" type="line"/>
      <point x="-52.0" y="1247.0" type="line"/>
    </contour>
  </outline>
</glyph>
<glyph name="sha-deva" format="2">
  <advance width="1280.0"/>
  <unicode hex="0936"/>
  <anchor x="1003.0" y="0.0" name="bottom"/>
  <anchor x="933.0" y="1247.0" name="candra"/>
  <anchor x="273.0" y="44.0" name="nukta"/>
  <anchor x="1003.0" y="1247.0" name="top"/>
  <outline>
    <contour>
      <point x="268.0" y="450.0" type="line"/>
      <point x="529.0" y="555.0"/>
      <point x="709.0" y="710.0"/>
      <point x="709.0" y="960.0" type="curve" smooth="yes"/>
      <point x="709.0" y="1115.0"/>
      <point x="618.0" y="1268.0"/>
      <point x="379.0" y="1268.0" type="curve" smooth="yes"/>
      <point x="179.0" y="1268.0"/>
      <point x="82.0" y="1160.0"/>
      <point x="86.0" y="1036.0" type="curve" smooth="yes"/>
      <point x="89.0" y="949.0"/>
      <point x="136.0" y="868.0"/>
      <point x="259.0" y="802.0" type="curve"/>
      <point x="315.0" y="877.0" type="line"/>
      <point x="230.0" y="933.0"/>
      <point x="203.0" y="975.0"/>
      <point x="203.0" y="1029.0" type="curve" smooth="yes"/>
      <point x="203.0" y="1114.0"/>
      <point x="268.0" y="1163.0"/>
      <point x="382.0" y="1163.0" type="curve" smooth="yes"/>
      <point x="537.0" y="1163.0"/>
      <point x="583.0" y="1062.0"/>
      <point x="583.0" y="955.0" type="curve" smooth="yes"/>
      <point x="583.0" y="747.0"/>
      <point x="438.0" y="628.0"/>
      <point x="178.0" y="521.0" type="curve"/>
    </contour>
    <contour>
      <point x="610.0" y="-20.0" type="line"/>
      <point x="707.0" y="60.0" type="line"/>
      <point x="286.0" y="551.0" type="line"/>
      <point x="201.0" y="513.0" type="line"/>
    </contour>
    <contour>
      <point x="172.0" y="430.0" type="curve" smooth="yes"/>
      <point x="212.0" y="430.0"/>
      <point x="259.0" y="440.0"/>
      <point x="339.0" y="480.0" type="curve"/>
      <point x="329.0" y="506.0" type="line"/>
      <point x="190.0" y="674.0" type="line"/>
      <point x="107.0" y="674.0" type="line"/>
      <point x="74.0" y="615.0"/>
      <point x="65.0" y="565.0"/>
      <point x="64.0" y="536.0" type="curve" smooth="yes"/>
      <point x="63.0" y="466.0"/>
      <point x="116.0" y="430.0"/>
    </contour>
    <contour>
      <point x="940.0" y="0.0" type="line"/>
      <point x="1066.0" y="0.0" type="line"/>
      <point x="1066.0" y="1191.0" type="line"/>
      <point x="940.0" y="1191.0" type="line"/>
    </contour>
    <contour>
      <point x="763.0" y="1143.0" type="line"/>
      <point x="1293.0" y="1143.0" type="line"/>
      <point x="1293.0" y="1247.0" type="line"/>
      <point x="763.0" y="1247.0" type="line"/>
    </contour>
  </outline>
</glyph>
<glyph name="nukta-deva" format="2">
  <unicode hex="093C"/>
  <anchor x="277.0" y="-152.0" name="_nukta"/>
  <anchor x="277.0" y="-328.0" name="bottom"/>
  <outline>
    <contour>
      <point x="277.0" y="-71.0" type="curve" smooth="yes"/>
      <point x="220.0" y="-71.0"/>
      <point x="195.0" y="-95.0"/>
      <point x="195.0" y="-152.0" type="curve" smooth="yes"/>
      <point x="195.0" y="-208.0"/>
      <point x="220.0" y="-232.0"/>
      <point x="277.0" y="-232.0" type="curve" smooth="yes"/>
      <point x="334.0" y="-232.0"/>
      <point x="358.0" y="-208.0"/>
      <point x="358.0" y="-152.0" type="curve" smooth="yes"/>
      <point x="358.0" y="-95.0"/>
      <point x="334.0" y="-71.0"/>
    </contour>
  </outline>
</glyph>
<glyph name="avagraha-deva" format="2">
  <advance width="746.0"/>
  <unicode hex="093D"/>
  <outline>
    <contour>
      <point x="391.0" y="-67.0" type="curve" smooth="yes"/>
      <point x="666.0" y="-67.0"/>
      <point x="762.0" y="109.0"/>
      <point x="762.0" y="268.0" type="curve" smooth="yes"/>
      <point x="762.0" y="433.0"/>
      <point x="648.0" y="532.0"/>
      <point x="469.0" y="655.0" type="curve" smooth="yes"/>
      <point x="245.0" y="809.0"/>
      <point x="179.0" y="864.0"/>
      <point x="176.0" y="972.0" type="curve" smooth="yes"/>
      <point x="172.0" y="1083.0"/>
      <point x="243.0" y="1143.0"/>
      <point x="366.0" y="1143.0" type="curve" smooth="yes"/>
      <point x="748.0" y="1143.0" type="line"/>
      <point x="748.0" y="1247.0" type="line"/>
      <point x="353.0" y="1247.0" type="line" smooth="yes"/>
      <point x="160.0" y="1247.0"/>
      <point x="53.0" y="1155.0"/>
      <point x="53.0" y="978.0" type="curve" smooth="yes"/>
      <point x="53.0" y="809.0"/>
      <point x="177.0" y="717.0"/>
      <point x="328.0" y="611.0" type="curve" smooth="yes"/>
      <point x="507.0" y="484.0"/>
      <point x="639.0" y="411.0"/>
      <point x="638.0" y="261.0" type="curve" smooth="yes"/>
      <point x="638.0" y="133.0"/>
      <point x="566.0" y="44.0"/>
      <point x="392.0" y="44.0" type="curve" smooth="yes"/>
      <point x="254.0" y="44.0"/>
      <point x="149.0" y="93.0"/>
      <point x="34.0" y="157.0" type="curve"/>
      <point x="-18.0" y="72.0" type="line"/>
      <point x="90.0" y="-17.0"/>
      <point x="244.0" y="-67.0"/>
    </contour>
  </outline>
</glyph>
<glyph name="aaMatra-deva" format="2">
  <advance width="554.0"/>
  <unicode hex="093E"/>
  <anchor x="277.0" y="0.0" name="bottom"/>
  <anchor x="175.0" y="1247.0" name="candra"/>
  <anchor x="278.0" y="1247.0" name="top"/>
  <outline>
    <contour>
      <point x="214.0" y="0.0" type="line"/>
      <point x="341.0" y="0.0" type="line"/>
      <point x="341.0" y="1193.0" type="line"/>
      <point x="214.0" y="1193.0" type="line"/>
    </contour>
    <contour>
      <point x="-12.0" y="1143.0" type="line"/>
      <point x="567.0" y="1143.0" type="line"/>
      <point x="567.0" y="1247.0" type="line"/>
      <point x="-12.0" y="1247.0" type="line"/>
    </contour>
  </outline>
</glyph>
<glyph name="iiMatra-deva" format="2">
  <advance width="568.0"/>
  <unicode hex="0940"/>
  <anchor x="537.0" y="1347.0" name="candra"/>
  <anchor x="-235.0" y="1168.0" name="iimatra"/>
  <anchor x="326.0" y="1247.0" name="top"/>
  <outline>
    <contour>
      <point x="256.0" y="1155.0" type="curve"/>
      <point x="337.0" y="1209.0" type="line"/>
      <point x="242.0" y="1560.0"/>
      <point x="26.0" y="1766.0"/>
      <point x="-198.0" y="1766.0" type="curve" smooth="yes"/>
      <point x="-355.0" y="1766.0"/>
      <point x="-406.0" y="1659.0"/>
      <point x="-406.0" y="1569.0" type="curve" smooth="yes"/>
      <point x="-405.0" y="1484.0"/>
      <point x="-358.0" y="1392.0"/>
      <point x="-277.0" y="1335.0" type="curve"/>
      <point x="-220.0" y="1398.0" type="line"/>
      <point x="-268.0" y="1440.0"/>
      <point x="-300.0" y="1493.0"/>
      <point x="-300.0" y="1550.0" type="curve" smooth="yes"/>
      <point x="-301.0" y="1617.0"/>
      <point x="-261.0" y="1658.0"/>
      <point x="-185.0" y="1658.0" type="curve" smooth="yes"/>
      <point x="-14.0" y="1658.0"/>
      <point x="183.0" y="1434.0"/>
    </contour>
    <contour>
      <point x="221.0" y="0.0" type="line"/>
      <point x="347.0" y="0.0" type="line"/>
      <point x="347.0" y="1204.0" type="line"/>
      <point x="221.0" y="1204.0" type="line"/>
    </contour>
    <contour>
      <point x="-12.0" y="1143.0" type="line"/>
      <point x="581.0" y="1143.0" type="line"/>
      <point x="581.0" y="1247.0" type="line"/>
      <point x="-12.0" y="1247.0" type="line"/>
    </contour>
  </outline>
</glyph>
<glyph name="uMatra-deva" format="2">
  <unicode hex="0941"/>
  <anchor x="206.0" y="0.0" name="_bottom"/>
  <outline>
    <contour>
      <point x="178.0" y="-509.0" type="curve" smooth="yes"/>
      <point x="370.0" y="-509.0"/>
      <point x="481.0" y="-396.0"/>
      <point x="481.0" y="-244.0" type="curve" smooth="yes"/>
      <point x="481.0" y="-108.0"/>
      <point x="386.0" y="8.0"/>
      <point x="206.0" y="8.0" type="curve" smooth="yes"/>
      <point x="156.0" y="8.0"/>
      <point x="87.0" y="-2.0"/>
      <point x="15.0" y="-37.0" type="curve"/>
      <point x="48.0" y="-134.0" type="line"/>
      <point x="112.0" y="-108.0"/>
      <point x="164.0" y="-100.0"/>
      <point x="206.0" y="-100.0" type="curve" smooth="yes"/>
      <point x="296.0" y="-100.0"/>
      <point x="361.0" y="-133.0"/>
      <point x="361.0" y="-244.0" type="curve" smooth="yes"/>
      <point x="361.0" y="-337.0"/>
      <point x="299.0" y="-399.0"/>
      <point x="178.0" y="-399.0" type="curve" smooth="yes"/>
      <point x="50.0" y="-399.0"/>
      <point x="-65.0" y="-358.0"/>
      <point x="-235.0" y="-160.0" type="curve"/>
      <point x="-298.0" y="-223.0" type="line"/>
      <point x="-112.0" y="-457.0"/>
      <point x="35.0" y="-509.0"/>
    </contour>
  </outline>
</glyph>
<glyph name="uuMatra-deva" format="2">
  <unicode hex="0942"/>
  <anchor x="264.0" y="0.0" name="_bottom"/>
  <outline>
    <contour>
      <point x="266.0" y="-503.0" type="curve" smooth="yes"/>
      <point x="317.0" y="-503.0"/>
      <point x="385.0" y="-494.0"/>
      <point x="457.0" y="-459.0" type="curve"/>
      <point x="424.0" y="-362.0" type="line"/>
      <point x="361.0" y="-388.0"/>
      <point x="309.0" y="-396.0"/>
      <point x="266.0" y="-396.0" type="curve" smooth="yes"/>
      <point x="176.0" y="-396.0"/>
      <point x="111.0" y="-364.0"/>
      <point x="111.0" y="-252.0" type="curve" smooth="yes"/>
      <point x="111.0" y="-158.0"/>
      <point x="174.0" y="-96.0"/>
      <point x="294.0" y="-96.0" type="curve" smooth="yes"/>
      <point x="423.0" y="-96.0"/>
      <point x="537.0" y="-137.0"/>
      <point x="708.0" y="-335.0" type="curve"/>
      <point x="770.0" y="-273.0" type="line"/>
      <point x="584.0" y="-39.0"/>
      <point x="437.0" y="14.0"/>
      <point x="294.0" y="14.0" type="curve" smooth="yes"/>
      <point x="103.0" y="14.0"/>
      <point x="-9.0" y="-99.0"/>
      <point x="-9.0" y="-251.0" type="curve" smooth="yes"/>
      <point x="-9.0" y="-388.0"/>
      <point x="87.0" y="-503.0"/>
    </contour>
  </outline>
</glyph>
<glyph name="rVocalicMatra-deva" format="2">
  <unicode hex="0943"/>
  <anchor x="247.0" y="0.0" name="_bottom"/>
  <outline>
    <contour>
      <point x="253.0" y="-452.0" type="curve" smooth="yes"/>
      <point x="363.0" y="-452.0"/>
      <point x="462.0" y="-409.0"/>
      <point x="535.0" y="-354.0" type="curve"/>
      <point x="486.0" y="-266.0" type="line"/>
      <point x="425.0" y="-310.0"/>
      <point x="341.0" y="-347.0"/>
      <point x="261.0" y="-349.0" type="curve" smooth="yes"/>
      <point x="171.0" y="-351.0"/>
      <point x="109.0" y="-307.0"/>
      <point x="109.0" y="-224.0" type="curve" smooth="yes"/>
      <point x="109.0" y="-129.0"/>
      <point x="184.0" y="-76.0"/>
      <point x="331.0" y="-39.0" type="curve"/>
      <point x="287.0" y="48.0" type="line"/>
      <point x="100.0" y="11.0"/>
      <point x="-10.0" y="-94.0"/>
      <point x="-10.0" y="-227.0" type="curve"/>
      <point x="-10.0" y="-378.0"/>
      <point x="125.0" y="-452.0"/>
    </contour>
  </outline>
</glyph>
<glyph name="rrVocalicMatra-deva" format="2">
  <unicode hex="0944"/>
  <anchor x="277.0" y="0.0" name="_bottom"/>
  <outline>
    <contour>
      <point x="323.0" y="-781.0" type="curve" smooth="yes"/>
      <point x="430.0" y="-781.0"/>
      <point x="533.0" y="-743.0"/>
      <point x="604.0" y="-689.0" type="curve"/>
      <point x="556.0" y="-601.0" type="line"/>
      <point x="494.0" y="-650.0"/>
      <point x="404.0" y="-680.0"/>
      <point x="327.0" y="-680.0" type="curve" smooth="yes"/>
      <point x="234.0" y="-680.0"/>
      <point x="191.0" y="-639.0"/>
      <point x="191.0" y="-565.0" type="curve" smooth="yes"/>
      <point x="191.0" y="-485.0"/>
      <point x="253.0" y="-443.0"/>
      <point x="412.0" y="-426.0" type="curve"/>
      <point x="402.0" y="-334.0" type="line"/>
      <point x="140.0" y="-352.0"/>
      <point x="75.0" y="-462.0"/>
      <point x="75.0" y="-561.0" type="curve" smooth="yes"/>
      <point x="75.0" y="-685.0"/>
      <point x="166.0" y="-781.0"/>
    </contour>
    <contour>
      <point x="273.0" y="-414.0" type="curve"/>
      <point x="324.0" y="-362.0" type="line"/>
      <point x="177.0" y="-341.0"/>
      <point x="127.0" y="-283.0"/>
      <point x="127.0" y="-213.0" type="curve" smooth="yes"/>
      <point x="127.0" y="-130.0"/>
      <point x="183.0" y="-82.0"/>
      <point x="341.0" y="-85.0" type="curve"/>
      <point x="341.0" y="15.0" type="line"/>
      <point x="331.0" y="16.0"/>
      <point x="329.0" y="17.0"/>
      <point x="319.0" y="17.0" type="curve" smooth="yes"/>
      <point x="170.0" y="17.0"/>
      <point x="7.0" y="-53.0"/>
      <point x="7.0" y="-198.0" type="curve" smooth="yes"/>
      <point x="7.0" y="-267.0"/>
      <point x="25.0" y="-390.0"/>
    </contour>
  </outline>
</glyph>
<glyph name="eCandraMatra-deva" format="2">
  <unicode hex="0945"/>
  <anchor x="273.0" y="1247.0" name="_candra"/>
  <anchor x="272.0" y="1247.0" name="_top"/>
  <anchor x="272.0" y="1482.0" name="candra"/>
  <anchor x="274.0" y="1493.0" name="top"/>
  <outline>
    <contour>
      <point x="275.0" y="1381.0" type="curve" smooth="yes"/>
      <point x="410.0" y="1381.0"/>
      <point x="513.0" y="1450.0"/>
      <point x="575.0" y="1574.0" type="curve"/>
      <point x="498.0" y="1621.0" type="line"/>
      <point x="456.0" y="1556.0"/>
      <point x="393.0" y="1491.0"/>
      <point x="276.0" y="1491.0" type="curve" smooth="yes"/>
      <point x="163.0" y="1491.0"/>
      <point x="99.0" y="1548.0"/>
      <point x="54.0" y="1619.0" type="curve"/>
      <point x="-26.0" y="1569.0" type="line"/>
      <point x="21.0" y="1472.0"/>
      <point x="116.0" y="1381.0"/>
    </contour>
  </outline>
</glyph>
<glyph name="eShortMatra-deva" format="2">
  <unicode hex="0946"/>
  <anchor x="260.0" y="1247.0" name="_top"/>
  <anchor x="399.0" y="1470.0" name="candra"/>
  <anchor x="399.0" y="1474.0" name="top"/>
  <outline>
    <contour>
      <point x="288.0" y="1174.0" type="line"/>
      <point x="309.0" y="1232.0"/>
      <point x="326.0" y="1288.0"/>
      <point x="326.0" y="1374.0" type="curve" smooth="yes"/>
      <point x="326.0" y="1494.0"/>
      <point x="271.0" y="1581.0"/>
      <point x="117.0" y="1618.0" type="curve" smooth="yes"/>
      <point x="67.0" y="1630.0" type="line" smooth="yes"/>
      <point x="-73.0" y="1664.0"/>
      <point x="-112.0" y="1699.0"/>
      <point x="-112.0" y="1746.0" type="curve" smooth="yes"/>
      <point x="-112.0" y="1761.0"/>
      <point x="-111.0" y="1773.0"/>
      <point x="-109.0" y="1785.0" type="curve"/>
      <point x="-187.0" y="1795.0" type="line"/>
      <point x="-201.0" y="1764.0"/>
      <point x="-206.0" y="1736.0"/>
      <point x="-206.0" y="1707.0" type="curve" smooth="yes"/>
      <point x="-206.0" y="1633.0"/>
      <point x="-142.0" y="1567.0"/>
      <point x="19.0" y="1527.0" type="curve" smooth="yes"/>
      <point x="92.0" y="1509.0" type="line" smooth="yes"/>
      <point x="215.0" y="1479.0"/>
      <point x="225.0" y="1419.0"/>
      <point x="225.0" y="1292.0" type="curve" smooth="yes"/>
      <point x="225.0" y="1257.0"/>
      <point x="219.0" y="1223.0"/>
      <point x="213.0" y="1196.0" type="curve"/>
    </contour>
  </outline>
</glyph>
<glyph name="eMatra-deva" format="2">
  <unicode hex="0947"/>
  <anchor x="266.0" y="1247.0" name="_top"/>
  <anchor x="479.0" y="1346.0" name="candra"/>
  <anchor x="444.0" y="1247.0" name="top"/>
  <outline>
    <contour>
      <point x="235.0" y="1206.0" type="line"/>
      <point x="326.0" y="1244.0" type="line"/>
      <point x="141.0" y="1704.0"/>
      <point x="56.0" y="1790.0"/>
      <point x="-219.0" y="1790.0" type="curve" smooth="yes"/>
      <point x="-270.0" y="1790.0"/>
      <point x="-309.0" y="1786.0"/>
      <point x="-365.0" y="1775.0" type="curve"/>
      <point x="-345.0" y="1667.0" type="line"/>
      <point x="-308.0" y="1674.0"/>
      <point x="-265.0" y="1678.0"/>
      <point x="-199.0" y="1678.0" type="curve" smooth="yes"/>
      <point x="5.0" y="1678.0"/>
      <point x="72.0" y="1560.0"/>
      <point x="216.0" y="1247.0" type="curve" smooth="yes"/>
    </contour>
  </outline>
</glyph>
<glyph name="om-deva" format="2">
  <advance width="1795.0"/>
  <unicode hex="0950"/>
  <outline>
    <contour>
      <point x="1451.0" y="317.0" type="curve" smooth="yes"/>
      <point x="1644.0" y="317.0"/>
      <point x="1735.0" y="484.0"/>
      <point x="1735.0" y="676.0" type="curve" smooth="yes"/>
      <point x="1735.0" y="884.0"/>
      <point x="1628.0" y="1012.0"/>
      <point x="1459.0" y="1012.0" type="curve" smooth="yes"/>
      <point x="1321.0" y="1012.0"/>
      <point x="1241.0" y="926.0"/>
      <point x="1131.0" y="753.0" type="curve" smooth="yes"/>
      <point x="1030.0" y="596.0"/>
      <point x="956.0" y="448.0"/>
      <point x="868.0" y="448.0" type="curve" smooth="yes"/>
      <point x="829.0" y="448.0"/>
      <point x="776.0" y="475.0"/>
      <point x="753.0" y="528.0" type="curve"/>
      <point x="732.0" y="464.0" type="line"/>
      <point x="780.0" y="359.0"/>
      <point x="836.0" y="332.0"/>
      <point x="892.0" y="333.0" type="curve"/>
      <point x="1020.0" y="337.0"/>
      <point x="1107.0" y="507.0"/>
      <point x="1205.0" y="668.0" type="curve" smooth="yes"/>
      <point x="1295.0" y="815.0"/>
      <point x="1355.0" y="903.0"/>
      <point x="1454.0" y="903.0" type="curve" smooth="yes"/>
      <point x="1561.0" y="903.0"/>
      <point x="1613.0" y="811.0"/>
      <point x="1613.0" y="666.0" type="curve" smooth="yes"/>
      <point x="1613.0" y="505.0"/>
      <point x="1549.0" y="430.0"/>
      <point x="1445.0" y="430.0" type="curve" smooth="yes"/>
      <point x="1323.0" y="430.0"/>
      <point x="1238.0" y="542.0"/>
      <point x="1203.0" y="726.0" type="curve"/>
      <point x="1128.0" y="637.0" type="line"/>
      <point x="1177.0" y="403.0"/>
      <point x="1313.0" y="317.0"/>
    </contour>
    <contour>
      <point x="447.0" y="109.0" type="curve" smooth="yes"/>
      <point x="637.0" y="109.0"/>
      <point x="795.0" y="224.0"/>
      <point x="795.0" y="431.0" type="curve" smooth="yes"/>
      <point x="795.0" y="602.0"/>
      <point x="687.0" y="729.0"/>
      <point x="471.0" y="758.0" type="curve"/>
      <point x="400.0" y="716.0" type="line"/>
      <point x="580.0" y="661.0"/>
      <point x="665.0" y="578.0"/>
      <point x="665.0" y="441.0" type="curve" smooth="yes"/>
      <point x="665.0" y="287.0"/>
      <point x="567.0" y="224.0"/>
      <point x="438.0" y="224.0" type="curve" smooth="yes"/>
      <point x="334.0" y="224.0"/>
      <point x="219.0" y="265.0"/>
      <point x="111.0" y="370.0" type="curve"/>
      <point x="45.0" y="290.0" type="line"/>
      <point x="169.0" y="162.0"/>
      <point x="317.0" y="109.0"/>
    </contour>
    <contour>
      <point x="312.0" y="661.0" type="line"/>
      <point x="330.0" y="662.0"/>
      <point x="344.0" y="663.0"/>
      <point x="368.0" y="667.0" type="curve" smooth="yes"/>
      <point x="437.0" y="676.0"/>
      <point x="507.0" y="692.0"/>
      <point x="566.0" y="725.0" type="curve" smooth="yes"/>
      <point x="687.0" y="787.0"/>
      <point x="741.0" y="880.0"/>
      <point x="741.0" y="998.0" type="curve" smooth="yes"/>
      <point x="741.0" y="1173.0"/>
      <point x="622.0" y="1262.0"/>
      <point x="435.0" y="1262.0" type="curve" smooth="yes"/>
      <point x="345.0" y="1262.0"/>
      <point x="261.0" y="1241.0"/>
      <point x="174.0" y="1202.0" type="curve"/>
      <point x="211.0" y="1101.0" type="line"/>
      <point x="295.0" y="1135.0"/>
      <point x="367.0" y="1151.0"/>
      <point x="435.0" y="1151.0" type="curve" smooth="yes"/>
      <point x="533.0" y="1151.0"/>
      <point x="621.0" y="1118.0"/>
      <point x="621.0" y="992.0" type="curve" smooth="yes"/>
      <point x="621.0" y="867.0"/>
      <point x="534.0" y="811.0"/>
      <point x="389.0" y="779.0" type="curve" smooth="yes"/>
      <point x="363.0" y="773.0"/>
      <point x="350.0" y="771.0"/>
      <point x="303.0" y="766.0" type="curve"/>
    </contour>
    <component base="candraBindu-deva" xOffset="807.0" yOffset="-330.0"/>
  </outline>
</glyph>
<glyph name="anudatta-deva" format="2">
  <unicode hex="0952"/>
  <outline>
    <contour>
      <point x="-824.0" y="-425.0" type="line"/>
      <point x="-134.0" y="-425.0" type="line"/>
      <point x="-134.0" y="-324.0" type="line"/>
      <point x="-824.0" y="-324.0" type="line"/>
    </contour>
  </outline>
</glyph>
<glyph name="lVocalicMatra-deva" format="2">
  <unicode hex="0962"/>
  <anchor x="277.0" y="0.0" name="_bottom"/>
  <outline>
    <contour>
      <point x="619.0" y="-447.0" type="line"/>
      <point x="707.0" y="-353.0"/>
      <point x="754.0" y="-243.0"/>
      <point x="754.0" y="-134.0" type="curve" smooth="yes"/>
      <point x="754.0" y="30.0"/>
      <point x="662.0" y="138.0"/>
      <point x="499.0" y="138.0" type="curve" smooth="yes"/>
      <point x="362.0" y="138.0"/>
      <point x="234.0" y="39.0"/>
      <point x="234.0" y="-142.0" type="curve" smooth="yes"/>
      <point x="234.0" y="-171.0"/>
      <point x="237.0" y="-198.0"/>
      <point x="244.0" y="-228.0" type="curve"/>
      <point x="347.0" y="-215.0" type="line"/>
      <point x="345.0" y="-195.0"/>
      <point x="343.0" y="-177.0"/>
      <point x="343.0" y="-158.0" type="curve" smooth="yes"/>
      <point x="343.0" y="-35.0"/>
      <point x="410.0" y="34.0"/>
      <point x="503.0" y="34.0" type="curve" smooth="yes"/>
      <point x="593.0" y="34.0"/>
      <point x="645.0" y="-33.0"/>
      <point x="645.0" y="-138.0" type="curve" smooth="yes"/>
      <point x="645.0" y="-221.0"/>
      <point x="607.0" y="-310.0"/>
      <point x="538.0" y="-385.0" type="curve"/>
      <point x="539.0" y="-390.0" type="line"/>
    </contour>
    <contour>
      <point x="-58.0" y="-459.0" type="curve"/>
      <point x="-54.0" y="-459.0" type="line"/>
      <point x="28.0" y="-398.0" type="line"/>
      <point x="-36.0" y="-316.0"/>
      <point x="-91.0" y="-233.0"/>
      <point x="-91.0" y="-127.0" type="curve" smooth="yes"/>
      <point x="-91.0" y="-9.0"/>
      <point x="-24.0" y="36.0"/>
      <point x="56.0" y="36.0" type="curve" smooth="yes"/>
      <point x="150.0" y="36.0"/>
      <point x="214.0" y="-33.0"/>
      <point x="269.0" y="-143.0" type="curve"/>
      <point x="297.0" y="-58.0" type="line"/>
      <point x="233.0" y="85.0"/>
      <point x="147.0" y="140.0"/>
      <point x="38.0" y="140.0" type="curve" smooth="yes"/>
      <point x="-111.0" y="140.0"/>
      <point x="-203.0" y="47.0"/>
      <point x="-203.0" y="-116.0" type="curve" smooth="yes"/>
      <point x="-203.0" y="-252.0"/>
      <point x="-133.0" y="-367.0"/>
    </contour>
    <contour>
      <point x="547.0" y="-815.0" type="curve" smooth="yes"/>
      <point x="645.0" y="-815.0"/>
      <point x="733.0" y="-776.0"/>
      <point x="799.0" y="-726.0" type="curve"/>
      <point x="755.0" y="-644.0" type="line"/>
      <point x="699.0" y="-683.0"/>
      <point x="625.0" y="-718.0"/>
      <point x="554.0" y="-719.0" type="curve" smooth="yes"/>
      <point x="479.0" y="-719.0"/>
      <point x="424.0" y="-682.0"/>
      <point x="424.0" y="-610.0" type="curve" smooth="yes"/>
      <point x="424.0" y="-527.0"/>
      <point x="498.0" y="-479.0"/>
      <point x="619.0" y="-447.0" type="curve"/>
      <point x="561.0" y="-376.0" type="line"/>
      <point x="396.0" y="-414.0"/>
      <point x="313.0" y="-508.0"/>
      <point x="313.0" y="-610.0" type="curve" smooth="yes"/>
      <point x="313.0" y="-748.0"/>
      <point x="434.0" y="-815.0"/>
    </contour>
  </outline>
</glyph>
<glyph name="llVocalicMatra-deva" format="2">
  <unicode hex="0963"/>
  <anchor x="277.0" y="0.0" name="_bottom"/>
  <outline>
    <contour>
      <point x="621.0" y="-446.0" type="line"/>
      <point x="709.0" y="-352.0"/>
      <point x="756.0" y="-242.0"/>
      <point x="756.0" y="-133.0" type="curve" smooth="yes"/>
      <point x="756.0" y="31.0"/>
      <point x="664.0" y="139.0"/>
      <point x="501.0" y="139.0" type="curve" smooth="yes"/>
      <point x="364.0" y="139.0"/>
      <point x="236.0" y="40.0"/>
      <point x="236.0" y="-141.0" type="curve" smooth="yes"/>
      <point x="236.0" y="-170.0"/>
      <point x="239.0" y="-197.0"/>
      <point x="246.0" y="-227.0" type="curve"/>
      <point x="349.0" y="-214.0" type="line"/>
      <point x="347.0" y="-194.0"/>
      <point x="345.0" y="-176.0"/>
      <point x="345.0" y="-157.0" type="curve" smooth="yes"/>
      <point x="345.0" y="-34.0"/>
      <point x="412.0" y="35.0"/>
      <point x="505.0" y="35.0" type="curve" smooth="yes"/>
      <point x="595.0" y="35.0"/>
      <point x="647.0" y="-32.0"/>
      <point x="647.0" y="-137.0" type="curve" smooth="yes"/>
      <point x="647.0" y="-220.0"/>
      <point x="609.0" y="-309.0"/>
      <point x="540.0" y="-384.0" type="curve"/>
      <point x="541.0" y="-389.0" type="line"/>
    </contour>
    <contour>
      <point x="583.0" y="-1075.0" type="curve" smooth="yes"/>
      <point x="679.0" y="-1075.0"/>
      <point x="774.0" y="-1040.0"/>
      <point x="839.0" y="-990.0" type="curve"/>
      <point x="794.0" y="-907.0" type="line"/>
      <point x="737.0" y="-953.0"/>
      <point x="655.0" y="-980.0"/>
      <point x="586.0" y="-980.0" type="curve" smooth="yes"/>
      <point x="504.0" y="-980.0"/>
      <point x="465.0" y="-944.0"/>
      <point x="465.0" y="-878.0" type="curve" smooth="yes"/>
      <point x="465.0" y="-807.0"/>
      <point x="522.0" y="-770.0"/>
      <point x="666.0" y="-754.0" type="curve"/>
      <point x="656.0" y="-668.0" type="line"/>
      <point x="416.0" y="-684.0"/>
      <point x="357.0" y="-784.0"/>
      <point x="357.0" y="-874.0" type="curve" smooth="yes"/>
      <point x="357.0" y="-988.0"/>
      <point x="439.0" y="-1075.0"/>
    </contour>
    <contour>
      <point x="-56.0" y="-458.0" type="curve"/>
      <point x="-52.0" y="-458.0" type="line"/>
      <point x="30.0" y="-397.0" type="line"/>
      <point x="-34.0" y="-315.0"/>
      <point x="-89.0" y="-232.0"/>
      <point x="-89.0" y="-126.0" type="curve" smooth="yes"/>
      <point x="-89.0" y="-8.0"/>
      <point x="-22.0" y="37.0"/>
      <point x="58.0" y="37.0" type="curve" smooth="yes"/>
      <point x="152.0" y="37.0"/>
      <point x="216.0" y="-32.0"/>
      <point x="271.0" y="-142.0" type="curve"/>
      <point x="299.0" y="-57.0" type="line"/>
      <point x="235.0" y="86.0"/>
      <point x="149.0" y="141.0"/>
      <point x="40.0" y="141.0" type="curve" smooth="yes"/>
      <point x="-109.0" y="141.0"/>
      <point x="-201.0" y="48.0"/>
      <point x="-201.0" y="-115.0" type="curve" smooth="yes"/>
      <point x="-201.0" y="-251.0"/>
      <point x="-131.0" y="-366.0"/>
    </contour>
    <contour>
      <point x="538.0" y="-741.0" type="curve"/>
      <point x="586.0" y="-694.0" type="line"/>
      <point x="453.0" y="-675.0"/>
      <point x="407.0" y="-623.0"/>
      <point x="407.0" y="-561.0" type="curve" smooth="yes"/>
      <point x="407.0" y="-488.0"/>
      <point x="479.0" y="-448.0"/>
      <point x="623.0" y="-446.0" type="curve"/>
      <point x="623.0" y="-353.0" type="line"/>
      <point x="594.0" y="-352.0"/>
      <point x="588.0" y="-352.0"/>
      <point x="578.0" y="-352.0" type="curve" smooth="yes"/>
      <point x="443.0" y="-352.0"/>
      <point x="295.0" y="-415.0"/>
      <point x="295.0" y="-548.0" type="curve" smooth="yes"/>
      <point x="295.0" y="-609.0"/>
      <point x="311.0" y="-721.0"/>
    </contour>
  </outline>
</glyph>
<glyph name="two-deva" format="2">
  <advance width="799.0"/>
  <unicode hex="0968"/>
  <outline>
    <contour>
      <point x="289.0" y="473.0" type="line"/>
      <point x="550.0" y="550.0"/>
      <point x="731.0" y="713.0"/>
      <point x="731.0" y="941.0" type="curve" smooth="yes"/>
      <point x="730.0" y="1156.0"/>
      <point x="589.0" y="1269.0"/>
      <point x="371.0" y="1269.0" type="curve" smooth="yes"/>
      <point x="317.0" y="1269.0"/>
      <point x="193.0" y="1261.0"/>
      <point x="93.0" y="1211.0" type="curve"/>
      <point x="128.0" y="1112.0" type="line"/>
      <point x="192.0" y="1137.0"/>
      <point x="289.0" y="1162.0"/>
      <point x="369.0" y="1162.0" type="curve" smooth="yes"/>
      <point x="519.0" y="1162.0"/>
      <point x="609.0" y="1095.0"/>
      <point x="609.0" y="945.0" type="curve" smooth="yes"/>
      <point x="610.0" y="771.0"/>
      <point x="482.0" y="631.0"/>
      <point x="197.0" y="561.0" type="curve"/>
    </contour>
    <contour>
      <point x="650.0" y="-12.0" type="line"/>
      <point x="752.0" y="70.0" type="line"/>
      <point x="314.0" y="562.0" type="line"/>
      <point x="230.0" y="524.0" type="line"/>
    </contour>
    <contour>
      <point x="204.0" y="455.0" type="curve" smooth="yes"/>
      <point x="222.0" y="455.0"/>
      <point x="268.0" y="459.0"/>
      <point x="364.0" y="481.0" type="curve"/>
      <point x="359.0" y="538.0" type="line"/>
      <point x="216.0" y="694.0" type="line"/>
      <point x="133.0" y="694.0" type="line"/>
      <point x="94.0" y="630.0"/>
      <point x="88.0" y="589.0"/>
      <point x="88.0" y="564.0" type="curve" smooth="yes"/>
      <point x="88.0" y="492.0"/>
      <point x="140.0" y="455.0"/>
    </contour>
  </outline>
</glyph>
<glyph name="nine-deva" format="2">
  <advance width="820.0"/>
  <unicode hex="096F"/>
  <outline>
    <contour>
      <point x="490.0" y="-215.0" type="line"/>
      <point x="646.0" y="-188.0"/>
      <point x="765.0" y="-82.0"/>
      <point x="765.0" y="42.0" type="curve" smooth="yes"/>
      <point x="765.0" y="175.0"/>
      <point x="657.0" y="268.0"/>
      <point x="432.0" y="535.0" type="curve" smooth="yes"/>
      <point x="278.0" y="717.0"/>
      <point x="214.0" y="794.0"/>
      <point x="214.0" y="933.0" type="curve" smooth="yes"/>
      <point x="213.0" y="1089.0"/>
      <point x="294.0" y="1154.0"/>
      <point x="430.0" y="1154.0" type="curve" smooth="yes"/>
      <point x="561.0" y="1154.0"/>
      <point x="631.0" y="1089.0"/>
      <point x="631.0" y="972.0" type="curve" smooth="yes"/>
      <point x="633.0" y="767.0"/>
      <point x="444.0" y="687.0"/>
      <point x="271.0" y="683.0" type="curve"/>
      <point x="300.0" y="596.0" type="line"/>
      <point x="501.0" y="596.0"/>
      <point x="758.0" y="699.0"/>
      <point x="757.0" y="981.0" type="curve" smooth="yes"/>
      <point x="756.0" y="1157.0"/>
      <point x="633.0" y="1267.0"/>
      <point x="426.0" y="1267.0" type="curve" smooth="yes"/>
      <point x="215.0" y="1267.0"/>
      <point x="88.0" y="1155.0"/>
      <point x="88.0" y="947.0" type="curve" smooth="yes"/>
      <point x="88.0" y="772.0"/>
      <point x="175.0" y="650.0"/>
      <point x="342.0" y="448.0" type="curve" smooth="yes"/>
      <point x="549.0" y="200.0"/>
      <point x="639.0" y="123.0"/>
      <point x="639.0" y="41.0" type="curve" smooth="yes"/>
      <point x="639.0" y="-38.0"/>
      <point x="557.0" y="-80.0"/>
      <point x="440.0" y="-107.0" type="curve"/>
    </contour>
  </outline>
</glyph>
<glyph name="abbreviation-deva" format="2">
  <advance width="966.0"/>
  <unicode hex="0970"/>
  <outline>
    <contour>
      <point x="486.0" y="255.0" type="curve" smooth="yes"/>
      <point x="634.0" y="255.0"/>
      <point x="809.0" y="326.0"/>
      <point x="809.0" y="566.0" type="curve" smooth="yes"/>
      <point x="809.0" y="756.0"/>
      <point x="695.0" y="885.0"/>
      <point x="480.0" y="885.0" type="curve" smooth="yes"/>
      <point x="332.0" y="885.0"/>
      <point x="157.0" y="814.0"/>
      <point x="157.0" y="574.0" type="curve" smooth="yes"/>
      <point x="157.0" y="389.0"/>
      <point x="268.0" y="255.0"/>
    </contour>
    <contour>
      <point x="479.0" y="361.0" type="curve"/>
      <point x="352.0" y="361.0"/>
      <point x="280.0" y="417.0"/>
      <point x="281.0" y="565.0" type="curve" smooth="yes"/>
      <point x="281.0" y="729.0"/>
      <point x="368.0" y="780.0"/>
      <point x="486.0" y="780.0" type="curve" smooth="yes"/>
      <point x="611.0" y="780.0"/>
      <point x="685.0" y="722.0"/>
      <point x="685.0" y="575.0" type="curve" smooth="yes"/>
      <point x="685.0" y="413.0"/>
      <point x="597.0" y="361.0"/>
    </contour>
  </outline>
</glyph>
<glyph name="ue-deva" format="2">
  <advance width="1386.0"/>
  <unicode hex="0976"/>
  <anchor x="1102.0" y="0.0" name="bottom"/>
  <anchor x="907.0" y="1247.0" name="candra"/>
  <anchor x="1108.0" y="1247.0" name="top"/>
  <outline>
    <contour>
      <point x="618.0" y="-243.0" type="curve" smooth="yes"/>
      <point x="763.0" y="-243.0"/>
      <point x="867.0" y="-173.0"/>
      <point x="928.0" y="-49.0" type="curve"/>
      <point x="851.0" y="-2.0" type="line"/>
      <point x="809.0" y="-68.0"/>
      <point x="741.0" y="-132.0"/>
      <point x="613.0" y="-132.0" type="curve" smooth="yes"/>
      <point x="480.0" y="-132.0"/>
      <point x="416.0" y="-76.0"/>
      <point x="371.0" y="-4.0" type="curve"/>
      <point x="305.0" y="-52.0" type="line"/>
      <point x="352.0" y="-149.0"/>
      <point x="450.0" y="-243.0"/>
    </contour>
    <component base="a-deva"/>
  </outline>
</glyph>
<glyph name="uue-deva" format="2">
  <advance width="1386.0"/>
  <unicode hex="0977"/>
  <anchor x="1102.0" y="0.0" name="bottom"/>
  <anchor x="907.0" y="1247.0" name="candra"/>
  <anchor x="1108.0" y="1247.0" name="top"/>
  <outline>
    <contour>
      <point x="598.0" y="-193.0" type="curve" smooth="yes"/>
      <point x="753.0" y="-193.0"/>
      <point x="857.0" y="-123.0"/>
      <point x="918.0" y="1.0" type="curve"/>
      <point x="841.0" y="48.0" type="line"/>
      <point x="799.0" y="-18.0"/>
      <point x="731.0" y="-82.0"/>
      <point x="593.0" y="-82.0" type="curve" smooth="yes"/>
      <point x="450.0" y="-82.0"/>
      <point x="386.0" y="-26.0"/>
      <point x="341.0" y="46.0" type="curve"/>
      <point x="275.0" y="-2.0" type="line"/>
      <point x="322.0" y="-99.0"/>
      <point x="420.0" y="-193.0"/>
    </contour>
    <contour>
      <point x="603.0" y="-453.0" type="curve" smooth="yes"/>
      <point x="758.0" y="-453.0"/>
      <point x="862.0" y="-383.0"/>
      <point x="923.0" y="-259.0" type="curve"/>
      <point x="846.0" y="-212.0" type="line"/>
      <point x="804.0" y="-278.0"/>
      <point x="736.0" y="-342.0"/>
      <point x="598.0" y="-342.0" type="curve" smooth="yes"/>
      <point x="455.0" y="-342.0"/>
      <point x="391.0" y="-286.0"/>
      <point x="346.0" y="-214.0" type="curve"/>
      <point x="280.0" y="-262.0" type="line"/>
      <point x="327.0" y="-359.0"/>
      <point x="425.0" y="-453.0"/>
    </contour>
    <component base="a-deva"/>
  </outline>
</glyph>
<glyph name="ddda-deva" format="2">
  <advance width="986.0"/>
  <unicode hex="097E"/>
  <anchor x="515.0" y="-83.0" name="bottom"/>
  <anchor x="665.0" y="1247.0" name="candra"/>
  <anchor x="515.0" y="-217.0" name="nukta"/>
  <anchor x="728.0" y="1247.0" name="top"/>
  <outline>
    <contour>
      <point x="104.0" y="-262.0" type="line"/>
      <point x="903.0" y="-262.0" type="line"/>
      <point x="903.0" y="-161.0" type="line"/>
      <point x="104.0" y="-161.0" type="line"/>
    </contour>
    <component base="dda-deva"/>
  </outline>
</glyph>
<glyph name="b.sups" format="2">
  <advance width="760.0"/>
  <unicode hex="1D47"/>
  <outline>
    <contour>
      <point x="403.0" y="516.0" type="curve" smooth="yes"/>
      <point x="556.0" y="516.0"/>
      <point x="689.0" y="647.0"/>
      <point x="689.0" y="872.0" type="curve" smooth="yes"/>
      <point x="689.0" y="1075.0"/>
      <point x="597.0" y="1205.0"/>
      <point x="423.0" y="1205.0" type="curve" smooth="yes"/>
      <point x="344.0" y="1205.0"/>
      <point x="276.0" y="1161.0"/>
      <point x="212.0" y="1108.0" type="curve"/>
      <point x="217.0" y="1230.0" type="line"/>
      <point x="217.0" y="1496.0" type="line"/>
      <point x="111.0" y="1496.0" type="line"/>
      <point x="111.0" y="532.0" type="line"/>
      <point x="194.0" y="532.0" type="line"/>
      <point x="204.0" y="597.0" type="line"/>
      <point x="213.0" y="597.0" type="line"/>
      <point x="271.0" y="545.0"/>
      <point x="341.0" y="516.0"/>
    </contour>
    <contour>
      <point x="391.0" y="606.0" type="curve" smooth="yes"/>
      <point x="340.0" y="606.0"/>
      <point x="276.0" y="625.0"/>
      <point x="217.0" y="677.0" type="curve"/>
      <point x="217.0" y="1021.0" type="line"/>
      <point x="280.0" y="1080.0"/>
      <point x="343.0" y="1115.0"/>
      <point x="400.0" y="1115.0" type="curve" smooth="yes"/>
      <point x="525.0" y="1115.0"/>
      <point x="579.0" y="1018.0"/>
      <point x="579.0" y="871.0" type="curve" smooth="yes"/>
      <point x="579.0" y="705.0"/>
      <point x="498.0" y="606.0"/>
    </contour>
  </outline>
</glyph>
<glyph name="m.sups" format="2">
  <advance width="1136.0"/>
  <unicode hex="1D50"/>
  <outline>
    <contour>
      <point x="111.0" y="532.0" type="line"/>
      <point x="217.0" y="532.0" type="line"/>
      <point x="217.0" y="1009.0" type="line"/>
      <point x="287.0" y="1080.0"/>
      <point x="337.0" y="1112.0"/>
      <point x="388.0" y="1112.0" type="curve" smooth="yes"/>
      <point x="490.0" y="1112.0"/>
      <point x="518.0" y="1043.0"/>
      <point x="518.0" y="932.0" type="curve" smooth="yes"/>
      <point x="518.0" y="532.0" type="line"/>
      <point x="625.0" y="532.0" type="line"/>
      <point x="625.0" y="1009.0" type="line"/>
      <point x="693.0" y="1080.0"/>
      <point x="744.0" y="1112.0"/>
      <point x="797.0" y="1112.0" type="curve" smooth="yes"/>
      <point x="898.0" y="1112.0"/>
      <point x="927.0" y="1043.0"/>
      <point x="927.0" y="932.0" type="curve" smooth="yes"/>
      <point x="927.0" y="532.0" type="line"/>
      <point x="1033.0" y="532.0" type="line"/>
      <point x="1033.0" y="949.0" type="line"/>
      <point x="1033.0" y="1100.0"/>
      <point x="974.0" y="1205.0"/>
      <point x="829.0" y="1205.0" type="curve" smooth="yes"/>
      <point x="742.0" y="1205.0"/>
      <point x="667.0" y="1145.0"/>
      <point x="605.0" y="1079.0" type="curve"/>
      <point x="576.0" y="1164.0"/>
      <point x="513.0" y="1205.0"/>
      <point x="421.0" y="1205.0" type="curve" smooth="yes"/>
      <point x="333.0" y="1205.0"/>
      <point x="270.0" y="1156.0"/>
      <point x="215.0" y="1093.0" type="curve"/>
      <point x="206.0" y="1093.0" type="line"/>
      <point x="196.0" y="1189.0" type="line"/>
      <point x="111.0" y="1189.0" type="line"/>
    </contour>
  </outline>
</glyph>
<glyph name="u.sups" format="2">
  <advance width="752.0"/>
  <unicode hex="1D58"/>
  <outline>
    <contour>
      <point x="318.0" y="516.0" type="curve" smooth="yes"/>
      <point x="405.0" y="516.0"/>
      <point x="481.0" y="566.0"/>
      <point x="538.0" y="627.0" type="curve"/>
      <point x="546.0" y="627.0" type="line"/>
      <point x="558.0" y="532.0" type="line"/>
      <point x="642.0" y="532.0" type="line"/>
      <point x="642.0" y="1189.0" type="line"/>
      <point x="535.0" y="1189.0" type="line"/>
      <point x="535.0" y="712.0" type="line"/>
      <point x="465.0" y="640.0"/>
      <point x="406.0" y="608.0"/>
      <point x="348.0" y="608.0" type="curve" smooth="yes"/>
      <point x="239.0" y="608.0"/>
      <point x="215.0" y="677.0"/>
      <point x="215.0" y="787.0" type="curve" smooth="yes"/>
      <point x="215.0" y="1189.0" type="line"/>
      <point x="108.0" y="1189.0" type="line"/>
      <point x="108.0" y="771.0" type="line"/>
      <point x="108.0" y="620.0"/>
      <point x="163.0" y="516.0"/>
    </contour>
  </outline>
</glyph>
<glyph name="c.sups" format="2">
  <advance width="623.0"/>
  <unicode hex="1D9C"/>
  <outline>
    <contour>
      <point x="376.0" y="516.0" type="curve" smooth="yes"/>
      <point x="477.0" y="516.0"/>
      <point x="541.0" y="554.0"/>
      <point x="589.0" y="594.0" type="curve"/>
      <point x="543.0" y="665.0" type="line"/>
      <point x="503.0" y="632.0"/>
      <point x="457.0" y="606.0"/>
      <point x="384.0" y="606.0" type="curve" smooth="yes"/>
      <point x="260.0" y="606.0"/>
      <point x="172.0" y="710.0"/>
      <point x="172.0" y="860.0" type="curve" smooth="yes"/>
      <point x="172.0" y="1010.0"/>
      <point x="264.0" y="1116.0"/>
      <point x="383.0" y="1116.0" type="curve" smooth="yes"/>
      <point x="448.0" y="1116.0"/>
      <point x="482.0" y="1096.0"/>
      <point x="525.0" y="1061.0" type="curve"/>
      <point x="578.0" y="1132.0" type="line"/>
      <point x="536.0" y="1168.0"/>
      <point x="473.0" y="1205.0"/>
      <point x="379.0" y="1205.0" type="curve" smooth="yes"/>
      <point x="212.0" y="1205.0"/>
      <point x="64.0" y="1079.0"/>
      <point x="64.0" y="860.0" type="curve" smooth="yes"/>
      <point x="64.0" y="640.0"/>
      <point x="196.0" y="516.0"/>
    </contour>
  </outline>
</glyph>
<glyph name="f.sups" format="2">
  <advance width="397.0"/>
  <unicode hex="1DA0"/>
  <outline>
    <contour>
      <point x="133.0" y="532.0" type="line"/>
      <point x="240.0" y="532.0" type="line"/>
      <point x="240.0" y="1103.0" type="line"/>
      <point x="384.0" y="1103.0" type="line"/>
      <point x="384.0" y="1189.0" type="line"/>
      <point x="240.0" y="1189.0" type="line"/>
      <point x="240.0" y="1297.0" type="line"/>
      <point x="240.0" y="1376.0"/>
      <point x="271.0" y="1429.0"/>
      <point x="334.0" y="1429.0" type="curve" smooth="yes"/>
      <point x="367.0" y="1429.0"/>
      <point x="392.0" y="1421.0"/>
      <point x="411.0" y="1414.0" type="curve"/>
      <point x="435.0" y="1495.0" type="line"/>
      <point x="399.0" y="1509.0"/>
      <point x="367.0" y="1517.0"/>
      <point x="325.0" y="1517.0" type="curve" smooth="yes"/>
      <point x="196.0" y="1517.0"/>
      <point x="133.0" y="1422.0"/>
      <point x="133.0" y="1289.0" type="curve" smooth="yes"/>
      <point x="133.0" y="1189.0" type="line"/>
      <point x="41.0" y="1183.0" type="line"/>
      <point x="41.0" y="1103.0" type="line"/>
      <point x="133.0" y="1103.0" type="line"/>
    </contour>
  </outline>
</glyph>
<glyph name="quoteleft" format="2">
  <advance width="485.0"/>
  <unicode hex="2018"/>
  <outline>
    <contour>
      <point x="231.0" y="903.0" type="curve" smooth="yes"/>
      <point x="287.0" y="903.0"/>
      <point x="328.0" y="941.0"/>
      <point x="328.0" y="1002.0" type="curve" smooth="yes"/>
      <point x="328.0" y="1064.0"/>
      <point x="280.0" y="1096.0"/>
      <point x="231.0" y="1096.0" type="curve" smooth="yes"/>
      <point x="225.0" y="1096.0"/>
      <point x="218.0" y="1096.0"/>
      <point x="213.0" y="1094.0" type="curve"/>
      <point x="213.0" y="1210.0"/>
      <point x="263.0" y="1295.0"/>
      <point x="361.0" y="1365.0" type="curve"/>
      <point x="317.0" y="1431.0" type="line"/>
      <point x="189.0" y="1353.0"/>
      <point x="106.0" y="1224.0"/>
      <point x="106.0" y="1068.0" type="curve" smooth="yes"/>
      <point x="106.0" y="961.0"/>
      <point x="161.0" y="903.0"/>
    </contour>
  </outline>
</glyph>
<glyph name="bullet" format="2">
  <advance width="603.0"/>
  <unicode hex="2022"/>
  <outline>
    <contour>
      <point x="301.0" y="302.0" type="curve" smooth="yes"/>
      <point x="417.0" y="302.0"/>
      <point x="522.0" y="395.0"/>
      <point x="522.0" y="540.0" type="curve" smooth="yes"/>
      <point x="522.0" y="683.0"/>
      <point x="417.0" y="778.0"/>
      <point x="301.0" y="778.0" type="curve" smooth="yes"/>
      <point x="186.0" y="778.0"/>
      <point x="82.0" y="683.0"/>
      <point x="82.0" y="540.0" type="curve" smooth="yes"/>
      <point x="82.0" y="395.0"/>
      <point x="186.0" y="302.0"/>
    </contour>
  </outline>
</glyph>
<glyph name="guilsinglleft" format="2">
  <advance width="545.0"/>
  <unicode hex="2039"/>
  <outline>
    <contour>
      <point x="370.0" y="140.0" type="line"/>
      <point x="434.0" y="190.0" type="line"/>
      <point x="189.0" y="516.0" type="line"/>
      <point x="434.0" y="838.0" type="line"/>
      <point x="370.0" y="892.0" type="line"/>
      <point x="90.0" y="570.0" type="line"/>
      <point x="90.0" y="463.0" type="line"/>
    </contour>
  </outline>
</glyph>
<glyph name="zero.sups" format="2">
  <advance width="747.0"/>
  <unicode hex="2070"/>
  <outline>
    <contour>
      <point x="375.0" y="877.0" type="curve" smooth="yes"/>
      <point x="555.0" y="877.0"/>
      <point x="673.0" y="1029.0"/>
      <point x="673.0" y="1303.0" type="curve" smooth="yes"/>
      <point x="673.0" y="1572.0"/>
      <point x="555.0" y="1724.0"/>
      <point x="375.0" y="1724.0" type="curve" smooth="yes"/>
      <point x="193.0" y="1724.0"/>
      <point x="76.0" y="1572.0"/>
      <point x="76.0" y="1303.0" type="curve" smooth="yes"/>
      <point x="76.0" y="1029.0"/>
      <point x="193.0" y="877.0"/>
    </contour>
    <contour>
      <point x="375.0" y="966.0" type="curve" smooth="yes"/>
      <point x="259.0" y="966.0"/>
      <point x="184.0" y="1084.0"/>
      <point x="184.0" y="1303.0" type="curve" smooth="yes"/>
      <point x="184.0" y="1522.0"/>
      <point x="259.0" y="1635.0"/>
      <point x="375.0" y="1635.0" type="curve" smooth="yes"/>
      <point x="488.0" y="1635.0"/>
      <point x="564.0" y="1522.0"/>
      <point x="564.0" y="1303.0" type="curve" smooth="yes"/>
      <point x="564.0" y="1084.0"/>
      <point x="488.0" y="966.0"/>
    </contour>
  </outline>
</glyph>
<glyph name="i.sups" format="2">
  <advance width="329.0"/>
  <unicode hex="2071"/>
  <outline>
    <contour>
      <point x="111.0" y="532.0" type="line"/>
      <point x="217.0" y="532.0" type="line"/>
      <point x="217.0" y="1189.0" type="line"/>
      <point x="111.0" y="1189.0" type="line"/>
    </contour>
    <contour>
      <point x="167.0" y="1324.0" type="curve" smooth="yes"/>
      <point x="211.0" y="1324.0"/>
      <point x="244.0" y="1354.0"/>
      <point x="244.0" y="1397.0" type="curve" smooth="yes"/>
      <point x="244.0" y="1440.0"/>
      <point x="211.0" y="1470.0"/>
      <point x="167.0" y="1470.0" type="curve" smooth="yes"/>
      <point x="123.0" y="1470.0"/>
      <point x="89.0" y="1440.0"/>
      <point x="89.0" y="1397.0" type="curve" smooth="yes"/>
      <point x="89.0" y="1354.0"/>
      <point x="123.0" y="1324.0"/>
    </contour>
  </outline>
</glyph>
<glyph name="four.sups" format="2">
  <advance width="747.0"/>
  <unicode hex="2074"/>
  <outline>
    <contour>
      <point x="453.0" y="901.0" type="line"/>
      <point x="553.0" y="901.0" type="line"/>
      <point x="553.0" y="1123.0" type="line"/>
      <point x="672.0" y="1123.0" type="line"/>
      <point x="672.0" y="1205.0" type="line"/>
      <point x="553.0" y="1205.0" type="line"/>
      <point x="553.0" y="1700.0" type="line"/>
      <point x="436.0" y="1700.0" type="line"/>
      <point x="89.0" y="1180.0" type="line"/>
      <point x="89.0" y="1123.0" type="line"/>
      <point x="453.0" y="1123.0" type="line"/>
    </contour>
    <contour>
      <point x="211.0" y="1205.0" type="line"/>
      <point x="346.0" y="1414.0" type="line"/>
      <point x="453.0" y="1582.0" type="line"/>
      <point x="461.0" y="1582.0" type="line"/>
      <point x="453.0" y="1363.0" type="line"/>
      <point x="453.0" y="1205.0" type="line"/>
    </contour>
  </outline>
</glyph>
<glyph name="five.sups" format="2">
  <advance width="747.0"/>
  <unicode hex="2075"/>
  <outline>
    <contour>
      <point x="373.0" y="877.0" type="curve" smooth="yes"/>
      <point x="531.0" y="877.0"/>
      <point x="653.0" y="987.0"/>
      <point x="653.0" y="1152.0" type="curve" smooth="yes"/>
      <point x="653.0" y="1327.0"/>
      <point x="536.0" y="1422.0"/>
      <point x="392.0" y="1422.0" type="curve" smooth="yes"/>
      <point x="338.0" y="1422.0"/>
      <point x="294.0" y="1406.0"/>
      <point x="254.0" y="1387.0" type="curve"/>
      <point x="279.0" y="1602.0" type="line"/>
      <point x="612.0" y="1602.0" type="line"/>
      <point x="612.0" y="1700.0" type="line"/>
      <point x="186.0" y="1700.0" type="line"/>
      <point x="148.0" y="1317.0" type="line"/>
      <point x="206.0" y="1276.0" type="line"/>
      <point x="249.0" y="1312.0"/>
      <point x="297.0" y="1345.0"/>
      <point x="364.0" y="1345.0" type="curve" smooth="yes"/>
      <point x="470.0" y="1345.0"/>
      <point x="543.0" y="1272.0"/>
      <point x="543.0" y="1155.0" type="curve" smooth="yes"/>
      <point x="543.0" y="1045.0"/>
      <point x="468.0" y="966.0"/>
      <point x="369.0" y="966.0" type="curve" smooth="yes"/>
      <point x="271.0" y="966.0"/>
      <point x="204.0" y="1014.0"/>
      <point x="152.0" y="1090.0" type="curve"/>
      <point x="76.0" y="1031.0" type="line"/>
      <point x="137.0" y="944.0"/>
      <point x="232.0" y="877.0"/>
    </contour>
  </outline>
</glyph>
<glyph name="eight.sups" format="2">
  <advance width="747.0"/>
  <unicode hex="2078"/>
  <outline>
    <contour>
      <point x="371.0" y="877.0" type="curve" smooth="yes"/>
      <point x="528.0" y="877.0"/>
      <point x="647.0" y="976.0"/>
      <point x="647.0" y="1106.0" type="curve" smooth="yes"/>
      <point x="647.0" y="1201.0"/>
      <point x="591.0" y="1264.0"/>
      <point x="497.0" y="1311.0" type="curve"/>
      <point x="497.0" y="1319.0" type="line"/>
      <point x="548.0" y="1356.0"/>
      <point x="620.0" y="1419.0"/>
      <point x="620.0" y="1515.0" type="curve" smooth="yes"/>
      <point x="620.0" y="1642.0"/>
      <point x="510.0" y="1724.0"/>
      <point x="371.0" y="1724.0" type="curve" smooth="yes"/>
      <point x="237.0" y="1724.0"/>
      <point x="129.0" y="1639.0"/>
      <point x="129.0" y="1515.0" type="curve" smooth="yes"/>
      <point x="129.0" y="1431.0"/>
      <point x="178.0" y="1378.0"/>
      <point x="248.0" y="1333.0" type="curve"/>
      <point x="248.0" y="1325.0" type="line"/>
      <point x="169.0" y="1280.0"/>
      <point x="95.0" y="1201.0"/>
      <point x="95.0" y="1099.0" type="curve" smooth="yes"/>
      <point x="95.0" y="979.0"/>
      <point x="205.0" y="877.0"/>
    </contour>
    <contour>
      <point x="371.0" y="960.0" type="curve" smooth="yes"/>
      <point x="268.0" y="960.0"/>
      <point x="200.0" y="1033.0"/>
      <point x="200.0" y="1109.0" type="curve" smooth="yes"/>
      <point x="200.0" y="1180.0"/>
      <point x="241.0" y="1241.0"/>
      <point x="320.0" y="1286.0" type="curve"/>
      <point x="435.0" y="1240.0"/>
      <point x="542.0" y="1214.0"/>
      <point x="542.0" y="1108.0" type="curve" smooth="yes"/>
      <point x="542.0" y="1027.0"/>
      <point x="465.0" y="960.0"/>
    </contour>
    <contour>
      <point x="421.0" y="1349.0" type="curve"/>
      <point x="316.0" y="1383.0"/>
      <point x="232.0" y="1427.0"/>
      <point x="232.0" y="1514.0" type="curve" smooth="yes"/>
      <point x="232.0" y="1585.0"/>
      <point x="295.0" y="1637.0"/>
      <point x="371.0" y="1637.0" type="curve" smooth="yes"/>
      <point x="450.0" y="1637.0"/>
      <point x="515.0" y="1588.0"/>
      <point x="515.0" y="1514.0" type="curve" smooth="yes"/>
      <point x="515.0" y="1455.0"/>
      <point x="485.0" y="1399.0"/>
    </contour>
  </outline>
</glyph>
<glyph name="parenleft.sups" format="2">
  <advance width="470.0"/>
  <unicode hex="207D"/>
  <outline>
    <contour>
      <point x="312.0" y="745.0" type="curve"/>
      <point x="389.0" y="785.0" type="line"/>
      <point x="281.0" y="947.0"/>
      <point x="241.0" y="1118.0"/>
      <point x="241.0" y="1299.0" type="curve" smooth="yes"/>
      <point x="241.0" y="1480.0"/>
      <point x="281.0" y="1652.0"/>
      <point x="389.0" y="1810.0" type="curve"/>
      <point x="312.0" y="1851.0" type="line"/>
      <point x="197.0" y="1688.0"/>
      <point x="134.0" y="1526.0"/>
      <point x="134.0" y="1299.0" type="curve" smooth="yes"/>
      <point x="134.0" y="1071.0"/>
      <point x="197.0" y="907.0"/>
    </contour>
  </outline>
</glyph>
<glyph name="zero.subs" format="2">
  <advance width="747.0"/>
  <unicode hex="2080"/>
  <outline>
    <contour>
      <point x="375.0" y="-427.0" type="curve" smooth="yes"/>
      <point x="555.0" y="-427.0"/>
      <point x="673.0" y="-273.0"/>
      <point x="673.0" y="-1.0" type="curve" smooth="yes"/>
      <point x="673.0" y="269.0"/>
      <point x="555.0" y="421.0"/>
      <point x="375.0" y="421.0" type="curve" smooth="yes"/>
      <point x="193.0" y="421.0"/>
      <point x="76.0" y="269.0"/>
      <point x="76.0" y="-1.0" type="curve" smooth="yes"/>
      <point x="76.0" y="-273.0"/>
      <point x="193.0" y="-427.0"/>
    </contour>
    <contour>
      <point x="375.0" y="-338.0" type="curve" smooth="yes"/>
      <point x="259.0" y="-338.0"/>
      <point x="184.0" y="-221.0"/>
      <point x="184.0" y="-1.0" type="curve" smooth="yes"/>
      <point x="184.0" y="219.0"/>
      <point x="259.0" y="332.0"/>
      <point x="375.0" y="332.0" type="curve" smooth="yes"/>
      <point x="488.0" y="332.0"/>
      <point x="564.0" y="219.0"/>
      <point x="564.0" y="-1.0" type="curve" smooth="yes"/>
      <point x="564.0" y="-221.0"/>
      <point x="488.0" y="-338.0"/>
    </contour>
  </outline>
</glyph>
<glyph name="one.subs" format="2">
  <advance width="747.0"/>
  <unicode hex="2081"/>
  <outline>
    <contour>
      <point x="355.0" y="-403.0" type="line"/>
      <point x="465.0" y="-403.0" type="line"/>
      <point x="465.0" y="396.0" type="line"/>
      <point x="375.0" y="396.0" type="line"/>
      <point x="323.0" y="356.0"/>
      <point x="269.0" y="332.0"/>
      <point x="184.0" y="315.0" type="curve"/>
      <point x="184.0" y="242.0" type="line"/>
      <point x="355.0" y="242.0" type="line"/>
    </contour>
  </outline>
</glyph>
<glyph name="three.subs" format="2">
  <advance width="747.0"/>
  <unicode hex="2083"/>
  <outline>
    <contour>
      <point x="366.0" y="-427.0" type="curve" smooth="yes"/>
      <point x="519.0" y="-427.0"/>
      <point x="644.0" y="-336.0"/>
      <point x="644.0" y="-189.0" type="curve" smooth="yes"/>
      <point x="644.0" y="-81.0"/>
      <point x="559.0" y="-12.0"/>
      <point x="466.0" y="10.0" type="curve"/>
      <point x="550.0" y="46.0"/>
      <point x="612.0" y="111.0"/>
      <point x="612.0" y="209.0" type="curve" smooth="yes"/>
      <point x="612.0" y="341.0"/>
      <point x="498.0" y="421.0"/>
      <point x="362.0" y="421.0" type="curve" smooth="yes"/>
      <point x="255.0" y="421.0"/>
      <point x="173.0" y="368.0"/>
      <point x="109.0" y="291.0" type="curve"/>
      <point x="177.0" y="231.0" type="line"/>
      <point x="224.0" y="291.0"/>
      <point x="286.0" y="332.0"/>
      <point x="347.0" y="332.0" type="curve" smooth="yes"/>
      <point x="442.0" y="332.0"/>
      <point x="503.0" y="278.0"/>
      <point x="503.0" y="196.0" type="curve" smooth="yes"/>
      <point x="503.0" y="110.0"/>
      <point x="419.0" y="41.0"/>
      <point x="272.0" y="41.0" type="curve"/>
      <point x="272.0" y="-33.0" type="line"/>
      <point x="435.0" y="-33.0"/>
      <point x="534.0" y="-86.0"/>
      <point x="534.0" y="-184.0" type="curve" smooth="yes"/>
      <point x="534.0" y="-281.0"/>
      <point x="456.0" y="-338.0"/>
      <point x="363.0" y="-338.0" type="curve" smooth="yes"/>
      <point x="276.0" y="-338.0"/>
      <point x="201.0" y="-288.0"/>
      <point x="152.0" y="-215.0" type="curve"/>
      <point x="76.0" y="-272.0" type="line"/>
      <point x="135.0" y="-358.0"/>
      <point x="239.0" y="-427.0"/>
    </contour>
  </outline>
</glyph>
<glyph name="five.subs" format="2">
  <advance width="747.0"/>
  <unicode hex="2085"/>
  <outline>
    <contour>
      <point x="373.0" y="-427.0" type="curve" smooth="yes"/>
      <point x="531.0" y="-427.0"/>
      <point x="653.0" y="-317.0"/>
      <point x="653.0" y="-151.0" type="curve" smooth="yes"/>
      <point x="653.0" y="24.0"/>
      <point x="536.0" y="119.0"/>
      <point x="392.0" y="119.0" type="curve" smooth="yes"/>
      <point x="338.0" y="119.0"/>
      <point x="294.0" y="104.0"/>
      <point x="254.0" y="84.0" type="curve"/>
      <point x="279.0" y="298.0" type="line"/>
      <point x="612.0" y="298.0" type="line"/>
      <point x="612.0" y="396.0" type="line"/>
      <point x="186.0" y="396.0" type="line"/>
      <point x="148.0" y="14.0" type="line"/>
      <point x="206.0" y="-27.0" type="line"/>
      <point x="249.0" y="8.0"/>
      <point x="297.0" y="41.0"/>
      <point x="364.0" y="41.0" type="curve" smooth="yes"/>
      <point x="470.0" y="41.0"/>
      <point x="543.0" y="-31.0"/>
      <point x="543.0" y="-148.0" type="curve" smooth="yes"/>
      <point x="543.0" y="-259.0"/>
      <point x="468.0" y="-338.0"/>
      <point x="369.0" y="-338.0" type="curve" smooth="yes"/>
      <point x="271.0" y="-338.0"/>
      <point x="204.0" y="-288.0"/>
      <point x="152.0" y="-215.0" type="curve"/>
      <point x="76.0" y="-272.0" type="line"/>
      <point x="137.0" y="-358.0"/>
      <point x="232.0" y="-427.0"/>
    </contour>
  </outline>
</glyph>
<glyph name="seven.subs" format="2">
  <advance width="747.0"/>
  <unicode hex="2087"/>
  <outline>
    <contour>
      <point x="275.0" y="-403.0" type="curve"/>
      <point x="390.0" y="-403.0" type="line"/>
      <point x="406.0" y="-120.0"/>
      <point x="453.0" y="81.0"/>
      <point x="652.0" y="335.0" type="curve"/>
      <point x="652.0" y="396.0" type="line"/>
      <point x="102.0" y="396.0" type="line"/>
      <point x="102.0" y="302.0" type="line"/>
      <point x="527.0" y="302.0" type="line"/>
      <point x="359.0" y="76.0"/>
      <point x="293.0" y="-120.0"/>
    </contour>
  </outline>
</glyph>
<glyph name="eight.subs" format="2">
  <advance width="747.0"/>
  <unicode hex="2088"/>
  <outline>
    <contour>
      <point x="371.0" y="-427.0" type="curve" smooth="yes"/>
      <point x="528.0" y="-427.0"/>
      <point x="647.0" y="-327.0"/>
      <point x="647.0" y="-198.0" type="curve" smooth="yes"/>
      <point x="647.0" y="-101.0"/>
      <point x="591.0" y="-39.0"/>
      <point x="497.0" y="8.0" type="curve"/>
      <point x="497.0" y="16.0" type="line"/>
      <point x="548.0" y="53.0"/>
      <point x="620.0" y="115.0"/>
      <point x="620.0" y="213.0" type="curve" smooth="yes"/>
      <point x="620.0" y="339.0"/>
      <point x="510.0" y="421.0"/>
      <point x="371.0" y="421.0" type="curve" smooth="yes"/>
      <point x="237.0" y="421.0"/>
      <point x="129.0" y="336.0"/>
      <point x="129.0" y="213.0" type="curve" smooth="yes"/>
      <point x="129.0" y="127.0"/>
      <point x="178.0" y="76.0"/>
      <point x="248.0" y="30.0" type="curve"/>
      <point x="248.0" y="22.0" type="line"/>
      <point x="169.0" y="-22.0"/>
      <point x="95.0" y="-102.0"/>
      <point x="95.0" y="-203.0" type="curve" smooth="yes"/>
      <point x="95.0" y="-325.0"/>
      <point x="205.0" y="-427.0"/>
    </contour>
    <contour>
      <point x="371.0" y="-344.0" type="curve" smooth="yes"/>
      <point x="268.0" y="-344.0"/>
      <point x="200.0" y="-271.0"/>
      <point x="200.0" y="-194.0" type="curve" smooth="yes"/>
      <point x="200.0" y="-123.0"/>
      <point x="241.0" y="-63.0"/>
      <point x="320.0" y="-17.0" type="curve"/>
      <point x="435.0" y="-62.0"/>
      <point x="542.0" y="-88.0"/>
      <point x="542.0" y="-195.0" type="curve" smooth="yes"/>
      <point x="542.0" y="-277.0"/>
      <point x="465.0" y="-344.0"/>
    </contour>
    <contour>
      <point x="421.0" y="46.0" type="curve"/>
      <point x="316.0" y="80.0"/>
      <point x="232.0" y="125.0"/>
      <point x="232.0" y="210.0" type="curve" smooth="yes"/>
      <point x="232.0" y="282.0"/>
      <point x="295.0" y="334.0"/>
      <point x="371.0" y="334.0" type="curve" smooth="yes"/>
      <point x="450.0" y="334.0"/>
      <point x="515.0" y="286.0"/>
      <point x="515.0" y="210.0" type="curve" smooth="yes"/>
      <point x="515.0" y="152.0"/>
      <point x="485.0" y="96.0"/>
    </contour>
  </outline>
</glyph>
<glyph name="parenright.subs" format="2">
  <advance width="470.0"/>
  <unicode hex="208E"/>
  <outline>
    <contour>
      <point x="161.0" y="-558.0" type="line"/>
      <point x="274.0" y="-395.0"/>
      <point x="336.0" y="-232.0"/>
      <point x="336.0" y="-4.0" type="curve" smooth="yes"/>
      <point x="336.0" y="222.0"/>
      <point x="274.0" y="384.0"/>
      <point x="161.0" y="548.0" type="curve"/>
      <point x="82.0" y="507.0" type="line"/>
      <point x="189.0" y="349.0"/>
      <point x="228.0" y="178.0"/>
      <point x="228.0" y="-4.0" type="curve" smooth="yes"/>
      <point x="228.0" y="-186.0"/>
      <point x="189.0" y="-356.0"/>
      <point x="82.0" y="-517.0" type="curve"/>
    </contour>
  </outline>
</glyph>
